%TF.GenerationSoftware,KiCad,Pcbnew,10.0.3*%
%TF.CreationDate,2026-08-03T10:03:57-07:00*%
%TF.ProjectId,fs,66732e6b-6963-4616-945f-706362585858,A*%
%TF.SameCoordinates,PX1f1a4e0PY89af760*%
%TF.FileFunction,Paste,Bot*%
%TF.FilePolarity,Positive*%
%FSLAX46Y46*%
G04 Gerber Fmt 4.6, Leading zero omitted, Abs format (unit mm)*
G04 Created by KiCad (PCBNEW 10.0.3) date 2026-08-03 10:03:57*
%MOMM*%
%LPD*%
G01*
G04 APERTURE LIST*
%ADD10C,0.762000*%
G04 APERTURE END LIST*
D10*
X34290572Y-19944128D02*
X35016286Y-20186033D01*
X35016286Y-20186033D02*
X35258191Y-20427937D01*
X35258191Y-20427937D02*
X35500095Y-20911747D01*
X35500095Y-20911747D02*
X35500095Y-21637461D01*
X35500095Y-21637461D02*
X35258191Y-22121271D01*
X35258191Y-22121271D02*
X35016286Y-22363176D01*
X35016286Y-22363176D02*
X34532476Y-22605080D01*
X34532476Y-22605080D02*
X32597238Y-22605080D01*
X32597238Y-22605080D02*
X32597238Y-17525080D01*
X32597238Y-17525080D02*
X34290572Y-17525080D01*
X34290572Y-17525080D02*
X34774381Y-17766985D01*
X34774381Y-17766985D02*
X35016286Y-18008890D01*
X35016286Y-18008890D02*
X35258191Y-18492699D01*
X35258191Y-18492699D02*
X35258191Y-18976509D01*
X35258191Y-18976509D02*
X35016286Y-19460318D01*
X35016286Y-19460318D02*
X34774381Y-19702223D01*
X34774381Y-19702223D02*
X34290572Y-19944128D01*
X34290572Y-19944128D02*
X32597238Y-19944128D01*
X37677238Y-22121271D02*
X37919143Y-22363176D01*
X37919143Y-22363176D02*
X37677238Y-22605080D01*
X37677238Y-22605080D02*
X37435334Y-22363176D01*
X37435334Y-22363176D02*
X37677238Y-22121271D01*
X37677238Y-22121271D02*
X37677238Y-22605080D01*
X40096286Y-22605080D02*
X40096286Y-17525080D01*
X40096286Y-17525080D02*
X42031524Y-17525080D01*
X42031524Y-17525080D02*
X42515334Y-17766985D01*
X42515334Y-17766985D02*
X42757239Y-18008890D01*
X42757239Y-18008890D02*
X42999143Y-18492699D01*
X42999143Y-18492699D02*
X42999143Y-19218414D01*
X42999143Y-19218414D02*
X42757239Y-19702223D01*
X42757239Y-19702223D02*
X42515334Y-19944128D01*
X42515334Y-19944128D02*
X42031524Y-20186033D01*
X42031524Y-20186033D02*
X40096286Y-20186033D01*
X47353429Y-22605080D02*
X47353429Y-19944128D01*
X47353429Y-19944128D02*
X47111524Y-19460318D01*
X47111524Y-19460318D02*
X46627715Y-19218414D01*
X46627715Y-19218414D02*
X45660096Y-19218414D01*
X45660096Y-19218414D02*
X45176286Y-19460318D01*
X47353429Y-22363176D02*
X46869620Y-22605080D01*
X46869620Y-22605080D02*
X45660096Y-22605080D01*
X45660096Y-22605080D02*
X45176286Y-22363176D01*
X45176286Y-22363176D02*
X44934382Y-21879366D01*
X44934382Y-21879366D02*
X44934382Y-21395556D01*
X44934382Y-21395556D02*
X45176286Y-20911747D01*
X45176286Y-20911747D02*
X45660096Y-20669842D01*
X45660096Y-20669842D02*
X46869620Y-20669842D01*
X46869620Y-20669842D02*
X47353429Y-20427937D01*
X49530572Y-22363176D02*
X50014381Y-22605080D01*
X50014381Y-22605080D02*
X50982000Y-22605080D01*
X50982000Y-22605080D02*
X51465810Y-22363176D01*
X51465810Y-22363176D02*
X51707714Y-21879366D01*
X51707714Y-21879366D02*
X51707714Y-21637461D01*
X51707714Y-21637461D02*
X51465810Y-21153652D01*
X51465810Y-21153652D02*
X50982000Y-20911747D01*
X50982000Y-20911747D02*
X50256286Y-20911747D01*
X50256286Y-20911747D02*
X49772476Y-20669842D01*
X49772476Y-20669842D02*
X49530572Y-20186033D01*
X49530572Y-20186033D02*
X49530572Y-19944128D01*
X49530572Y-19944128D02*
X49772476Y-19460318D01*
X49772476Y-19460318D02*
X50256286Y-19218414D01*
X50256286Y-19218414D02*
X50982000Y-19218414D01*
X50982000Y-19218414D02*
X51465810Y-19460318D01*
X53159143Y-19218414D02*
X55094381Y-19218414D01*
X53884857Y-17525080D02*
X53884857Y-21879366D01*
X53884857Y-21879366D02*
X54126762Y-22363176D01*
X54126762Y-22363176D02*
X54610572Y-22605080D01*
X54610572Y-22605080D02*
X55094381Y-22605080D01*
X58722952Y-22363176D02*
X58239143Y-22605080D01*
X58239143Y-22605080D02*
X57271524Y-22605080D01*
X57271524Y-22605080D02*
X56787714Y-22363176D01*
X56787714Y-22363176D02*
X56545810Y-21879366D01*
X56545810Y-21879366D02*
X56545810Y-19944128D01*
X56545810Y-19944128D02*
X56787714Y-19460318D01*
X56787714Y-19460318D02*
X57271524Y-19218414D01*
X57271524Y-19218414D02*
X58239143Y-19218414D01*
X58239143Y-19218414D02*
X58722952Y-19460318D01*
X58722952Y-19460318D02*
X58964857Y-19944128D01*
X58964857Y-19944128D02*
X58964857Y-20427937D01*
X58964857Y-20427937D02*
X56545810Y-20911747D01*
M02*
