%TF.GenerationSoftware,KiCad,Pcbnew,10.0.3*%
%TF.CreationDate,2026-08-03T10:03:57-07:00*%
%TF.ProjectId,fs,66732e6b-6963-4616-945f-706362585858,A*%
%TF.SameCoordinates,PX1f1a4e0PY89af760*%
%TF.FileFunction,Legend,Bot*%
%TF.FilePolarity,Positive*%
%FSLAX46Y46*%
G04 Gerber Fmt 4.6, Leading zero omitted, Abs format (unit mm)*
G04 Created by KiCad (PCBNEW 10.0.3) date 2026-08-03 10:03:57*
%MOMM*%
%LPD*%
G01*
G04 APERTURE LIST*
%ADD10C,0.762000*%
%ADD11C,0.150000*%
%ADD12C,0.508000*%
%ADD13C,0.120000*%
G04 APERTURE END LIST*
D10*
X34290572Y-35184128D02*
X35016286Y-35426033D01*
X35016286Y-35426033D02*
X35258191Y-35667937D01*
X35258191Y-35667937D02*
X35500095Y-36151747D01*
X35500095Y-36151747D02*
X35500095Y-36877461D01*
X35500095Y-36877461D02*
X35258191Y-37361271D01*
X35258191Y-37361271D02*
X35016286Y-37603176D01*
X35016286Y-37603176D02*
X34532476Y-37845080D01*
X34532476Y-37845080D02*
X32597238Y-37845080D01*
X32597238Y-37845080D02*
X32597238Y-32765080D01*
X32597238Y-32765080D02*
X34290572Y-32765080D01*
X34290572Y-32765080D02*
X34774381Y-33006985D01*
X34774381Y-33006985D02*
X35016286Y-33248890D01*
X35016286Y-33248890D02*
X35258191Y-33732699D01*
X35258191Y-33732699D02*
X35258191Y-34216509D01*
X35258191Y-34216509D02*
X35016286Y-34700318D01*
X35016286Y-34700318D02*
X34774381Y-34942223D01*
X34774381Y-34942223D02*
X34290572Y-35184128D01*
X34290572Y-35184128D02*
X32597238Y-35184128D01*
X37677238Y-37361271D02*
X37919143Y-37603176D01*
X37919143Y-37603176D02*
X37677238Y-37845080D01*
X37677238Y-37845080D02*
X37435334Y-37603176D01*
X37435334Y-37603176D02*
X37677238Y-37361271D01*
X37677238Y-37361271D02*
X37677238Y-37845080D01*
X39854382Y-37603176D02*
X40580096Y-37845080D01*
X40580096Y-37845080D02*
X41789620Y-37845080D01*
X41789620Y-37845080D02*
X42273429Y-37603176D01*
X42273429Y-37603176D02*
X42515334Y-37361271D01*
X42515334Y-37361271D02*
X42757239Y-36877461D01*
X42757239Y-36877461D02*
X42757239Y-36393652D01*
X42757239Y-36393652D02*
X42515334Y-35909842D01*
X42515334Y-35909842D02*
X42273429Y-35667937D01*
X42273429Y-35667937D02*
X41789620Y-35426033D01*
X41789620Y-35426033D02*
X40822001Y-35184128D01*
X40822001Y-35184128D02*
X40338191Y-34942223D01*
X40338191Y-34942223D02*
X40096286Y-34700318D01*
X40096286Y-34700318D02*
X39854382Y-34216509D01*
X39854382Y-34216509D02*
X39854382Y-33732699D01*
X39854382Y-33732699D02*
X40096286Y-33248890D01*
X40096286Y-33248890D02*
X40338191Y-33006985D01*
X40338191Y-33006985D02*
X40822001Y-32765080D01*
X40822001Y-32765080D02*
X42031524Y-32765080D01*
X42031524Y-32765080D02*
X42757239Y-33006985D01*
X44934381Y-37845080D02*
X44934381Y-34458414D01*
X44934381Y-32765080D02*
X44692477Y-33006985D01*
X44692477Y-33006985D02*
X44934381Y-33248890D01*
X44934381Y-33248890D02*
X45176286Y-33006985D01*
X45176286Y-33006985D02*
X44934381Y-32765080D01*
X44934381Y-32765080D02*
X44934381Y-33248890D01*
X48079144Y-37845080D02*
X47595334Y-37603176D01*
X47595334Y-37603176D02*
X47353429Y-37119366D01*
X47353429Y-37119366D02*
X47353429Y-32765080D01*
X50014381Y-37845080D02*
X50014381Y-32765080D01*
X50498191Y-35909842D02*
X51949619Y-37845080D01*
X51949619Y-34458414D02*
X50014381Y-36393652D01*
X53884858Y-37603176D02*
X54368667Y-37845080D01*
X54368667Y-37845080D02*
X55336286Y-37845080D01*
X55336286Y-37845080D02*
X55820096Y-37603176D01*
X55820096Y-37603176D02*
X56062000Y-37119366D01*
X56062000Y-37119366D02*
X56062000Y-36877461D01*
X56062000Y-36877461D02*
X55820096Y-36393652D01*
X55820096Y-36393652D02*
X55336286Y-36151747D01*
X55336286Y-36151747D02*
X54610572Y-36151747D01*
X54610572Y-36151747D02*
X54126762Y-35909842D01*
X54126762Y-35909842D02*
X53884858Y-35426033D01*
X53884858Y-35426033D02*
X53884858Y-35184128D01*
X53884858Y-35184128D02*
X54126762Y-34700318D01*
X54126762Y-34700318D02*
X54610572Y-34458414D01*
X54610572Y-34458414D02*
X55336286Y-34458414D01*
X55336286Y-34458414D02*
X55820096Y-34700318D01*
X60416286Y-37603176D02*
X59932477Y-37845080D01*
X59932477Y-37845080D02*
X58964858Y-37845080D01*
X58964858Y-37845080D02*
X58481048Y-37603176D01*
X58481048Y-37603176D02*
X58239143Y-37361271D01*
X58239143Y-37361271D02*
X57997239Y-36877461D01*
X57997239Y-36877461D02*
X57997239Y-35426033D01*
X57997239Y-35426033D02*
X58239143Y-34942223D01*
X58239143Y-34942223D02*
X58481048Y-34700318D01*
X58481048Y-34700318D02*
X58964858Y-34458414D01*
X58964858Y-34458414D02*
X59932477Y-34458414D01*
X59932477Y-34458414D02*
X60416286Y-34700318D01*
X62593429Y-37845080D02*
X62593429Y-34458414D01*
X62593429Y-35426033D02*
X62835334Y-34942223D01*
X62835334Y-34942223D02*
X63077239Y-34700318D01*
X63077239Y-34700318D02*
X63561048Y-34458414D01*
X63561048Y-34458414D02*
X64044858Y-34458414D01*
X67673429Y-37603176D02*
X67189620Y-37845080D01*
X67189620Y-37845080D02*
X66222001Y-37845080D01*
X66222001Y-37845080D02*
X65738191Y-37603176D01*
X65738191Y-37603176D02*
X65496287Y-37119366D01*
X65496287Y-37119366D02*
X65496287Y-35184128D01*
X65496287Y-35184128D02*
X65738191Y-34700318D01*
X65738191Y-34700318D02*
X66222001Y-34458414D01*
X66222001Y-34458414D02*
X67189620Y-34458414D01*
X67189620Y-34458414D02*
X67673429Y-34700318D01*
X67673429Y-34700318D02*
X67915334Y-35184128D01*
X67915334Y-35184128D02*
X67915334Y-35667937D01*
X67915334Y-35667937D02*
X65496287Y-36151747D01*
X72027715Y-37603176D02*
X71543906Y-37845080D01*
X71543906Y-37845080D02*
X70576287Y-37845080D01*
X70576287Y-37845080D02*
X70092477Y-37603176D01*
X70092477Y-37603176D02*
X69850573Y-37119366D01*
X69850573Y-37119366D02*
X69850573Y-35184128D01*
X69850573Y-35184128D02*
X70092477Y-34700318D01*
X70092477Y-34700318D02*
X70576287Y-34458414D01*
X70576287Y-34458414D02*
X71543906Y-34458414D01*
X71543906Y-34458414D02*
X72027715Y-34700318D01*
X72027715Y-34700318D02*
X72269620Y-35184128D01*
X72269620Y-35184128D02*
X72269620Y-35667937D01*
X72269620Y-35667937D02*
X69850573Y-36151747D01*
X74446763Y-34458414D02*
X74446763Y-37845080D01*
X74446763Y-34942223D02*
X74688668Y-34700318D01*
X74688668Y-34700318D02*
X75172478Y-34458414D01*
X75172478Y-34458414D02*
X75898192Y-34458414D01*
X75898192Y-34458414D02*
X76382001Y-34700318D01*
X76382001Y-34700318D02*
X76623906Y-35184128D01*
X76623906Y-35184128D02*
X76623906Y-37845080D01*
D11*
X149988447Y82323781D02*
X150321780Y82799972D01*
X150559875Y82323781D02*
X150559875Y83323781D01*
X150559875Y83323781D02*
X150178923Y83323781D01*
X150178923Y83323781D02*
X150083685Y83276162D01*
X150083685Y83276162D02*
X150036066Y83228543D01*
X150036066Y83228543D02*
X149988447Y83133305D01*
X149988447Y83133305D02*
X149988447Y82990448D01*
X149988447Y82990448D02*
X150036066Y82895210D01*
X150036066Y82895210D02*
X150083685Y82847591D01*
X150083685Y82847591D02*
X150178923Y82799972D01*
X150178923Y82799972D02*
X150559875Y82799972D01*
X149036066Y82323781D02*
X149607494Y82323781D01*
X149321780Y82323781D02*
X149321780Y83323781D01*
X149321780Y83323781D02*
X149417018Y83180924D01*
X149417018Y83180924D02*
X149512256Y83085686D01*
X149512256Y83085686D02*
X149607494Y83038067D01*
X148083685Y82323781D02*
X148655113Y82323781D01*
X148369399Y82323781D02*
X148369399Y83323781D01*
X148369399Y83323781D02*
X148464637Y83180924D01*
X148464637Y83180924D02*
X148559875Y83085686D01*
X148559875Y83085686D02*
X148655113Y83038067D01*
X147464637Y83323781D02*
X147369399Y83323781D01*
X147369399Y83323781D02*
X147274161Y83276162D01*
X147274161Y83276162D02*
X147226542Y83228543D01*
X147226542Y83228543D02*
X147178923Y83133305D01*
X147178923Y83133305D02*
X147131304Y82942829D01*
X147131304Y82942829D02*
X147131304Y82704734D01*
X147131304Y82704734D02*
X147178923Y82514258D01*
X147178923Y82514258D02*
X147226542Y82419020D01*
X147226542Y82419020D02*
X147274161Y82371400D01*
X147274161Y82371400D02*
X147369399Y82323781D01*
X147369399Y82323781D02*
X147464637Y82323781D01*
X147464637Y82323781D02*
X147559875Y82371400D01*
X147559875Y82371400D02*
X147607494Y82419020D01*
X147607494Y82419020D02*
X147655113Y82514258D01*
X147655113Y82514258D02*
X147702732Y82704734D01*
X147702732Y82704734D02*
X147702732Y82942829D01*
X147702732Y82942829D02*
X147655113Y83133305D01*
X147655113Y83133305D02*
X147607494Y83228543D01*
X147607494Y83228543D02*
X147559875Y83276162D01*
X147559875Y83276162D02*
X147464637Y83323781D01*
%TO.C,J102*%
D12*
X150482300Y95250000D02*
G75*
G02*
X149720300Y95250000I-381000J0D01*
G01*
X149720300Y95250000D02*
G75*
G02*
X150482300Y95250000I381000J0D01*
G01*
%TO.C,R110*%
D13*
X139890400Y88874600D02*
X141070400Y88874600D01*
X167490400Y88874600D02*
X166310400Y88874600D01*
X141070400Y93494600D02*
X166310400Y93494600D01*
X166310400Y84254600D01*
X141070400Y84254600D01*
X141070400Y93494600D01*
%TD*%
M02*
