%TF.GenerationSoftware,KiCad,Pcbnew,10.0.3*%
%TF.CreationDate,2026-08-03T10:03:57-07:00*%
%TF.ProjectId,fs,66732e6b-6963-4616-945f-706362585858,A*%
%TF.SameCoordinates,PX1f1a4e0PY89af760*%
%TF.FileFunction,Copper,L1,Top*%
%TF.FilePolarity,Positive*%
%FSLAX46Y46*%
G04 Gerber Fmt 4.6, Leading zero omitted, Abs format (unit mm)*
G04 Created by KiCad (PCBNEW 10.0.3) date 2026-08-03 10:03:57*
%MOMM*%
%LPD*%
G01*
G04 APERTURE LIST*
G04 Aperture macros list*
%AMRoundRect*
0 Rectangle with rounded corners*
0 $1 Rounding radius*
0 $2 $3 $4 $5 $6 $7 $8 $9 X,Y pos of 4 corners*
0 Add a 4 corners polygon primitive as box body*
4,1,4,$2,$3,$4,$5,$6,$7,$8,$9,$2,$3,0*
0 Add four circle primitives for the rounded corners*
1,1,$1+$1,$2,$3*
1,1,$1+$1,$4,$5*
1,1,$1+$1,$6,$7*
1,1,$1+$1,$8,$9*
0 Add four rect primitives between the rounded corners*
20,1,$1+$1,$2,$3,$4,$5,0*
20,1,$1+$1,$4,$5,$6,$7,0*
20,1,$1+$1,$6,$7,$8,$9,0*
20,1,$1+$1,$8,$9,$2,$3,0*%
G04 Aperture macros list end*
%ADD10C,0.762000*%
%TA.AperFunction,NonConductor*%
%ADD11C,0.762000*%
%TD*%
%TA.AperFunction,SMDPad,CuDef*%
%ADD12RoundRect,0.250000X0.325000X0.650000X-0.325000X0.650000X-0.325000X-0.650000X0.325000X-0.650000X0*%
%TD*%
%TA.AperFunction,SMDPad,CuDef*%
%ADD13RoundRect,0.200000X0.200000X0.275000X-0.200000X0.275000X-0.200000X-0.275000X0.200000X-0.275000X0*%
%TD*%
%TA.AperFunction,SMDPad,CuDef*%
%ADD14RoundRect,0.200000X-0.200000X-0.275000X0.200000X-0.275000X0.200000X0.275000X-0.200000X0.275000X0*%
%TD*%
%TA.AperFunction,SMDPad,CuDef*%
%ADD15RoundRect,0.200000X0.275000X-0.200000X0.275000X0.200000X-0.275000X0.200000X-0.275000X-0.200000X0*%
%TD*%
%TA.AperFunction,SMDPad,CuDef*%
%ADD16RoundRect,0.150000X0.587500X0.150000X-0.587500X0.150000X-0.587500X-0.150000X0.587500X-0.150000X0*%
%TD*%
%TA.AperFunction,ComponentPad*%
%ADD17C,2.000000*%
%TD*%
%TA.AperFunction,SMDPad,CuDef*%
%ADD18RoundRect,0.225000X0.225000X0.250000X-0.225000X0.250000X-0.225000X-0.250000X0.225000X-0.250000X0*%
%TD*%
%TA.AperFunction,SMDPad,CuDef*%
%ADD19RoundRect,0.225000X-0.225000X-0.250000X0.225000X-0.250000X0.225000X0.250000X-0.225000X0.250000X0*%
%TD*%
%TA.AperFunction,ComponentPad*%
%ADD20C,5.600000*%
%TD*%
%TA.AperFunction,SMDPad,CuDef*%
%ADD21RoundRect,0.250000X-0.625000X0.312500X-0.625000X-0.312500X0.625000X-0.312500X0.625000X0.312500X0*%
%TD*%
%TA.AperFunction,SMDPad,CuDef*%
%ADD22RoundRect,0.150000X-0.150000X0.725000X-0.150000X-0.725000X0.150000X-0.725000X0.150000X0.725000X0*%
%TD*%
%TA.AperFunction,ComponentPad*%
%ADD23C,1.000000*%
%TD*%
%TA.AperFunction,SMDPad,CuDef*%
%ADD24RoundRect,0.150000X0.150000X-0.725000X0.150000X0.725000X-0.150000X0.725000X-0.150000X-0.725000X0*%
%TD*%
%TA.AperFunction,SMDPad,CuDef*%
%ADD25RoundRect,0.225000X-0.250000X0.225000X-0.250000X-0.225000X0.250000X-0.225000X0.250000X0.225000X0*%
%TD*%
%TA.AperFunction,SMDPad,CuDef*%
%ADD26RoundRect,0.150000X-0.725000X-0.150000X0.725000X-0.150000X0.725000X0.150000X-0.725000X0.150000X0*%
%TD*%
%TA.AperFunction,SMDPad,CuDef*%
%ADD27RoundRect,0.150000X-0.512500X-0.150000X0.512500X-0.150000X0.512500X0.150000X-0.512500X0.150000X0*%
%TD*%
%TA.AperFunction,SMDPad,CuDef*%
%ADD28RoundRect,0.140000X0.140000X0.170000X-0.140000X0.170000X-0.140000X-0.170000X0.140000X-0.170000X0*%
%TD*%
%TA.AperFunction,SMDPad,CuDef*%
%ADD29C,0.500000*%
%TD*%
%TA.AperFunction,SMDPad,CuDef*%
%ADD30RoundRect,0.225000X0.250000X-0.225000X0.250000X0.225000X-0.250000X0.225000X-0.250000X-0.225000X0*%
%TD*%
%TA.AperFunction,SMDPad,CuDef*%
%ADD31RoundRect,0.218750X0.218750X0.256250X-0.218750X0.256250X-0.218750X-0.256250X0.218750X-0.256250X0*%
%TD*%
%TA.AperFunction,SMDPad,CuDef*%
%ADD32RoundRect,0.150000X0.150000X-0.587500X0.150000X0.587500X-0.150000X0.587500X-0.150000X-0.587500X0*%
%TD*%
%TA.AperFunction,SMDPad,CuDef*%
%ADD33R,3.000000X6.000000*%
%TD*%
%TA.AperFunction,SMDPad,CuDef*%
%ADD34RoundRect,0.200000X-0.275000X0.200000X-0.275000X-0.200000X0.275000X-0.200000X0.275000X0.200000X0*%
%TD*%
%TA.AperFunction,SMDPad,CuDef*%
%ADD35RoundRect,0.218750X-0.256250X0.218750X-0.256250X-0.218750X0.256250X-0.218750X0.256250X0.218750X0*%
%TD*%
%TA.AperFunction,SMDPad,CuDef*%
%ADD36RoundRect,0.218750X-0.218750X-0.256250X0.218750X-0.256250X0.218750X0.256250X-0.218750X0.256250X0*%
%TD*%
%TA.AperFunction,SMDPad,CuDef*%
%ADD37RoundRect,0.250000X0.945000X-0.785000X0.945000X0.785000X-0.945000X0.785000X-0.945000X-0.785000X0*%
%TD*%
%TA.AperFunction,ComponentPad*%
%ADD38C,2.400000*%
%TD*%
%TA.AperFunction,SMDPad,CuDef*%
%ADD39RoundRect,0.150000X-0.150000X0.512500X-0.150000X-0.512500X0.150000X-0.512500X0.150000X0.512500X0*%
%TD*%
%TA.AperFunction,SMDPad,CuDef*%
%ADD40RoundRect,0.250000X-0.650000X0.325000X-0.650000X-0.325000X0.650000X-0.325000X0.650000X0.325000X0*%
%TD*%
%TA.AperFunction,SMDPad,CuDef*%
%ADD41RoundRect,0.150000X0.725000X0.150000X-0.725000X0.150000X-0.725000X-0.150000X0.725000X-0.150000X0*%
%TD*%
%TA.AperFunction,SMDPad,CuDef*%
%ADD42R,2.921000X2.794000*%
%TD*%
%TA.AperFunction,SMDPad,CuDef*%
%ADD43RoundRect,0.218750X-0.218750X-0.381250X0.218750X-0.381250X0.218750X0.381250X-0.218750X0.381250X0*%
%TD*%
%TA.AperFunction,SMDPad,CuDef*%
%ADD44RoundRect,0.150000X-0.587500X-0.150000X0.587500X-0.150000X0.587500X0.150000X-0.587500X0.150000X0*%
%TD*%
%TA.AperFunction,SMDPad,CuDef*%
%ADD45R,1.524000X1.778000*%
%TD*%
%TA.AperFunction,SMDPad,CuDef*%
%ADD46R,1.778000X1.524000*%
%TD*%
%TA.AperFunction,ComponentPad*%
%ADD47C,1.016000*%
%TD*%
%TA.AperFunction,SMDPad,CuDef*%
%ADD48R,3.683000X5.207000*%
%TD*%
%TA.AperFunction,SMDPad,CuDef*%
%ADD49R,4.470400X7.620000*%
%TD*%
%TA.AperFunction,SMDPad,CuDef*%
%ADD50R,3.683000X14.224000*%
%TD*%
%TA.AperFunction,SMDPad,CuDef*%
%ADD51RoundRect,0.218750X0.381250X-0.218750X0.381250X0.218750X-0.381250X0.218750X-0.381250X-0.218750X0*%
%TD*%
%TA.AperFunction,SMDPad,CuDef*%
%ADD52RoundRect,0.250000X0.250000X0.475000X-0.250000X0.475000X-0.250000X-0.475000X0.250000X-0.475000X0*%
%TD*%
%TA.AperFunction,SMDPad,CuDef*%
%ADD53RoundRect,0.250000X-2.050000X-0.300000X2.050000X-0.300000X2.050000X0.300000X-2.050000X0.300000X0*%
%TD*%
%TA.AperFunction,SMDPad,CuDef*%
%ADD54RoundRect,0.250002X-4.449998X-5.149998X4.449998X-5.149998X4.449998X5.149998X-4.449998X5.149998X0*%
%TD*%
%TA.AperFunction,SMDPad,CuDef*%
%ADD55RoundRect,0.140000X0.170000X-0.140000X0.170000X0.140000X-0.170000X0.140000X-0.170000X-0.140000X0*%
%TD*%
%TA.AperFunction,ComponentPad*%
%ADD56RoundRect,0.250000X0.750000X-0.750000X0.750000X0.750000X-0.750000X0.750000X-0.750000X-0.750000X0*%
%TD*%
%TA.AperFunction,ComponentPad*%
%ADD57R,1.700000X1.700000*%
%TD*%
%TA.AperFunction,ComponentPad*%
%ADD58C,1.700000*%
%TD*%
%TA.AperFunction,SMDPad,CuDef*%
%ADD59RoundRect,0.250000X2.050000X0.300000X-2.050000X0.300000X-2.050000X-0.300000X2.050000X-0.300000X0*%
%TD*%
%TA.AperFunction,SMDPad,CuDef*%
%ADD60RoundRect,0.250002X4.449998X5.149998X-4.449998X5.149998X-4.449998X-5.149998X4.449998X-5.149998X0*%
%TD*%
%TA.AperFunction,SMDPad,CuDef*%
%ADD61RoundRect,0.250000X-0.850000X-0.350000X0.850000X-0.350000X0.850000X0.350000X-0.850000X0.350000X0*%
%TD*%
%TA.AperFunction,SMDPad,CuDef*%
%ADD62RoundRect,0.249997X-2.950003X-2.650003X2.950003X-2.650003X2.950003X2.650003X-2.950003X2.650003X0*%
%TD*%
%TA.AperFunction,SMDPad,CuDef*%
%ADD63RoundRect,0.375000X-0.375000X0.625000X-0.375000X-0.625000X0.375000X-0.625000X0.375000X0.625000X0*%
%TD*%
%TA.AperFunction,SMDPad,CuDef*%
%ADD64RoundRect,0.500000X-1.400000X0.500000X-1.400000X-0.500000X1.400000X-0.500000X1.400000X0.500000X0*%
%TD*%
%TA.AperFunction,SMDPad,CuDef*%
%ADD65RoundRect,0.250000X-0.945000X0.785000X-0.945000X-0.785000X0.945000X-0.785000X0.945000X0.785000X0*%
%TD*%
%TA.AperFunction,SMDPad,CuDef*%
%ADD66RoundRect,0.250000X-0.250000X-0.475000X0.250000X-0.475000X0.250000X0.475000X-0.250000X0.475000X0*%
%TD*%
%TA.AperFunction,SMDPad,CuDef*%
%ADD67RoundRect,0.250000X-0.375000X-1.075000X0.375000X-1.075000X0.375000X1.075000X-0.375000X1.075000X0*%
%TD*%
%TA.AperFunction,SMDPad,CuDef*%
%ADD68R,4.826000X2.286000*%
%TD*%
%TA.AperFunction,SMDPad,CuDef*%
%ADD69RoundRect,0.150000X-0.825000X-0.150000X0.825000X-0.150000X0.825000X0.150000X-0.825000X0.150000X0*%
%TD*%
%TA.AperFunction,ComponentPad*%
%ADD70C,2.580000*%
%TD*%
%TA.AperFunction,ComponentPad*%
%ADD71C,2.286000*%
%TD*%
%TA.AperFunction,SMDPad,CuDef*%
%ADD72RoundRect,0.375000X0.375000X-0.625000X0.375000X0.625000X-0.375000X0.625000X-0.375000X-0.625000X0*%
%TD*%
%TA.AperFunction,SMDPad,CuDef*%
%ADD73RoundRect,0.500000X1.400000X-0.500000X1.400000X0.500000X-1.400000X0.500000X-1.400000X-0.500000X0*%
%TD*%
%TA.AperFunction,SMDPad,CuDef*%
%ADD74RoundRect,0.250000X-1.000000X-0.900000X1.000000X-0.900000X1.000000X0.900000X-1.000000X0.900000X0*%
%TD*%
%TA.AperFunction,SMDPad,CuDef*%
%ADD75RoundRect,0.250000X0.275000X0.700000X-0.275000X0.700000X-0.275000X-0.700000X0.275000X-0.700000X0*%
%TD*%
%TA.AperFunction,SMDPad,CuDef*%
%ADD76RoundRect,0.250000X0.650000X-0.325000X0.650000X0.325000X-0.650000X0.325000X-0.650000X-0.325000X0*%
%TD*%
%TA.AperFunction,ViaPad*%
%ADD77C,0.600000*%
%TD*%
%TA.AperFunction,Conductor*%
%ADD78C,0.200000*%
%TD*%
%TA.AperFunction,Conductor*%
%ADD79C,0.635000*%
%TD*%
%TA.AperFunction,Conductor*%
%ADD80C,1.270000*%
%TD*%
G04 APERTURE END LIST*
D10*
D11*
X-1269428Y-12324128D02*
X-2962762Y-12324128D01*
X-2962762Y-14985080D02*
X-2962762Y-9905080D01*
X-2962762Y-9905080D02*
X-543714Y-9905080D01*
X1391524Y-14501271D02*
X1633429Y-14743176D01*
X1633429Y-14743176D02*
X1391524Y-14985080D01*
X1391524Y-14985080D02*
X1149620Y-14743176D01*
X1149620Y-14743176D02*
X1391524Y-14501271D01*
X1391524Y-14501271D02*
X1391524Y-14985080D01*
X6713429Y-14501271D02*
X6471525Y-14743176D01*
X6471525Y-14743176D02*
X5745810Y-14985080D01*
X5745810Y-14985080D02*
X5262001Y-14985080D01*
X5262001Y-14985080D02*
X4536287Y-14743176D01*
X4536287Y-14743176D02*
X4052477Y-14259366D01*
X4052477Y-14259366D02*
X3810572Y-13775556D01*
X3810572Y-13775556D02*
X3568668Y-12807937D01*
X3568668Y-12807937D02*
X3568668Y-12082223D01*
X3568668Y-12082223D02*
X3810572Y-11114604D01*
X3810572Y-11114604D02*
X4052477Y-10630795D01*
X4052477Y-10630795D02*
X4536287Y-10146985D01*
X4536287Y-10146985D02*
X5262001Y-9905080D01*
X5262001Y-9905080D02*
X5745810Y-9905080D01*
X5745810Y-9905080D02*
X6471525Y-10146985D01*
X6471525Y-10146985D02*
X6713429Y-10388890D01*
X11067715Y-11598414D02*
X11067715Y-14985080D01*
X8890572Y-11598414D02*
X8890572Y-14259366D01*
X8890572Y-14259366D02*
X9132477Y-14743176D01*
X9132477Y-14743176D02*
X9616287Y-14985080D01*
X9616287Y-14985080D02*
X10342001Y-14985080D01*
X10342001Y-14985080D02*
X10825810Y-14743176D01*
X10825810Y-14743176D02*
X11067715Y-14501271D01*
D12*
%TO.P,C208,1*%
%TO.N,Net-(C208-Pad1)*%
X14503400Y28676600D03*
%TO.P,C208,2*%
%TO.N,GND*%
X11553400Y28676600D03*
%TD*%
D13*
%TO.P,R419,1*%
%TO.N,/Front Panel/-4.61V*%
X112006900Y77921100D03*
%TO.P,R419,2*%
%TO.N,/Front Panel/-5.38V*%
X110356900Y77921100D03*
%TD*%
D14*
%TO.P,R434,1*%
%TO.N,/SC10L_+5VREF*%
X96417953Y106885600D03*
%TO.P,R434,2*%
%TO.N,/Front Panel/-7.94VDC*%
X98067953Y106885600D03*
%TD*%
D15*
%TO.P,R105,1*%
%TO.N,+12V*%
X130704400Y96553100D03*
%TO.P,R105,2*%
%TO.N,Net-(U110-+)*%
X130704400Y98203100D03*
%TD*%
D16*
%TO.P,D102,1,A_1*%
%TO.N,GND*%
X96669900Y66202600D03*
%TO.P,D102,2,K_2*%
%TO.N,+5V*%
X96669900Y68102600D03*
%TO.P,D102,3,COM_3*%
%TO.N,/Phase Noise/FREQ_CTL*%
X94794900Y67152600D03*
%TD*%
D14*
%TO.P,R202,1*%
%TO.N,Net-(U201--)*%
X24600400Y45567600D03*
%TO.P,R202,2*%
%TO.N,GND*%
X26250400Y45567600D03*
%TD*%
D15*
%TO.P,R208,1*%
%TO.N,Net-(U202-DC)*%
X14503400Y21438600D03*
%TO.P,R208,2*%
%TO.N,Net-(C208-Pad1)*%
X14503400Y23088600D03*
%TD*%
D17*
%TO.P,TP105,1,1_1*%
%TO.N,GND*%
X82321400Y31978600D03*
%TD*%
D18*
%TO.P,C305,1*%
%TO.N,GND*%
X105956400Y14900500D03*
%TO.P,C305,2*%
%TO.N,Net-(U303-V+)*%
X104406400Y14900500D03*
%TD*%
D13*
%TO.P,R403,1*%
%TO.N,Net-(Q401-D)*%
X8406400Y23139400D03*
%TO.P,R403,2*%
%TO.N,Net-(J401-Pin_3)*%
X6756400Y23139400D03*
%TD*%
D19*
%TO.P,C319,1*%
%TO.N,/Outputs/OUT4*%
X124853400Y11852500D03*
%TO.P,C319,2*%
%TO.N,GND*%
X126403400Y11852500D03*
%TD*%
D20*
%TO.P,H101,1,1_1*%
%TO.N,GND*%
X23428400Y60553600D03*
%TD*%
D21*
%TO.P,R223,1*%
%TO.N,Net-(R221-Pad1)*%
X42062400Y11724100D03*
%TO.P,R223,2*%
%TO.N,Net-(D203-CATHODE)*%
X42062400Y8799100D03*
%TD*%
D22*
%TO.P,U302,1,NC_1*%
%TO.N,unconnected-(U302-NC-Pad1)*%
X85247800Y21983500D03*
%TO.P,U302,2,-_2*%
%TO.N,Net-(U302--)*%
X83977800Y21983500D03*
%TO.P,U302,3,+_3*%
%TO.N,/Outputs/BUF*%
X82707800Y21983500D03*
%TO.P,U302,4,V-_4*%
%TO.N,Net-(U302-V-)*%
X81437800Y21983500D03*
%TO.P,U302,5,NC_5*%
%TO.N,unconnected-(U302-NC-Pad5)*%
X81437800Y16833500D03*
%TO.P,U302,6*%
%TO.N,Net-(R305-Pad1)*%
X82707800Y16833500D03*
%TO.P,U302,7,V+_7*%
%TO.N,Net-(U302-V+)*%
X83977800Y16833500D03*
%TO.P,U302,8,NC_8*%
%TO.N,unconnected-(U302-NC-Pad8)*%
X85247800Y16833500D03*
%TD*%
D17*
%TO.P,TP108,1,1_1*%
%TO.N,GND*%
X114808000Y60553600D03*
%TD*%
D21*
%TO.P,R317,1*%
%TO.N,Net-(R314-Pad1)*%
X143154400Y11597100D03*
%TO.P,R317,2*%
%TO.N,/Outputs/OUT5*%
X143154400Y8672100D03*
%TD*%
D18*
%TO.P,C303,1*%
%TO.N,GND*%
X85623400Y14900500D03*
%TO.P,C303,2*%
%TO.N,Net-(U302-V+)*%
X84073400Y14900500D03*
%TD*%
D15*
%TO.P,R205,1*%
%TO.N,+9V*%
X19601800Y68822100D03*
%TO.P,R205,2*%
%TO.N,/Phase Noise/0.3V*%
X19601800Y70472100D03*
%TD*%
D19*
%TO.P,C105,1*%
%TO.N,GND*%
X106692400Y30327600D03*
%TO.P,C105,2*%
%TO.N,/PRE_N5V*%
X108242400Y30327600D03*
%TD*%
D17*
%TO.P,TP106,1,1_1*%
%TO.N,GND*%
X126136400Y31978600D03*
%TD*%
D23*
%TO.P,TP118,1,1_1*%
%TO.N,/TEMP_CTL*%
X85242400Y65760600D03*
%TD*%
D24*
%TO.P,U101,1,REF_1*%
%TO.N,-12V*%
X88925400Y64836600D03*
%TO.P,U101,2,-_2*%
%TO.N,GND*%
X90195400Y64836600D03*
%TO.P,U101,3,+_3*%
%TO.N,/Phase Noise/FREQ_CTL*%
X91465400Y64836600D03*
%TO.P,U101,4,V-_4*%
%TO.N,-12V*%
X92735400Y64836600D03*
%TO.P,U101,5,SENSE_5*%
%TO.N,Net-(U101-SENSE)*%
X92735400Y69986600D03*
%TO.P,U101,6*%
X91465400Y69986600D03*
%TO.P,U101,7,V+_7*%
%TO.N,GND*%
X90195400Y69986600D03*
%TO.P,U101,8*%
%TO.N,unconnected-(U101-Pad8)*%
X88925400Y69986600D03*
%TD*%
D14*
%TO.P,R428,1*%
%TO.N,/Front Panel/-5.62V*%
X116929600Y65405000D03*
%TO.P,R428,2*%
%TO.N,Net-(R427-Pad2)*%
X118579600Y65405000D03*
%TD*%
D25*
%TO.P,C110,1*%
%TO.N,GND*%
X144685400Y83761600D03*
%TO.P,C110,2*%
%TO.N,Net-(U104-ADJ)*%
X144685400Y82211600D03*
%TD*%
D26*
%TO.P,U406,1*%
%TO.N,/~{FAULT}*%
X108698900Y83382100D03*
%TO.P,U406,2,-_2*%
%TO.N,/Front Panel/-5.38V*%
X108698900Y82112100D03*
%TO.P,U406,3,+_3*%
%TO.N,-5V*%
X108698900Y80842100D03*
%TO.P,U406,4,V-_4*%
%TO.N,-12V*%
X108698900Y79572100D03*
%TO.P,U406,5,+_5*%
%TO.N,/Front Panel/-4.61V*%
X113848900Y79572100D03*
%TO.P,U406,6,-_6*%
%TO.N,-5V*%
X113848900Y80842100D03*
%TO.P,U406,7*%
%TO.N,/~{FAULT}*%
X113848900Y82112100D03*
%TO.P,U406,8,V+_8*%
%TO.N,+12V*%
X113848900Y83382100D03*
%TD*%
D19*
%TO.P,C211,1*%
%TO.N,Net-(U202-RF2)*%
X24777400Y31893100D03*
%TO.P,C211,2*%
%TO.N,GND*%
X26327400Y31893100D03*
%TD*%
D14*
%TO.P,R104,1*%
%TO.N,/10MHZ_OUT+*%
X84579400Y82016600D03*
%TO.P,R104,2*%
%TO.N,GND*%
X86229400Y82016600D03*
%TD*%
D27*
%TO.P,U408,1*%
%TO.N,Net-(U401A--)*%
X91527953Y105742600D03*
%TO.P,U408,2,V-_2*%
%TO.N,-12V*%
X91527953Y104792600D03*
%TO.P,U408,3,+_3*%
%TO.N,Net-(U408-+)*%
X91527953Y103842600D03*
%TO.P,U408,4,-_4*%
%TO.N,Net-(U401A--)*%
X93802953Y103842600D03*
%TO.P,U408,5,V+_5*%
%TO.N,GND*%
X93802953Y105742600D03*
%TD*%
D28*
%TO.P,D304,1,CATHODE_1*%
%TO.N,/Outputs/OUT4*%
X119126000Y8610600D03*
%TO.P,D304,2,ANODE_2*%
%TO.N,GND*%
X118166000Y8610600D03*
%TD*%
D29*
%TO.P,FID102,*%
%TO.N,*%
X172745400Y10261600D03*
%TD*%
D20*
%TO.P,H111,1,1_1*%
%TO.N,GND*%
X132080000Y4572000D03*
%TD*%
D22*
%TO.P,U303,1,NC_1*%
%TO.N,unconnected-(U303-NC-Pad1)*%
X105431300Y21983500D03*
%TO.P,U303,2,-_2*%
%TO.N,Net-(U303--)*%
X104161300Y21983500D03*
%TO.P,U303,3,+_3*%
%TO.N,/Outputs/BUF*%
X102891300Y21983500D03*
%TO.P,U303,4,V-_4*%
%TO.N,Net-(U303-V-)*%
X101621300Y21983500D03*
%TO.P,U303,5,NC_5*%
%TO.N,unconnected-(U303-NC-Pad5)*%
X101621300Y16833500D03*
%TO.P,U303,6*%
%TO.N,Net-(R306-Pad1)*%
X102891300Y16833500D03*
%TO.P,U303,7,V+_7*%
%TO.N,Net-(U303-V+)*%
X104161300Y16833500D03*
%TO.P,U303,8,NC_8*%
%TO.N,unconnected-(U303-NC-Pad8)*%
X105431300Y16833500D03*
%TD*%
D14*
%TO.P,R210,1*%
%TO.N,GND*%
X33808400Y32105600D03*
%TO.P,R210,2*%
%TO.N,Net-(U206-+)*%
X35458400Y32105600D03*
%TD*%
D30*
%TO.P,C108,1*%
%TO.N,/Outputs/BUF*%
X118643400Y35013600D03*
%TO.P,C108,2*%
%TO.N,GND*%
X118643400Y36563600D03*
%TD*%
D21*
%TO.P,R316,1*%
%TO.N,Net-(R313-Pad1)*%
X122961400Y11597100D03*
%TO.P,R316,2*%
%TO.N,/Outputs/OUT4*%
X122961400Y8672100D03*
%TD*%
D19*
%TO.P,C226,1*%
%TO.N,-12V*%
X54038200Y24130000D03*
%TO.P,C226,2*%
%TO.N,GND*%
X55588200Y24130000D03*
%TD*%
D31*
%TO.P,FB301,1*%
%TO.N,+5V*%
X65354400Y13411200D03*
%TO.P,FB301,2*%
%TO.N,Net-(U301-V+)*%
X63779400Y13411200D03*
%TD*%
D32*
%TO.P,Q203,1,G_1*%
%TO.N,/~{SIG_PRESENT}*%
X11343600Y49839400D03*
%TO.P,Q203,2,S_2*%
%TO.N,GND*%
X13243600Y49839400D03*
%TO.P,Q203,3,D_3*%
%TO.N,/~{LOCKED}*%
X12293600Y51714400D03*
%TD*%
D18*
%TO.P,C212,1*%
%TO.N,GND*%
X12878400Y34137600D03*
%TO.P,C212,2*%
%TO.N,Net-(C212-Pad2)*%
X11328400Y34137600D03*
%TD*%
D14*
%TO.P,R102,1*%
%TO.N,/SC10L_FREQ_CTL*%
X87215400Y75873600D03*
%TO.P,R102,2*%
%TO.N,Net-(R102-Pad2)*%
X88865400Y75873600D03*
%TD*%
D33*
%TO.P,J303,1,C_1*%
%TO.N,/Outputs/OUT3*%
X101600000Y3114900D03*
%TD*%
D27*
%TO.P,U109,1*%
%TO.N,Net-(U109--)*%
X7021400Y11044000D03*
%TO.P,U109,2,V-_2*%
%TO.N,-12V*%
X7021400Y10094000D03*
%TO.P,U109,3,+_3*%
%TO.N,Net-(U109-+)*%
X7021400Y9144000D03*
%TO.P,U109,4,-_4*%
%TO.N,Net-(U109--)*%
X9296400Y9144000D03*
%TO.P,U109,5,V+_5*%
%TO.N,GND*%
X9296400Y11044000D03*
%TD*%
D34*
%TO.P,R209,1*%
%TO.N,Net-(R204-Pad1)*%
X21996400Y32168600D03*
%TO.P,R209,2*%
%TO.N,Net-(U202-RF2)*%
X21996400Y30518600D03*
%TD*%
D22*
%TO.P,U401,1*%
%TO.N,/~{FAULT}*%
X100671953Y104888600D03*
%TO.P,U401,2,-_2*%
%TO.N,Net-(U401A--)*%
X99401953Y104888600D03*
%TO.P,U401,3,+_3*%
%TO.N,/Front Panel/-7.94VDC*%
X98131953Y104888600D03*
%TO.P,U401,4,V-_4*%
%TO.N,-12V*%
X96861953Y104888600D03*
%TO.P,U401,5,+_5*%
%TO.N,/HEAT_MON*%
X96861953Y99738600D03*
%TO.P,U401,6,-_6*%
%TO.N,/Front Panel/-11.9VDC*%
X98131953Y99738600D03*
%TO.P,U401,7*%
%TO.N,/~{FAULT}*%
X99401953Y99738600D03*
%TO.P,U401,8,V+_8*%
%TO.N,GND*%
X100671953Y99738600D03*
%TD*%
D14*
%TO.P,R301,1*%
%TO.N,Net-(U301--)*%
X63779400Y23888200D03*
%TO.P,R301,2*%
%TO.N,GND*%
X65429400Y23888200D03*
%TD*%
%TO.P,R311,1*%
%TO.N,Net-(U305--)*%
X144787400Y23917500D03*
%TO.P,R311,2*%
%TO.N,GND*%
X146437400Y23917500D03*
%TD*%
D20*
%TO.P,H112,1,1_1*%
%TO.N,GND*%
X91440000Y4572000D03*
%TD*%
D21*
%TO.P,R309,1*%
%TO.N,Net-(R306-Pad1)*%
X102502400Y11724100D03*
%TO.P,R309,2*%
%TO.N,/Outputs/OUT3*%
X102502400Y8799100D03*
%TD*%
D19*
%TO.P,C204,1*%
%TO.N,/Phase Noise/REF_IN_MON*%
X7142800Y64059100D03*
%TO.P,C204,2*%
%TO.N,Net-(D201-COM)*%
X8692800Y64059100D03*
%TD*%
D28*
%TO.P,D302,1,CATHODE_1*%
%TO.N,/Outputs/OUT2*%
X78130400Y8610600D03*
%TO.P,D302,2,ANODE_2*%
%TO.N,GND*%
X77170400Y8610600D03*
%TD*%
D35*
%TO.P,FB102,1*%
%TO.N,+5V*%
X116992400Y36576100D03*
%TO.P,FB102,2*%
%TO.N,/PRE_P5V*%
X116992400Y35001100D03*
%TD*%
D36*
%TO.P,FB209,1*%
%TO.N,-9V*%
X36956900Y26644600D03*
%TO.P,FB209,2*%
%TO.N,Net-(U206-V\u2013)*%
X38531900Y26644600D03*
%TD*%
D37*
%TO.P,C112,1*%
%TO.N,+9V*%
X136811400Y74039600D03*
%TO.P,C112,2*%
%TO.N,GND*%
X136811400Y78979600D03*
%TD*%
D35*
%TO.P,FB304,1*%
%TO.N,-5V*%
X78384400Y23181000D03*
%TO.P,FB304,2*%
%TO.N,Net-(U302-V-)*%
X78384400Y21606000D03*
%TD*%
D21*
%TO.P,R318,1*%
%TO.N,Net-(R315-Pad1)*%
X163589400Y11578100D03*
%TO.P,R318,2*%
%TO.N,/Outputs/OUT6*%
X163589400Y8653100D03*
%TD*%
D15*
%TO.P,R314,1*%
%TO.N,Net-(R314-Pad1)*%
X140741400Y18457784D03*
%TO.P,R314,2*%
%TO.N,Net-(U305--)*%
X140741400Y20107784D03*
%TD*%
D14*
%TO.P,R111,1*%
%TO.N,Net-(R109-Pad1)*%
X115405400Y33248600D03*
%TO.P,R111,2*%
%TO.N,/Outputs/BUF*%
X117055400Y33248600D03*
%TD*%
D20*
%TO.P,H102,1,1_1*%
%TO.N,GND*%
X23428400Y102463600D03*
%TD*%
D38*
%TO.P,C224,1*%
%TO.N,/Phase Noise/FREQ_CTL*%
X49769200Y37705800D03*
%TO.P,C224,2*%
%TO.N,Net-(C223-Pad2)*%
X34769200Y37705800D03*
%TD*%
D26*
%TO.P,U404,1*%
%TO.N,/~{FAULT}*%
X108663900Y89478100D03*
%TO.P,U404,2,-_2*%
%TO.N,+5V*%
X108663900Y88208100D03*
%TO.P,U404,3,+_3*%
%TO.N,/Front Panel/+5.38V*%
X108663900Y86938100D03*
%TO.P,U404,4,V-_4*%
%TO.N,-12V*%
X108663900Y85668100D03*
%TO.P,U404,5,+_5*%
%TO.N,+5V*%
X113813900Y85668100D03*
%TO.P,U404,6,-_6*%
%TO.N,/Front Panel/+4.61V*%
X113813900Y86938100D03*
%TO.P,U404,7*%
%TO.N,/~{FAULT}*%
X113813900Y88208100D03*
%TO.P,U404,8,V+_8*%
%TO.N,+12V*%
X113813900Y89478100D03*
%TD*%
D39*
%TO.P,U110,1*%
%TO.N,Net-(Q101-B)*%
X134137400Y98388600D03*
%TO.P,U110,2,V-_2*%
%TO.N,-12V*%
X133187400Y98388600D03*
%TO.P,U110,3,+_3*%
%TO.N,Net-(U110-+)*%
X132237400Y98388600D03*
%TO.P,U110,4,-_4*%
%TO.N,Net-(U110--)*%
X132237400Y96113600D03*
%TO.P,U110,5,V+_5*%
%TO.N,+12V*%
X134137400Y96113600D03*
%TD*%
D20*
%TO.P,H108,1,1_1*%
%TO.N,GND*%
X50800000Y4572000D03*
%TD*%
D15*
%TO.P,R417,1*%
%TO.N,/Front Panel/-5.38V*%
X106736900Y82049100D03*
%TO.P,R417,2*%
%TO.N,-12V*%
X106736900Y83699100D03*
%TD*%
D13*
%TO.P,R402,1*%
%TO.N,/~{FAULT}*%
X8406400Y25476200D03*
%TO.P,R402,2*%
%TO.N,Net-(J401-Pin_2)*%
X6756400Y25476200D03*
%TD*%
D28*
%TO.P,D303,1,CATHODE_1*%
%TO.N,/Outputs/OUT3*%
X98425000Y8610600D03*
%TO.P,D303,2,ANODE_2*%
%TO.N,GND*%
X97465000Y8610600D03*
%TD*%
D25*
%TO.P,C318,1*%
%TO.N,GND*%
X160934400Y23422500D03*
%TO.P,C318,2*%
%TO.N,Net-(U306-V-)*%
X160934400Y21872500D03*
%TD*%
D14*
%TO.P,R115,1*%
%TO.N,Net-(U105-ADJ)*%
X122891400Y70032600D03*
%TO.P,R115,2*%
%TO.N,GND*%
X124541400Y70032600D03*
%TD*%
D35*
%TO.P,FB302,1*%
%TO.N,-5V*%
X58019400Y23151700D03*
%TO.P,FB302,2*%
%TO.N,Net-(U301-V-)*%
X58019400Y21576700D03*
%TD*%
D13*
%TO.P,R421,1*%
%TO.N,+12V*%
X115072401Y98399600D03*
%TO.P,R421,2*%
%TO.N,/Front Panel/-10.0VDC*%
X113422401Y98399600D03*
%TD*%
D14*
%TO.P,R303,1*%
%TO.N,Net-(U303--)*%
X104147400Y23917500D03*
%TO.P,R303,2*%
%TO.N,GND*%
X105797400Y23917500D03*
%TD*%
D40*
%TO.P,C102,1*%
%TO.N,/SC10L_FREQ_CTL*%
X84861400Y75363600D03*
%TO.P,C102,2*%
%TO.N,-12V*%
X84861400Y72413600D03*
%TD*%
D19*
%TO.P,C321,1*%
%TO.N,/Outputs/OUT6*%
X165493400Y11852500D03*
%TO.P,C321,2*%
%TO.N,GND*%
X167043400Y11852500D03*
%TD*%
D28*
%TO.P,D301,1,CATHODE_1*%
%TO.N,/Outputs/OUT1*%
X57937400Y8610600D03*
%TO.P,D301,2,ANODE_2*%
%TO.N,GND*%
X56977400Y8610600D03*
%TD*%
D41*
%TO.P,U405,1*%
%TO.N,/~{FAULT}*%
X115030600Y70612000D03*
%TO.P,U405,2,-_2*%
%TO.N,+5V*%
X115030600Y71882000D03*
%TO.P,U405,3,+_3*%
%TO.N,/Front Panel/+5.62V*%
X115030600Y73152000D03*
%TO.P,U405,4,V-_4*%
%TO.N,-12V*%
X115030600Y74422000D03*
%TO.P,U405,5,+_5*%
%TO.N,+5V*%
X109880600Y74422000D03*
%TO.P,U405,6,-_6*%
%TO.N,/Front Panel/+4.50V*%
X109880600Y73152000D03*
%TO.P,U405,7*%
%TO.N,/~{FAULT}*%
X109880600Y71882000D03*
%TO.P,U405,8,V+_8*%
%TO.N,+12V*%
X109880600Y70612000D03*
%TD*%
D14*
%TO.P,R406,1*%
%TO.N,/Front Panel/+5.62V*%
X116937600Y73319000D03*
%TO.P,R406,2*%
%TO.N,Net-(R406-Pad2)*%
X118587600Y73319000D03*
%TD*%
D13*
%TO.P,R411,1*%
%TO.N,/Front Panel/+4.61V*%
X112225900Y91129100D03*
%TO.P,R411,2*%
%TO.N,/Front Panel/+5.38V*%
X110575900Y91129100D03*
%TD*%
D15*
%TO.P,R410,1*%
%TO.N,/Front Panel/+5.38V*%
X106701900Y86938100D03*
%TO.P,R410,2*%
%TO.N,+12V*%
X106701900Y88588100D03*
%TD*%
D14*
%TO.P,R431,1*%
%TO.N,Net-(R430-Pad2)*%
X106296600Y69469000D03*
%TO.P,R431,2*%
%TO.N,GND*%
X107946600Y69469000D03*
%TD*%
D33*
%TO.P,J201,1,C_1*%
%TO.N,Net-(D202-CATHODE)*%
X15240000Y3175000D03*
%TD*%
%TO.P,J301,1,C_1*%
%TO.N,/Outputs/OUT1*%
X60960000Y3149600D03*
%TD*%
D42*
%TO.P,L101,1*%
%TO.N,Net-(D101-K)*%
X159854900Y80873600D03*
%TO.P,L101,2*%
%TO.N,+12V*%
X149567900Y80873600D03*
%TD*%
D25*
%TO.P,C219,1*%
%TO.N,GND*%
X39141400Y23066600D03*
%TO.P,C219,2*%
%TO.N,Net-(U204-V\u2013)*%
X39141400Y21516600D03*
%TD*%
D33*
%TO.P,J306,1,C_1*%
%TO.N,/Outputs/OUT6*%
X162560000Y3114900D03*
%TD*%
D23*
%TO.P,TP117,1,1_1*%
%TO.N,/AMPL_CTL*%
X84861400Y68681600D03*
%TD*%
D13*
%TO.P,R413,1*%
%TO.N,/Front Panel/-11.5VDC*%
X104452953Y104876600D03*
%TO.P,R413,2*%
%TO.N,-12V*%
X102802953Y104876600D03*
%TD*%
D19*
%TO.P,C214,1*%
%TO.N,GND*%
X8013400Y38709600D03*
%TO.P,C214,2*%
%TO.N,Net-(U204-+)*%
X9563400Y38709600D03*
%TD*%
%TO.P,C310,1*%
%TO.N,/Outputs/OUT1*%
X63779400Y10363200D03*
%TO.P,C310,2*%
%TO.N,GND*%
X65329400Y10363200D03*
%TD*%
D43*
%TO.P,L306,1,1_1*%
%TO.N,/Outputs/OUT6*%
X165459900Y8677500D03*
%TO.P,L306,2,2_2*%
%TO.N,GND*%
X167584900Y8677500D03*
%TD*%
D13*
%TO.P,R225,1*%
%TO.N,/Phase Noise/4.50V*%
X8534400Y54965600D03*
%TO.P,R225,2*%
%TO.N,+5V*%
X6884400Y54965600D03*
%TD*%
D15*
%TO.P,R313,1*%
%TO.N,Net-(R313-Pad1)*%
X120421400Y18520500D03*
%TO.P,R313,2*%
%TO.N,Net-(U304--)*%
X120421400Y20170500D03*
%TD*%
D34*
%TO.P,R216,1*%
%TO.N,/Phase Noise/2.3V*%
X5867400Y72300600D03*
%TO.P,R216,2*%
%TO.N,+9V*%
X5867400Y70650600D03*
%TD*%
D25*
%TO.P,C402,1*%
%TO.N,-12V*%
X89762953Y104726600D03*
%TO.P,C402,2*%
%TO.N,GND*%
X89762953Y103176600D03*
%TD*%
D31*
%TO.P,FB206,1*%
%TO.N,+9V*%
X45135900Y13274600D03*
%TO.P,FB206,2*%
%TO.N,Net-(U204-V+)*%
X43560900Y13274600D03*
%TD*%
D19*
%TO.P,C216,1*%
%TO.N,GND*%
X5981400Y68300600D03*
%TO.P,C216,2*%
%TO.N,+9V*%
X7531400Y68300600D03*
%TD*%
D14*
%TO.P,R312,1*%
%TO.N,Net-(U306--)*%
X164980400Y23917500D03*
%TO.P,R312,2*%
%TO.N,GND*%
X166630400Y23917500D03*
%TD*%
%TO.P,R408,1*%
%TO.N,Net-(R407-Pad2)*%
X106296600Y71541000D03*
%TO.P,R408,2*%
%TO.N,GND*%
X107946600Y71541000D03*
%TD*%
D15*
%TO.P,R305,1*%
%TO.N,Net-(R305-Pad1)*%
X79898125Y18457784D03*
%TO.P,R305,2*%
%TO.N,Net-(U302--)*%
X79898125Y20107784D03*
%TD*%
D41*
%TO.P,U203,1*%
%TO.N,/~{SIG_PRESENT}*%
X14556800Y68377100D03*
%TO.P,U203,2,-_2*%
%TO.N,Net-(D201-K)*%
X14556800Y69647100D03*
%TO.P,U203,3,+_3*%
%TO.N,/Phase Noise/0.3V*%
X14556800Y70917100D03*
%TO.P,U203,4,V-_4*%
%TO.N,-12V*%
X14556800Y72187100D03*
%TO.P,U203,5,+_5*%
%TO.N,/Phase Noise/2.3V*%
X9406800Y72187100D03*
%TO.P,U203,6,-_6*%
%TO.N,Net-(D201-K)*%
X9406800Y70917100D03*
%TO.P,U203,7*%
%TO.N,/~{FAULT}*%
X9406800Y69647100D03*
%TO.P,U203,8,V+_8*%
%TO.N,+9V*%
X9406800Y68377100D03*
%TD*%
D20*
%TO.P,H113,1,1_1*%
%TO.N,GND*%
X5080000Y4572000D03*
%TD*%
D21*
%TO.P,R323,1*%
%TO.N,Net-(R315-Pad1)*%
X161315400Y11597100D03*
%TO.P,R323,2*%
%TO.N,/Outputs/OUT6*%
X161315400Y8672100D03*
%TD*%
D13*
%TO.P,R433,1*%
%TO.N,-12V*%
X101053400Y106908600D03*
%TO.P,R433,2*%
%TO.N,/Front Panel/-7.94VDC*%
X99403400Y106908600D03*
%TD*%
D44*
%TO.P,Q401,1,G_1*%
%TO.N,Net-(Q401-G)*%
X10263900Y25562600D03*
%TO.P,Q401,2,S_2*%
%TO.N,GND*%
X10263900Y23662600D03*
%TO.P,Q401,3,D_3*%
%TO.N,Net-(Q401-D)*%
X12138900Y24612600D03*
%TD*%
D31*
%TO.P,FB307,1*%
%TO.N,+5V*%
X126415900Y13376500D03*
%TO.P,FB307,2*%
%TO.N,Net-(U304-V+)*%
X124840900Y13376500D03*
%TD*%
D14*
%TO.P,R429,1*%
%TO.N,/Front Panel/-4.50V*%
X111595600Y62484000D03*
%TO.P,R429,2*%
%TO.N,/Front Panel/-5.62V*%
X113245600Y62484000D03*
%TD*%
D45*
%TO.P,U202,1,RF1_1*%
%TO.N,Net-(U202-RF1)*%
X21869400Y15468600D03*
%TO.P,U202,2,RF2_2*%
%TO.N,Net-(U202-RF2)*%
X21869400Y27406600D03*
D46*
%TO.P,U202,3,DC_3*%
%TO.N,Net-(U202-DC)*%
X17487900Y21437600D03*
D47*
%TO.P,U202,4,GND_4*%
%TO.N,GND*%
X18059400Y14833600D03*
X19329400Y14833600D03*
X24409400Y14833600D03*
X25679400Y14833600D03*
X16789400Y15722600D03*
X26949400Y16357600D03*
X16789400Y18262600D03*
X21234400Y18262600D03*
X22504400Y18262600D03*
X26949400Y18262600D03*
D48*
X18122900Y16929100D03*
D47*
X26949400Y20167600D03*
X20599400Y20802600D03*
X24409400Y20802600D03*
D49*
X21869400Y21437600D03*
D46*
X26250900Y21437600D03*
D50*
X25615900Y21437600D03*
D47*
X20599400Y22072600D03*
X24409400Y22072600D03*
X26949400Y22707600D03*
X16789400Y24612600D03*
X21234400Y24612600D03*
X22504400Y24612600D03*
X26949400Y24612600D03*
X26949400Y26517600D03*
X16789400Y27152600D03*
X18059400Y28041600D03*
X19329400Y28041600D03*
X24409400Y28041600D03*
X25679400Y28041600D03*
D48*
X18122900Y25946100D03*
D46*
%TO.P,U202,5,GND_5*%
X17487900Y25882600D03*
%TO.P,U202,6,GND_6*%
X17487900Y16992600D03*
%TD*%
D19*
%TO.P,C312,1*%
%TO.N,/Outputs/OUT3*%
X104406400Y10388600D03*
%TO.P,C312,2*%
%TO.N,GND*%
X105956400Y10388600D03*
%TD*%
%TO.P,C307,1*%
%TO.N,/Outputs/OUT1*%
X63779400Y11887200D03*
%TO.P,C307,2*%
%TO.N,GND*%
X65329400Y11887200D03*
%TD*%
D51*
%TO.P,L204,1,1_1*%
%TO.N,Net-(C212-Pad2)*%
X11328400Y36631100D03*
%TO.P,L204,2,2_2*%
%TO.N,Net-(U204-+)*%
X11328400Y38756100D03*
%TD*%
D19*
%TO.P,C320,1*%
%TO.N,/Outputs/OUT5*%
X145046400Y11852500D03*
%TO.P,C320,2*%
%TO.N,GND*%
X146596400Y11852500D03*
%TD*%
D13*
%TO.P,R405,1*%
%TO.N,GND*%
X8406400Y18008600D03*
%TO.P,R405,2*%
%TO.N,Net-(J401-Pin_5)*%
X6756400Y18008600D03*
%TD*%
D14*
%TO.P,R423,1*%
%TO.N,-12V*%
X102881401Y97129600D03*
%TO.P,R423,2*%
%TO.N,/Front Panel/+8.0VDC*%
X104531401Y97129600D03*
%TD*%
D23*
%TO.P,TP113,1,1_1*%
%TO.N,/HEAT_MON*%
X95275400Y87731600D03*
%TD*%
D37*
%TO.P,C115,1*%
%TO.N,GND*%
X138956400Y60394600D03*
%TO.P,C115,2*%
%TO.N,-5V*%
X138956400Y65334600D03*
%TD*%
D15*
%TO.P,R304,1*%
%TO.N,Net-(R304-Pad1)*%
X59543400Y18491200D03*
%TO.P,R304,2*%
%TO.N,Net-(U301--)*%
X59543400Y20141200D03*
%TD*%
D26*
%TO.P,U207,1*%
%TO.N,/Phase Noise/FREQ_CTL*%
X46980400Y25120600D03*
%TO.P,U207,2*%
%TO.N,unconnected-(U207-Pad2)*%
X46980400Y23850600D03*
%TO.P,U207,3,GND_3*%
%TO.N,GND*%
X46980400Y22580600D03*
%TO.P,U207,4,V+_4*%
%TO.N,+9V*%
X46980400Y21310600D03*
%TO.P,U207,5,VL_5*%
%TO.N,+5V*%
X52130400Y21310600D03*
%TO.P,U207,6*%
%TO.N,/~{SIG_PRESENT}*%
X52130400Y22580600D03*
%TO.P,U207,7,V-_7*%
%TO.N,-12V*%
X52130400Y23850600D03*
%TO.P,U207,8*%
%TO.N,Net-(U206-\u2013)*%
X52130400Y25120600D03*
%TD*%
D34*
%TO.P,R418,1*%
%TO.N,/Front Panel/-11.9VDC*%
X98258953Y97919600D03*
%TO.P,R418,2*%
%TO.N,/SC10L_+5VREF*%
X98258953Y96269600D03*
%TD*%
D18*
%TO.P,C221,1*%
%TO.N,GND*%
X49100600Y29919400D03*
%TO.P,C221,2*%
%TO.N,Net-(U206-V+)*%
X47550600Y29919400D03*
%TD*%
D13*
%TO.P,R109,1*%
%TO.N,Net-(R109-Pad1)*%
X111721400Y30327600D03*
%TO.P,R109,2*%
%TO.N,/10MHZ_DIV*%
X110071400Y30327600D03*
%TD*%
D28*
%TO.P,D306,1,CATHODE_1*%
%TO.N,/Outputs/OUT6*%
X159664400Y8610600D03*
%TO.P,D306,2,ANODE_2*%
%TO.N,GND*%
X158704400Y8610600D03*
%TD*%
D52*
%TO.P,C401,1*%
%TO.N,Net-(Q401-G)*%
X8976400Y29514800D03*
%TO.P,C401,2*%
%TO.N,GND*%
X7076400Y29514800D03*
%TD*%
D14*
%TO.P,R229,1*%
%TO.N,/~{LOCKED}*%
X17488400Y55981600D03*
%TO.P,R229,2*%
%TO.N,+5V*%
X19138400Y55981600D03*
%TD*%
D35*
%TO.P,FB306,1*%
%TO.N,-5V*%
X98450400Y23308000D03*
%TO.P,FB306,2*%
%TO.N,Net-(U303-V-)*%
X98450400Y21733000D03*
%TD*%
D30*
%TO.P,C103,1*%
%TO.N,Net-(U110--)*%
X135727400Y96603100D03*
%TO.P,C103,2*%
%TO.N,Net-(Q101-B)*%
X135727400Y98153100D03*
%TD*%
D13*
%TO.P,R422,1*%
%TO.N,-12V*%
X115072401Y99923600D03*
%TO.P,R422,2*%
%TO.N,/Front Panel/-10.0VDC*%
X113422401Y99923600D03*
%TD*%
%TO.P,R404,1*%
%TO.N,/~{SIG_PRESENT}*%
X8406400Y20548600D03*
%TO.P,R404,2*%
%TO.N,Net-(J401-Pin_4)*%
X6756400Y20548600D03*
%TD*%
D18*
%TO.P,C218,1*%
%TO.N,GND*%
X45123400Y14798600D03*
%TO.P,C218,2*%
%TO.N,Net-(U204-V+)*%
X43573400Y14798600D03*
%TD*%
D19*
%TO.P,C311,1*%
%TO.N,/Outputs/OUT2*%
X84086400Y10328500D03*
%TO.P,C311,2*%
%TO.N,GND*%
X85636400Y10328500D03*
%TD*%
D43*
%TO.P,L302,1,1_1*%
%TO.N,/Outputs/OUT2*%
X84052900Y8677500D03*
%TO.P,L302,2,2_2*%
%TO.N,GND*%
X86177900Y8677500D03*
%TD*%
D13*
%TO.P,R227,1*%
%TO.N,GND*%
X19138400Y54457600D03*
%TO.P,R227,2*%
%TO.N,/Phase Noise/0.50V*%
X17488400Y54457600D03*
%TD*%
D42*
%TO.P,L102,1*%
%TO.N,Net-(D101-A)*%
X149313900Y107416600D03*
%TO.P,L102,2*%
%TO.N,-12V*%
X139026900Y107416600D03*
%TD*%
D13*
%TO.P,R224,1*%
%TO.N,Net-(R221-Pad1)*%
X39331400Y14706600D03*
%TO.P,R224,2*%
%TO.N,Net-(U206-\u2013)*%
X37681400Y14706600D03*
%TD*%
D31*
%TO.P,FB305,1*%
%TO.N,+5V*%
X105968900Y13376500D03*
%TO.P,FB305,2*%
%TO.N,Net-(U303-V+)*%
X104393900Y13376500D03*
%TD*%
D14*
%TO.P,R103,1*%
%TO.N,GND*%
X130523400Y94335600D03*
%TO.P,R103,2*%
%TO.N,Net-(U110--)*%
X132173400Y94335600D03*
%TD*%
D53*
%TO.P,U106,1,IN_1*%
%TO.N,+9V*%
X149494400Y70769600D03*
%TO.P,U106,2,GND_2*%
%TO.N,GND*%
X149494400Y68229600D03*
D54*
X158644400Y68229600D03*
D53*
%TO.P,U106,3,OUT_3*%
%TO.N,+5V*%
X149494400Y65689600D03*
%TD*%
D29*
%TO.P,FID104,*%
%TO.N,*%
X10464800Y109220000D03*
%TD*%
D18*
%TO.P,C301,1*%
%TO.N,GND*%
X65271400Y14998200D03*
%TO.P,C301,2*%
%TO.N,Net-(U301-V+)*%
X63721400Y14998200D03*
%TD*%
D21*
%TO.P,R231,1*%
%TO.N,Net-(R221-Pad1)*%
X39776400Y11724100D03*
%TO.P,R231,2*%
%TO.N,Net-(D203-CATHODE)*%
X39776400Y8799100D03*
%TD*%
D33*
%TO.P,J304,1,C_1*%
%TO.N,/Outputs/OUT4*%
X121920000Y3114900D03*
%TD*%
D13*
%TO.P,R420,1*%
%TO.N,GND*%
X115181900Y77921100D03*
%TO.P,R420,2*%
%TO.N,/Front Panel/-4.61V*%
X113531900Y77921100D03*
%TD*%
D18*
%TO.P,C220,1*%
%TO.N,GND*%
X19088400Y57505600D03*
%TO.P,C220,2*%
%TO.N,Net-(U205C-V+)*%
X17538400Y57505600D03*
%TD*%
D14*
%TO.P,R437,1*%
%TO.N,Net-(U408-+)*%
X91845953Y100281600D03*
%TO.P,R437,2*%
%TO.N,Net-(R436-Pad1)*%
X93495953Y100281600D03*
%TD*%
D29*
%TO.P,FID103,*%
%TO.N,*%
X12852400Y12750800D03*
%TD*%
D55*
%TO.P,D202,1,CATHODE_1*%
%TO.N,Net-(D202-CATHODE)*%
X13233400Y8765600D03*
%TO.P,D202,2,ANODE_2*%
%TO.N,GND*%
X13233400Y9725600D03*
%TD*%
D35*
%TO.P,FB205,1*%
%TO.N,-9V*%
X37617400Y23079100D03*
%TO.P,FB205,2*%
%TO.N,Net-(U204-V\u2013)*%
X37617400Y21504100D03*
%TD*%
D25*
%TO.P,C302,1*%
%TO.N,GND*%
X59543400Y23139200D03*
%TO.P,C302,2*%
%TO.N,Net-(U301-V-)*%
X59543400Y21589200D03*
%TD*%
D13*
%TO.P,R203,1*%
%TO.N,Net-(U202-RF1)*%
X20408400Y12293600D03*
%TO.P,R203,2*%
%TO.N,/Phase Noise/REF_IN_MON*%
X18758400Y12293600D03*
%TD*%
D15*
%TO.P,R116,1*%
%TO.N,Net-(U109--)*%
X11379200Y9436600D03*
%TO.P,R116,2*%
%TO.N,Net-(R116-Pad2)*%
X11379200Y11086600D03*
%TD*%
D13*
%TO.P,R414,1*%
%TO.N,/SC10L_+5VREF*%
X115028953Y105130600D03*
%TO.P,R414,2*%
%TO.N,/Front Panel/-7.5VDC*%
X113378953Y105130600D03*
%TD*%
D15*
%TO.P,R436,1*%
%TO.N,Net-(R436-Pad1)*%
X95210953Y100853600D03*
%TO.P,R436,2*%
%TO.N,Net-(U401A--)*%
X95210953Y102503600D03*
%TD*%
D19*
%TO.P,C309,1*%
%TO.N,/Outputs/OUT3*%
X104406400Y11852500D03*
%TO.P,C309,2*%
%TO.N,GND*%
X105956400Y11852500D03*
%TD*%
D14*
%TO.P,R432,1*%
%TO.N,+5V*%
X6744200Y26974800D03*
%TO.P,R432,2*%
%TO.N,/~{FAULT}*%
X8394200Y26974800D03*
%TD*%
D56*
%TO.P,C107,1*%
%TO.N,GND*%
X122446400Y98027600D03*
D17*
%TO.P,C107,2*%
%TO.N,-12V*%
X122446400Y103027600D03*
%TD*%
D43*
%TO.P,L303,1,1_1*%
%TO.N,/Outputs/OUT3*%
X104372900Y8737600D03*
%TO.P,L303,2,2_2*%
%TO.N,GND*%
X106497900Y8737600D03*
%TD*%
D29*
%TO.P,FID101,*%
%TO.N,*%
X165506400Y102489000D03*
%TD*%
D57*
%TO.P,J401,1,Pin_1_1*%
%TO.N,+5V*%
X4279400Y28219400D03*
D58*
%TO.P,J401,2,Pin_2_2*%
%TO.N,Net-(J401-Pin_2)*%
X4279400Y25679400D03*
%TO.P,J401,3,Pin_3_3*%
%TO.N,Net-(J401-Pin_3)*%
X4279400Y23139400D03*
%TO.P,J401,4,Pin_4_4*%
%TO.N,Net-(J401-Pin_4)*%
X4279400Y20599400D03*
%TO.P,J401,5,Pin_5_5*%
%TO.N,Net-(J401-Pin_5)*%
X4279400Y18059400D03*
%TD*%
D14*
%TO.P,R426,1*%
%TO.N,/Front Panel/+4.50V*%
X111667600Y75986000D03*
%TO.P,R426,2*%
%TO.N,/Front Panel/+5.62V*%
X113317600Y75986000D03*
%TD*%
D17*
%TO.P,TP109,1,1_1*%
%TO.N,GND*%
X169951400Y97383600D03*
%TD*%
D25*
%TO.P,C104,1*%
%TO.N,GND*%
X115468400Y36563600D03*
%TO.P,C104,2*%
%TO.N,/PRE_P5V*%
X115468400Y35013600D03*
%TD*%
D18*
%TO.P,C119,1*%
%TO.N,GND*%
X99685400Y74523600D03*
%TO.P,C119,2*%
%TO.N,-12V*%
X98135400Y74523600D03*
%TD*%
D13*
%TO.P,R107,1*%
%TO.N,/10MHZ_DIV*%
X86229400Y83540600D03*
%TO.P,R107,2*%
%TO.N,/10MHZ_OUT+*%
X84579400Y83540600D03*
%TD*%
D43*
%TO.P,L203,1,1_1*%
%TO.N,Net-(U202-RF2)*%
X24743900Y30242100D03*
%TO.P,L203,2,2_2*%
%TO.N,GND*%
X26868900Y30242100D03*
%TD*%
D59*
%TO.P,U107,1,GND_1*%
%TO.N,GND*%
X134384400Y60101600D03*
D60*
%TO.P,U107,2,VI_2*%
%TO.N,-9V*%
X125234400Y62641600D03*
D59*
%TO.P,U107,3,VO_3*%
%TO.N,-5V*%
X134384400Y65181600D03*
%TD*%
D13*
%TO.P,R112,1*%
%TO.N,Net-(U104-ADJ)*%
X143224400Y82224600D03*
%TO.P,R112,2*%
%TO.N,+9V*%
X141574400Y82224600D03*
%TD*%
D22*
%TO.P,U204,1,NULL_1*%
%TO.N,unconnected-(U204-NULL-Pad1)*%
X44602400Y21980600D03*
%TO.P,U204,2,\u2013_2*%
%TO.N,Net-(U204-\u2013)*%
X43332400Y21980600D03*
%TO.P,U204,3,+_3*%
%TO.N,Net-(U204-+)*%
X42062400Y21980600D03*
%TO.P,U204,4,V\u2013_4*%
%TO.N,Net-(U204-V\u2013)*%
X40792400Y21980600D03*
%TO.P,U204,5,NULL_5*%
%TO.N,unconnected-(U204-NULL-Pad5)*%
X40792400Y16830600D03*
%TO.P,U204,6*%
%TO.N,Net-(R221-Pad1)*%
X42062400Y16830600D03*
%TO.P,U204,7,V+_7*%
%TO.N,Net-(U204-V+)*%
X43332400Y16830600D03*
%TO.P,U204,8,DC_8*%
%TO.N,unconnected-(U204-DC-Pad8)*%
X44602400Y16830600D03*
%TD*%
D25*
%TO.P,C207,1*%
%TO.N,GND*%
X20472400Y44987100D03*
%TO.P,C207,2*%
%TO.N,Net-(U201-V-)*%
X20472400Y43437100D03*
%TD*%
D30*
%TO.P,C201,1*%
%TO.N,Net-(D202-CATHODE)*%
X14503400Y8737600D03*
%TO.P,C201,2*%
%TO.N,Net-(C201-Pad2)*%
X14503400Y10287600D03*
%TD*%
D20*
%TO.P,H104,1,1_1*%
%TO.N,GND*%
X84388400Y102463600D03*
%TD*%
D26*
%TO.P,U108,1*%
%TO.N,Net-(R102-Pad2)*%
X90989400Y75746600D03*
%TO.P,U108,2*%
%TO.N,Net-(U101-SENSE)*%
X90989400Y74476600D03*
%TO.P,U108,3,GND_3*%
%TO.N,GND*%
X90989400Y73206600D03*
%TO.P,U108,4,V+_4*%
%TO.N,+5V*%
X90989400Y71936600D03*
%TO.P,U108,5,VL_5*%
X96139400Y71936600D03*
%TO.P,U108,6*%
%TO.N,/~{SIG_PRESENT}*%
X96139400Y73206600D03*
%TO.P,U108,7,V-_7*%
%TO.N,-12V*%
X96139400Y74476600D03*
%TO.P,U108,8*%
%TO.N,Net-(R116-Pad2)*%
X96139400Y75746600D03*
%TD*%
D20*
%TO.P,H106,1,1_1*%
%TO.N,GND*%
X172720000Y106680000D03*
%TD*%
D35*
%TO.P,FB310,1*%
%TO.N,-5V*%
X139217400Y23181000D03*
%TO.P,FB310,2*%
%TO.N,Net-(U305-V-)*%
X139217400Y21606000D03*
%TD*%
D17*
%TO.P,TP107,1,1_1*%
%TO.N,GND*%
X171856400Y31978600D03*
%TD*%
D19*
%TO.P,C323,1*%
%TO.N,/Outputs/OUT5*%
X145046400Y10328500D03*
%TO.P,C323,2*%
%TO.N,GND*%
X146596400Y10328500D03*
%TD*%
D14*
%TO.P,R425,1*%
%TO.N,+9V*%
X116937600Y74843000D03*
%TO.P,R425,2*%
%TO.N,Net-(R406-Pad2)*%
X118587600Y74843000D03*
%TD*%
D19*
%TO.P,C322,1*%
%TO.N,/Outputs/OUT4*%
X124853400Y10328500D03*
%TO.P,C322,2*%
%TO.N,GND*%
X126403400Y10328500D03*
%TD*%
D15*
%TO.P,R306,1*%
%TO.N,Net-(R306-Pad1)*%
X99954625Y18584784D03*
%TO.P,R306,2*%
%TO.N,Net-(U303--)*%
X99954625Y20234784D03*
%TD*%
D13*
%TO.P,R415,1*%
%TO.N,-12V*%
X115028953Y103606600D03*
%TO.P,R415,2*%
%TO.N,/Front Panel/-7.5VDC*%
X113378953Y103606600D03*
%TD*%
D43*
%TO.P,L305,1,1_1*%
%TO.N,/Outputs/OUT5*%
X145012900Y8677500D03*
%TO.P,L305,2,2_2*%
%TO.N,GND*%
X147137900Y8677500D03*
%TD*%
D28*
%TO.P,D305,1,CATHODE_1*%
%TO.N,/Outputs/OUT5*%
X139217400Y8610600D03*
%TO.P,D305,2,ANODE_2*%
%TO.N,GND*%
X138257400Y8610600D03*
%TD*%
D21*
%TO.P,R308,1*%
%TO.N,Net-(R305-Pad1)*%
X82194400Y11724100D03*
%TO.P,R308,2*%
%TO.N,/Outputs/OUT2*%
X82194400Y8799100D03*
%TD*%
D31*
%TO.P,FB208,1*%
%TO.N,+9V*%
X49113100Y31443400D03*
%TO.P,FB208,2*%
%TO.N,Net-(U206-V+)*%
X47538100Y31443400D03*
%TD*%
D18*
%TO.P,C225,1*%
%TO.N,/Phase Noise/FREQ_CTL*%
X49060400Y26898600D03*
%TO.P,C225,2*%
%TO.N,Net-(C225-Pad2)*%
X47510400Y26898600D03*
%TD*%
D34*
%TO.P,R222,1*%
%TO.N,Net-(U204-\u2013)*%
X37617400Y19814600D03*
%TO.P,R222,2*%
%TO.N,GND*%
X37617400Y18164600D03*
%TD*%
D15*
%TO.P,R221,1*%
%TO.N,Net-(R221-Pad1)*%
X39141400Y18164600D03*
%TO.P,R221,2*%
%TO.N,Net-(U204-\u2013)*%
X39141400Y19814600D03*
%TD*%
D57*
%TO.P,RV101,1,1_1*%
%TO.N,/SC10L_+5VREF*%
X1930400Y14122400D03*
D58*
%TO.P,RV101,2,2_2*%
%TO.N,Net-(U109-+)*%
X4470400Y14122400D03*
%TO.P,RV101,3,3_3*%
%TO.N,-12V*%
X7010400Y14122400D03*
%TD*%
D61*
%TO.P,Q102,1,B_1*%
%TO.N,Net-(Q101-B)*%
X139471400Y99784600D03*
D62*
%TO.P,Q102,2,C_2*%
%TO.N,-12V*%
X145771400Y97504600D03*
D61*
%TO.P,Q102,3,E_3*%
%TO.N,Net-(Q101-E)*%
X139471400Y95224600D03*
%TD*%
D20*
%TO.P,H115,1,1_1*%
%TO.N,GND*%
X172720000Y4572000D03*
%TD*%
D34*
%TO.P,R228,1*%
%TO.N,Net-(C223-Pad2)*%
X38379400Y32168600D03*
%TO.P,R228,2*%
%TO.N,Net-(U206-\u2013)*%
X38379400Y30518600D03*
%TD*%
D13*
%TO.P,R212,1*%
%TO.N,/Phase Noise/0.50V*%
X16979400Y52044600D03*
%TO.P,R212,2*%
%TO.N,/Phase Noise/4.50V*%
X15329400Y52044600D03*
%TD*%
D14*
%TO.P,R114,1*%
%TO.N,Net-(U105-ADJ)*%
X122891400Y71556600D03*
%TO.P,R114,2*%
%TO.N,-9V*%
X124541400Y71556600D03*
%TD*%
D21*
%TO.P,R321,1*%
%TO.N,Net-(R306-Pad1)*%
X100101400Y11724100D03*
%TO.P,R321,2*%
%TO.N,/Outputs/OUT3*%
X100101400Y8799100D03*
%TD*%
D26*
%TO.P,U103,1,NC_1*%
%TO.N,unconnected-(U103-NC-Pad1)*%
X108229400Y35788600D03*
%TO.P,U103,2,-_2*%
%TO.N,/10MHZ_DIV*%
X108229400Y34518600D03*
%TO.P,U103,3,+_3*%
%TO.N,GND*%
X108229400Y33248600D03*
%TO.P,U103,4,V-_4*%
%TO.N,/PRE_N5V*%
X108229400Y31978600D03*
%TO.P,U103,5,NC_5*%
%TO.N,unconnected-(U103-NC-Pad5)*%
X113379400Y31978600D03*
%TO.P,U103,6*%
%TO.N,Net-(R109-Pad1)*%
X113379400Y33248600D03*
%TO.P,U103,7,V+_7*%
%TO.N,/PRE_P5V*%
X113379400Y34518600D03*
%TO.P,U103,8,NC_8*%
%TO.N,unconnected-(U103-NC-Pad8)*%
X113379400Y35788600D03*
%TD*%
D63*
%TO.P,U104,1,ADJ_1*%
%TO.N,Net-(U104-ADJ)*%
X144699400Y80040600D03*
%TO.P,U104,2,VO_2*%
%TO.N,+9V*%
X142399400Y80040600D03*
D64*
X142399400Y73740600D03*
D63*
%TO.P,U104,3,VI_3*%
%TO.N,+12V*%
X140099400Y80040600D03*
%TD*%
D22*
%TO.P,U201,1,NC_1*%
%TO.N,unconnected-(U201-NC-Pad1)*%
X25806400Y43612100D03*
%TO.P,U201,2,-_2*%
%TO.N,Net-(U201--)*%
X24536400Y43612100D03*
%TO.P,U201,3,+_3*%
%TO.N,/Outputs/BUF*%
X23266400Y43612100D03*
%TO.P,U201,4,V-_4*%
%TO.N,Net-(U201-V-)*%
X21996400Y43612100D03*
%TO.P,U201,5,NC_5*%
%TO.N,unconnected-(U201-NC-Pad5)*%
X21996400Y38462100D03*
%TO.P,U201,6*%
%TO.N,Net-(R204-Pad1)*%
X23266400Y38462100D03*
%TO.P,U201,7,V+_7*%
%TO.N,Net-(U201-V+)*%
X24536400Y38462100D03*
%TO.P,U201,8,NC_8*%
%TO.N,unconnected-(U201-NC-Pad8)*%
X25806400Y38462100D03*
%TD*%
D13*
%TO.P,R409,1*%
%TO.N,/Front Panel/-11.5VDC*%
X104452953Y106400600D03*
%TO.P,R409,2*%
%TO.N,/SC10L_+5VREF*%
X102802953Y106400600D03*
%TD*%
D26*
%TO.P,U205,1*%
%TO.N,/~{LOCKED}*%
X10387800Y57455100D03*
%TO.P,U205,2,-_2*%
%TO.N,/Phase Noise/FREQ_CTL_10k*%
X10387800Y56185100D03*
%TO.P,U205,3,+_3*%
%TO.N,/Phase Noise/4.50V*%
X10387800Y54915100D03*
%TO.P,U205,4,V-_4*%
%TO.N,GND*%
X10387800Y53645100D03*
%TO.P,U205,5,+_5*%
%TO.N,/Phase Noise/FREQ_CTL_10k*%
X15537800Y53645100D03*
%TO.P,U205,6,-_6*%
%TO.N,/Phase Noise/0.50V*%
X15537800Y54915100D03*
%TO.P,U205,7*%
%TO.N,/~{LOCKED}*%
X15537800Y56185100D03*
%TO.P,U205,8,V+_8*%
%TO.N,Net-(U205C-V+)*%
X15537800Y57455100D03*
%TD*%
D35*
%TO.P,FB312,1*%
%TO.N,-5V*%
X159410400Y23435000D03*
%TO.P,FB312,2*%
%TO.N,Net-(U306-V-)*%
X159410400Y21860000D03*
%TD*%
D18*
%TO.P,C210,1*%
%TO.N,Net-(C208-Pad1)*%
X14516400Y26009600D03*
%TO.P,C210,2*%
%TO.N,GND*%
X12966400Y26009600D03*
%TD*%
D34*
%TO.P,R206,1*%
%TO.N,/Phase Noise/0.3V*%
X18077800Y70472100D03*
%TO.P,R206,2*%
%TO.N,GND*%
X18077800Y68822100D03*
%TD*%
D13*
%TO.P,R113,1*%
%TO.N,Net-(U104-ADJ)*%
X143224400Y83748600D03*
%TO.P,R113,2*%
%TO.N,GND*%
X141574400Y83748600D03*
%TD*%
D61*
%TO.P,Q101,1,B_1*%
%TO.N,Net-(Q101-B)*%
X140725400Y92408100D03*
D62*
%TO.P,Q101,2,C_2*%
%TO.N,+12V*%
X147025400Y90128100D03*
D61*
%TO.P,Q101,3,E_3*%
%TO.N,Net-(Q101-E)*%
X140725400Y87848100D03*
%TD*%
D23*
%TO.P,TP112,1,1_1*%
%TO.N,/SC10L_FREQ_CTL*%
X102006400Y77571600D03*
%TD*%
D21*
%TO.P,R322,1*%
%TO.N,Net-(R314-Pad1)*%
X140880400Y11616100D03*
%TO.P,R322,2*%
%TO.N,/Outputs/OUT5*%
X140880400Y8691100D03*
%TD*%
D43*
%TO.P,L304,1,1_1*%
%TO.N,/Outputs/OUT4*%
X124819900Y8677500D03*
%TO.P,L304,2,2_2*%
%TO.N,GND*%
X126944900Y8677500D03*
%TD*%
D22*
%TO.P,U301,1,NC_1*%
%TO.N,unconnected-(U301-NC-Pad1)*%
X65004400Y22018200D03*
%TO.P,U301,2,-_2*%
%TO.N,Net-(U301--)*%
X63734400Y22018200D03*
%TO.P,U301,3,+_3*%
%TO.N,/Outputs/BUF*%
X62464400Y22018200D03*
%TO.P,U301,4,V-_4*%
%TO.N,Net-(U301-V-)*%
X61194400Y22018200D03*
%TO.P,U301,5,NC_5*%
%TO.N,unconnected-(U301-NC-Pad5)*%
X61194400Y16868200D03*
%TO.P,U301,6*%
%TO.N,Net-(R304-Pad1)*%
X62464400Y16868200D03*
%TO.P,U301,7,V+_7*%
%TO.N,Net-(U301-V+)*%
X63734400Y16868200D03*
%TO.P,U301,8,NC_8*%
%TO.N,unconnected-(U301-NC-Pad8)*%
X65004400Y16868200D03*
%TD*%
D13*
%TO.P,R230,1*%
%TO.N,/Phase Noise/FREQ_CTL_10k*%
X52285400Y28422600D03*
%TO.P,R230,2*%
%TO.N,/Phase Noise/FREQ_CTL*%
X50635400Y28422600D03*
%TD*%
D31*
%TO.P,FB309,1*%
%TO.N,+5V*%
X146608900Y13376500D03*
%TO.P,FB309,2*%
%TO.N,Net-(U305-V+)*%
X145033900Y13376500D03*
%TD*%
D21*
%TO.P,R320,1*%
%TO.N,Net-(R305-Pad1)*%
X79908400Y11724100D03*
%TO.P,R320,2*%
%TO.N,/Outputs/OUT2*%
X79908400Y8799100D03*
%TD*%
D35*
%TO.P,FB308,1*%
%TO.N,-5V*%
X118897400Y23308000D03*
%TO.P,FB308,2*%
%TO.N,Net-(U304-V-)*%
X118897400Y21733000D03*
%TD*%
D34*
%TO.P,R416,1*%
%TO.N,/Front Panel/-11.9VDC*%
X99782953Y97919600D03*
%TO.P,R416,2*%
%TO.N,-12V*%
X99782953Y96269600D03*
%TD*%
D33*
%TO.P,J305,1,C_1*%
%TO.N,/Outputs/OUT5*%
X142240000Y3114900D03*
%TD*%
D15*
%TO.P,R108,1*%
%TO.N,Net-(Q101-E)*%
X137190400Y96558600D03*
%TO.P,R108,2*%
%TO.N,Net-(Q101-B)*%
X137190400Y98208600D03*
%TD*%
D19*
%TO.P,C324,1*%
%TO.N,/Outputs/OUT6*%
X165493400Y10328500D03*
%TO.P,C324,2*%
%TO.N,GND*%
X167043400Y10328500D03*
%TD*%
D18*
%TO.P,C118,1*%
%TO.N,GND*%
X99698400Y71983600D03*
%TO.P,C118,2*%
%TO.N,+5V*%
X98148400Y71983600D03*
%TD*%
D17*
%TO.P,TP101,1,1_1*%
%TO.N,GND*%
X130581400Y107543600D03*
%TD*%
D65*
%TO.P,C114,1*%
%TO.N,+5V*%
X144932400Y65690600D03*
%TO.P,C114,2*%
%TO.N,GND*%
X144932400Y60750600D03*
%TD*%
D19*
%TO.P,C120,1*%
%TO.N,GND*%
X87454400Y71983600D03*
%TO.P,C120,2*%
%TO.N,+5V*%
X89004400Y71983600D03*
%TD*%
D14*
%TO.P,R302,1*%
%TO.N,Net-(U302--)*%
X83954400Y23917500D03*
%TO.P,R302,2*%
%TO.N,GND*%
X85604400Y23917500D03*
%TD*%
D31*
%TO.P,FB201,1*%
%TO.N,+5V*%
X26339900Y34941100D03*
%TO.P,FB201,2*%
%TO.N,Net-(U201-V+)*%
X24764900Y34941100D03*
%TD*%
D13*
%TO.P,R407,1*%
%TO.N,/Front Panel/+4.50V*%
X107946600Y73065000D03*
%TO.P,R407,2*%
%TO.N,Net-(R407-Pad2)*%
X106296600Y73065000D03*
%TD*%
D43*
%TO.P,L301,1,1_1*%
%TO.N,/Outputs/OUT1*%
X63779400Y8712200D03*
%TO.P,L301,2,2_2*%
%TO.N,GND*%
X65904400Y8712200D03*
%TD*%
D66*
%TO.P,C403,1*%
%TO.N,Net-(U408-+)*%
X91720953Y102059600D03*
%TO.P,C403,2*%
%TO.N,-12V*%
X93620953Y102059600D03*
%TD*%
D19*
%TO.P,C117,1*%
%TO.N,GND*%
X95148400Y69697600D03*
%TO.P,C117,2*%
%TO.N,+5V*%
X96698400Y69697600D03*
%TD*%
D18*
%TO.P,C313,1*%
%TO.N,GND*%
X126403400Y14900500D03*
%TO.P,C313,2*%
%TO.N,Net-(U304-V+)*%
X124853400Y14900500D03*
%TD*%
D57*
%TO.P,J101,1,Pin_1_1*%
%TO.N,/B+24V*%
X81848400Y95478600D03*
D58*
%TO.P,J101,2,Pin_2_2*%
%TO.N,-12V*%
X81848400Y92938600D03*
%TO.P,J101,3,Pin_3_3*%
%TO.N,/HEAT_MON*%
X81848400Y90398600D03*
%TO.P,J101,4,Pin_4_4*%
%TO.N,/VARAC_MON*%
X81848400Y87858600D03*
%TO.P,J101,5,Pin_5_5*%
%TO.N,/AGC_MON*%
X81848400Y85318600D03*
%TO.P,J101,6,Pin_6_6*%
%TO.N,/10MHZ_OUT+*%
X81848400Y82778600D03*
%TO.P,J101,7,Pin_7_7*%
%TO.N,/10MHZ_OUT-*%
X81848400Y80238600D03*
%TO.P,J101,8,Pin_8_8*%
%TO.N,/SC10L_+5VREF*%
X81848400Y77698600D03*
%TO.P,J101,9,Pin_9_9*%
%TO.N,/SC10L_FREQ_CTL*%
X81848400Y75158600D03*
%TO.P,J101,10,Pin_10_10*%
%TO.N,-12V*%
X81848400Y72618600D03*
%TO.P,J101,11,Pin_11_11*%
%TO.N,/AMPL_CTL*%
X81848400Y70078600D03*
%TO.P,J101,12,Pin_12_12*%
%TO.N,/TEMP_CTL*%
X81848400Y67538600D03*
%TD*%
D18*
%TO.P,C315,1*%
%TO.N,GND*%
X146596400Y14900500D03*
%TO.P,C315,2*%
%TO.N,Net-(U305-V+)*%
X145046400Y14900500D03*
%TD*%
D30*
%TO.P,C111,1*%
%TO.N,GND*%
X121430400Y70019600D03*
%TO.P,C111,2*%
%TO.N,Net-(U105-ADJ)*%
X121430400Y71569600D03*
%TD*%
D33*
%TO.P,J203,1,C_1*%
%TO.N,Net-(D203-CATHODE)*%
X40640000Y3175000D03*
%TD*%
D13*
%TO.P,R207,1*%
%TO.N,GND*%
X15092800Y66472100D03*
%TO.P,R207,2*%
%TO.N,Net-(D201-K)*%
X13442800Y66472100D03*
%TD*%
D15*
%TO.P,R204,1*%
%TO.N,Net-(R204-Pad1)*%
X20472400Y40339100D03*
%TO.P,R204,2*%
%TO.N,Net-(U201--)*%
X20472400Y41989100D03*
%TD*%
D41*
%TO.P,U407,1*%
%TO.N,/~{FAULT}*%
X115030600Y64135000D03*
%TO.P,U407,2,-_2*%
%TO.N,/Front Panel/-5.62V*%
X115030600Y65405000D03*
%TO.P,U407,3,+_3*%
%TO.N,-5V*%
X115030600Y66675000D03*
%TO.P,U407,4,V-_4*%
%TO.N,-12V*%
X115030600Y67945000D03*
%TO.P,U407,5,+_5*%
%TO.N,/Front Panel/-4.50V*%
X109880600Y67945000D03*
%TO.P,U407,6,-_6*%
%TO.N,-5V*%
X109880600Y66675000D03*
%TO.P,U407,7*%
%TO.N,/~{FAULT}*%
X109880600Y65405000D03*
%TO.P,U407,8,V+_8*%
%TO.N,+12V*%
X109880600Y64135000D03*
%TD*%
D18*
%TO.P,C317,1*%
%TO.N,GND*%
X167043400Y14900500D03*
%TO.P,C317,2*%
%TO.N,Net-(U306-V+)*%
X165493400Y14900500D03*
%TD*%
D23*
%TO.P,TP115,1,1_1*%
%TO.N,/AGC_MON*%
X105181400Y90906600D03*
%TD*%
D33*
%TO.P,J302,1,C_1*%
%TO.N,/Outputs/OUT2*%
X81280000Y3114900D03*
%TD*%
D15*
%TO.P,R217,1*%
%TO.N,GND*%
X7391400Y70650600D03*
%TO.P,R217,2*%
%TO.N,/Phase Noise/2.3V*%
X7391400Y72300600D03*
%TD*%
D21*
%TO.P,R319,1*%
%TO.N,Net-(R304-Pad1)*%
X59588400Y11724100D03*
%TO.P,R319,2*%
%TO.N,/Outputs/OUT1*%
X59588400Y8799100D03*
%TD*%
D19*
%TO.P,C308,1*%
%TO.N,/Outputs/OUT2*%
X84086400Y11852500D03*
%TO.P,C308,2*%
%TO.N,GND*%
X85636400Y11852500D03*
%TD*%
D22*
%TO.P,U304,1,NC_1*%
%TO.N,unconnected-(U304-NC-Pad1)*%
X125786200Y21983500D03*
%TO.P,U304,2,-_2*%
%TO.N,Net-(U304--)*%
X124516200Y21983500D03*
%TO.P,U304,3,+_3*%
%TO.N,/Outputs/BUF*%
X123246200Y21983500D03*
%TO.P,U304,4,V-_4*%
%TO.N,Net-(U304-V-)*%
X121976200Y21983500D03*
%TO.P,U304,5,NC_5*%
%TO.N,unconnected-(U304-NC-Pad5)*%
X121976200Y16833500D03*
%TO.P,U304,6*%
%TO.N,Net-(R313-Pad1)*%
X123246200Y16833500D03*
%TO.P,U304,7,V+_7*%
%TO.N,Net-(U304-V+)*%
X124516200Y16833500D03*
%TO.P,U304,8,NC_8*%
%TO.N,unconnected-(U304-NC-Pad8)*%
X125786200Y16833500D03*
%TD*%
D12*
%TO.P,C203,1*%
%TO.N,Net-(U206-+)*%
X38330400Y28676600D03*
%TO.P,C203,2*%
%TO.N,GND*%
X35380400Y28676600D03*
%TD*%
D21*
%TO.P,R307,1*%
%TO.N,Net-(R304-Pad1)*%
X61874400Y11724100D03*
%TO.P,R307,2*%
%TO.N,/Outputs/OUT1*%
X61874400Y8799100D03*
%TD*%
D20*
%TO.P,H109,1,1_1*%
%TO.N,GND*%
X71120000Y4572000D03*
%TD*%
D35*
%TO.P,FB202,1*%
%TO.N,-5V*%
X18948400Y44999600D03*
%TO.P,FB202,2*%
%TO.N,Net-(U201-V-)*%
X18948400Y43424600D03*
%TD*%
D25*
%TO.P,C316,1*%
%TO.N,GND*%
X140741400Y23168500D03*
%TO.P,C316,2*%
%TO.N,Net-(U305-V-)*%
X140741400Y21618500D03*
%TD*%
D13*
%TO.P,R424,1*%
%TO.N,/Front Panel/+8.0VDC*%
X104531401Y98653600D03*
%TO.P,R424,2*%
%TO.N,+12V*%
X102881401Y98653600D03*
%TD*%
D67*
%TO.P,L201,1,1_1*%
%TO.N,Net-(C201-Pad2)*%
X18818400Y9499600D03*
%TO.P,L201,2,2_2*%
%TO.N,Net-(U202-RF1)*%
X21618400Y9499600D03*
%TD*%
D28*
%TO.P,D203,1,CATHODE_1*%
%TO.N,Net-(D203-CATHODE)*%
X38224400Y8610600D03*
%TO.P,D203,2,ANODE_2*%
%TO.N,GND*%
X37264400Y8610600D03*
%TD*%
D15*
%TO.P,R315,1*%
%TO.N,Net-(R315-Pad1)*%
X160934400Y18647500D03*
%TO.P,R315,2*%
%TO.N,Net-(U306--)*%
X160934400Y20297500D03*
%TD*%
D30*
%TO.P,C223,1*%
%TO.N,Net-(U206-\u2013)*%
X36855400Y30568600D03*
%TO.P,C223,2*%
%TO.N,Net-(C223-Pad2)*%
X36855400Y32118600D03*
%TD*%
D18*
%TO.P,C217,1*%
%TO.N,GND*%
X18199400Y72237600D03*
%TO.P,C217,2*%
%TO.N,-12V*%
X16649400Y72237600D03*
%TD*%
D13*
%TO.P,R430,1*%
%TO.N,/Front Panel/-4.50V*%
X107946600Y67945000D03*
%TO.P,R430,2*%
%TO.N,Net-(R430-Pad2)*%
X106296600Y67945000D03*
%TD*%
D31*
%TO.P,FB207,1*%
%TO.N,+9V*%
X19100900Y59029600D03*
%TO.P,FB207,2*%
%TO.N,Net-(U205C-V+)*%
X17525900Y59029600D03*
%TD*%
D17*
%TO.P,TP102,1,1_1*%
%TO.N,GND*%
X11836400Y76606400D03*
%TD*%
D16*
%TO.P,D201,1,A_1*%
%TO.N,GND*%
X11395300Y64760100D03*
%TO.P,D201,2,K_2*%
%TO.N,Net-(D201-K)*%
X11395300Y66660100D03*
%TO.P,D201,3,COM_3*%
%TO.N,Net-(D201-COM)*%
X9520300Y65710100D03*
%TD*%
D19*
%TO.P,C209,1*%
%TO.N,Net-(U202-RF2)*%
X24777400Y33417100D03*
%TO.P,C209,2*%
%TO.N,GND*%
X26327400Y33417100D03*
%TD*%
D13*
%TO.P,R201,1*%
%TO.N,Net-(U206-+)*%
X35458400Y30581600D03*
%TO.P,R201,2*%
%TO.N,+5V*%
X33808400Y30581600D03*
%TD*%
D14*
%TO.P,R101,1*%
%TO.N,/10MHZ_OUT-*%
X84579400Y80238600D03*
%TO.P,R101,2*%
%TO.N,GND*%
X86229400Y80238600D03*
%TD*%
D23*
%TO.P,TP116,1,1_1*%
%TO.N,/SC10L_+5VREF*%
X98196400Y78841600D03*
%TD*%
D22*
%TO.P,U305,1,NC_1*%
%TO.N,unconnected-(U305-NC-Pad1)*%
X146087400Y21983500D03*
%TO.P,U305,2,-_2*%
%TO.N,Net-(U305--)*%
X144817400Y21983500D03*
%TO.P,U305,3,+_3*%
%TO.N,/Outputs/BUF*%
X143547400Y21983500D03*
%TO.P,U305,4,V-_4*%
%TO.N,Net-(U305-V-)*%
X142277400Y21983500D03*
%TO.P,U305,5,NC_5*%
%TO.N,unconnected-(U305-NC-Pad5)*%
X142277400Y16833500D03*
%TO.P,U305,6*%
%TO.N,Net-(R314-Pad1)*%
X143547400Y16833500D03*
%TO.P,U305,7,V+_7*%
%TO.N,Net-(U305-V+)*%
X144817400Y16833500D03*
%TO.P,U305,8,NC_8*%
%TO.N,unconnected-(U305-NC-Pad8)*%
X146087400Y16833500D03*
%TD*%
D25*
%TO.P,C304,1*%
%TO.N,GND*%
X79908400Y23168500D03*
%TO.P,C304,2*%
%TO.N,Net-(U302-V-)*%
X79908400Y21618500D03*
%TD*%
D14*
%TO.P,R215,1*%
%TO.N,/~{SIG_PRESENT}*%
X16490800Y67361100D03*
%TO.P,R215,2*%
%TO.N,+5V*%
X18140800Y67361100D03*
%TD*%
D25*
%TO.P,C306,1*%
%TO.N,GND*%
X99974400Y23295500D03*
%TO.P,C306,2*%
%TO.N,Net-(U303-V-)*%
X99974400Y21745500D03*
%TD*%
D17*
%TO.P,TP103,1,1_1*%
%TO.N,GND*%
X60604400Y46075600D03*
%TD*%
D14*
%TO.P,R401,1*%
%TO.N,/~{LOCKED}*%
X6947400Y31292800D03*
%TO.P,R401,2*%
%TO.N,Net-(Q401-G)*%
X8597400Y31292800D03*
%TD*%
D17*
%TO.P,TP110,1,1_1*%
%TO.N,GND*%
X12090400Y44297600D03*
%TD*%
D18*
%TO.P,C213,1*%
%TO.N,Net-(C212-Pad2)*%
X9817400Y34137600D03*
%TO.P,C213,2*%
%TO.N,GND*%
X8267400Y34137600D03*
%TD*%
%TO.P,C205,1*%
%TO.N,GND*%
X15042800Y64948100D03*
%TO.P,C205,2*%
%TO.N,Net-(D201-K)*%
X13492800Y64948100D03*
%TD*%
%TO.P,C222,1*%
%TO.N,GND*%
X41567400Y26644600D03*
%TO.P,C222,2*%
%TO.N,Net-(U206-V\u2013)*%
X40017400Y26644600D03*
%TD*%
D68*
%TO.P,FB101,1*%
%TO.N,/B+24V*%
X87269699Y95288350D03*
%TO.P,FB101,2*%
%TO.N,+12V*%
X93969701Y90588350D03*
%TD*%
D20*
%TO.P,H114,1,1_1*%
%TO.N,GND*%
X152400000Y4572000D03*
%TD*%
D14*
%TO.P,R211,1*%
%TO.N,Net-(C225-Pad2)*%
X47460400Y28422600D03*
%TO.P,R211,2*%
%TO.N,/Phase Noise/FREQ_CTL*%
X49110400Y28422600D03*
%TD*%
D34*
%TO.P,R106,1*%
%TO.N,Net-(U110-+)*%
X129187400Y98203100D03*
%TO.P,R106,2*%
%TO.N,-12V*%
X129187400Y96553100D03*
%TD*%
D14*
%TO.P,R427,1*%
%TO.N,-9V*%
X116929600Y63881000D03*
%TO.P,R427,2*%
%TO.N,Net-(R427-Pad2)*%
X118579600Y63881000D03*
%TD*%
D31*
%TO.P,FB311,1*%
%TO.N,+5V*%
X167055900Y13376500D03*
%TO.P,FB311,2*%
%TO.N,Net-(U306-V+)*%
X165480900Y13376500D03*
%TD*%
D36*
%TO.P,FB103,1*%
%TO.N,-5V*%
X106679900Y28803600D03*
%TO.P,FB103,2*%
%TO.N,/PRE_N5V*%
X108254900Y28803600D03*
%TD*%
D18*
%TO.P,C206,1*%
%TO.N,GND*%
X26327400Y36465100D03*
%TO.P,C206,2*%
%TO.N,Net-(U201-V+)*%
X24777400Y36465100D03*
%TD*%
D17*
%TO.P,TP104,1,1_1*%
%TO.N,GND*%
X62636400Y31978600D03*
%TD*%
D26*
%TO.P,U402,1*%
%TO.N,/~{FAULT}*%
X106386953Y107416600D03*
%TO.P,U402,2,-_2*%
%TO.N,/Front Panel/-11.5VDC*%
X106386953Y106146600D03*
%TO.P,U402,3,+_3*%
%TO.N,/SC10L_FREQ_CTL*%
X106386953Y104876600D03*
%TO.P,U402,4,V-_4*%
%TO.N,-12V*%
X106386953Y103606600D03*
%TO.P,U402,5,+_5*%
%TO.N,/Front Panel/-7.5VDC*%
X111536953Y103606600D03*
%TO.P,U402,6,-_6*%
%TO.N,/SC10L_FREQ_CTL*%
X111536953Y104876600D03*
%TO.P,U402,7*%
%TO.N,/~{FAULT}*%
X111536953Y106146600D03*
%TO.P,U402,8,V+_8*%
%TO.N,GND*%
X111536953Y107416600D03*
%TD*%
D69*
%TO.P,U206,1*%
%TO.N,unconnected-(U206-Pad1)*%
X40476400Y31978600D03*
%TO.P,U206,2,\u2013_2*%
%TO.N,Net-(U206-\u2013)*%
X40476400Y30708600D03*
%TO.P,U206,3,+_3*%
%TO.N,Net-(U206-+)*%
X40476400Y29438600D03*
%TO.P,U206,4,V\u2013_4*%
%TO.N,Net-(U206-V\u2013)*%
X40476400Y28168600D03*
%TO.P,U206,5*%
%TO.N,unconnected-(U206-Pad5)*%
X45426400Y28168600D03*
%TO.P,U206,6*%
%TO.N,Net-(C225-Pad2)*%
X45426400Y29438600D03*
%TO.P,U206,7,V+_7*%
%TO.N,Net-(U206-V+)*%
X45426400Y30708600D03*
%TO.P,U206,8*%
%TO.N,unconnected-(U206-Pad8)*%
X45426400Y31978600D03*
%TD*%
D34*
%TO.P,R412,1*%
%TO.N,GND*%
X115718900Y89033100D03*
%TO.P,R412,2*%
%TO.N,/Front Panel/+4.61V*%
X115718900Y87383100D03*
%TD*%
D70*
%TO.P,J102,1,Pin_1_1*%
%TO.N,Net-(D101-K)*%
X153987500Y95250000D03*
D71*
%TO.P,J102,2,Pin_2_2*%
%TO.N,Net-(D101-A)*%
X157949900Y95250000D03*
%TD*%
D14*
%TO.P,R310,1*%
%TO.N,Net-(U304--)*%
X124467400Y23917500D03*
%TO.P,R310,2*%
%TO.N,GND*%
X126117400Y23917500D03*
%TD*%
D23*
%TO.P,TP201,1,1_1*%
%TO.N,/~{SIG_PRESENT}*%
X102387400Y73126600D03*
%TD*%
D26*
%TO.P,U403,1*%
%TO.N,/~{FAULT}*%
X106338401Y101447600D03*
%TO.P,U403,2,-_2*%
%TO.N,/AGC_MON*%
X106338401Y100177600D03*
%TO.P,U403,3,+_3*%
%TO.N,/Front Panel/+8.0VDC*%
X106338401Y98907600D03*
%TO.P,U403,4,V-_4*%
%TO.N,-12V*%
X106338401Y97637600D03*
%TO.P,U403,5,+_5*%
%TO.N,/AGC_MON*%
X111488401Y97637600D03*
%TO.P,U403,6,-_6*%
%TO.N,/Front Panel/-10.0VDC*%
X111488401Y98907600D03*
%TO.P,U403,7*%
%TO.N,/~{FAULT}*%
X111488401Y100177600D03*
%TO.P,U403,8,V+_8*%
%TO.N,+12V*%
X111488401Y101447600D03*
%TD*%
D19*
%TO.P,C101,1*%
%TO.N,/B+24V*%
X87134400Y98018600D03*
%TO.P,C101,2*%
%TO.N,GND*%
X88684400Y98018600D03*
%TD*%
D72*
%TO.P,U105,1,ADJ_1*%
%TO.N,Net-(U105-ADJ)*%
X121416400Y73842600D03*
%TO.P,U105,2,VI_2*%
%TO.N,-12V*%
X123716400Y73842600D03*
D73*
X123716400Y80142600D03*
D72*
%TO.P,U105,3,VO_3*%
%TO.N,-9V*%
X126016400Y73842600D03*
%TD*%
D14*
%TO.P,R438,1*%
%TO.N,Net-(R436-Pad1)*%
X93623953Y98757600D03*
%TO.P,R438,2*%
%TO.N,/HEAT_MON*%
X95273953Y98757600D03*
%TD*%
D23*
%TO.P,TP114,1,1_1*%
%TO.N,/VARAC_MON*%
X84988400Y86334600D03*
%TD*%
D30*
%TO.P,C109,1*%
%TO.N,/Outputs/BUF*%
X120167400Y35013600D03*
%TO.P,C109,2*%
%TO.N,GND*%
X120167400Y36563600D03*
%TD*%
D74*
%TO.P,D101,1,K_1*%
%TO.N,Net-(D101-K)*%
X154212400Y88366600D03*
%TO.P,D101,2,A_2*%
%TO.N,Net-(D101-A)*%
X158512400Y88366600D03*
%TD*%
D25*
%TO.P,C314,1*%
%TO.N,GND*%
X120421400Y23295500D03*
%TO.P,C314,2*%
%TO.N,Net-(U304-V-)*%
X120421400Y21745500D03*
%TD*%
D17*
%TO.P,TP111,1,1_1*%
%TO.N,GND*%
X32156400Y9753600D03*
%TD*%
D23*
%TO.P,TP202,1,1_1*%
%TO.N,/~{FAULT}*%
X3962400Y78587600D03*
%TD*%
D21*
%TO.P,R326,1*%
%TO.N,Net-(R313-Pad1)*%
X120687400Y11616100D03*
%TO.P,R326,2*%
%TO.N,/Outputs/OUT4*%
X120687400Y8691100D03*
%TD*%
D75*
%TO.P,L202,1,1_1*%
%TO.N,Net-(C208-Pad1)*%
X14503400Y31724600D03*
%TO.P,L202,2,2_2*%
%TO.N,Net-(C212-Pad2)*%
X11353400Y31724600D03*
%TD*%
D20*
%TO.P,H105,1,1_1*%
%TO.N,GND*%
X5080000Y106680000D03*
%TD*%
D31*
%TO.P,FB303,1*%
%TO.N,+5V*%
X85648900Y13376500D03*
%TO.P,FB303,2*%
%TO.N,Net-(U302-V+)*%
X84073900Y13376500D03*
%TD*%
D20*
%TO.P,H110,1,1_1*%
%TO.N,GND*%
X111760000Y4572000D03*
%TD*%
D14*
%TO.P,R219,1*%
%TO.N,GND*%
X40856400Y23942600D03*
%TO.P,R219,2*%
%TO.N,Net-(U204-+)*%
X42506400Y23942600D03*
%TD*%
D56*
%TO.P,C106,1*%
%TO.N,+12V*%
X122446400Y86343600D03*
D17*
%TO.P,C106,2*%
%TO.N,GND*%
X122446400Y91343600D03*
%TD*%
D51*
%TO.P,L103,1,1_1*%
%TO.N,/Outputs/BUF*%
X121818400Y34980100D03*
%TO.P,L103,2,2_2*%
%TO.N,GND*%
X121818400Y37105100D03*
%TD*%
D65*
%TO.P,C113,1*%
%TO.N,GND*%
X129304400Y80122600D03*
%TO.P,C113,2*%
%TO.N,-9V*%
X129304400Y75182600D03*
%TD*%
D76*
%TO.P,C202,1*%
%TO.N,Net-(D202-CATHODE)*%
X16535400Y8737600D03*
%TO.P,C202,2*%
%TO.N,Net-(C201-Pad2)*%
X16535400Y11687600D03*
%TD*%
D20*
%TO.P,H107,1,1_1*%
%TO.N,GND*%
X27940000Y4572000D03*
%TD*%
D19*
%TO.P,C215,1*%
%TO.N,Net-(U204-+)*%
X12966400Y38709600D03*
%TO.P,C215,2*%
%TO.N,GND*%
X14516400Y38709600D03*
%TD*%
D22*
%TO.P,U306,1,NC_1*%
%TO.N,unconnected-(U306-NC-Pad1)*%
X166375400Y21983500D03*
%TO.P,U306,2,-_2*%
%TO.N,Net-(U306--)*%
X165105400Y21983500D03*
%TO.P,U306,3,+_3*%
%TO.N,/Outputs/BUF*%
X163835400Y21983500D03*
%TO.P,U306,4,V-_4*%
%TO.N,Net-(U306-V-)*%
X162565400Y21983500D03*
%TO.P,U306,5,NC_5*%
%TO.N,unconnected-(U306-NC-Pad5)*%
X162565400Y16833500D03*
%TO.P,U306,6*%
%TO.N,Net-(R315-Pad1)*%
X163835400Y16833500D03*
%TO.P,U306,7,V+_7*%
%TO.N,Net-(U306-V+)*%
X165105400Y16833500D03*
%TO.P,U306,8,NC_8*%
%TO.N,unconnected-(U306-NC-Pad8)*%
X166375400Y16833500D03*
%TD*%
D20*
%TO.P,H103,1,1_1*%
%TO.N,GND*%
X84388400Y60553600D03*
%TD*%
D38*
%TO.P,R110,1*%
%TO.N,Net-(Q101-E)*%
X138450400Y88874600D03*
%TO.P,R110,2*%
%TO.N,GND*%
X168930400Y88874600D03*
%TD*%
D77*
%TO.N,GND*%
X120167400Y37312600D03*
X108864600Y69469000D03*
X94769800Y105742600D03*
X115753900Y78683100D03*
X127254000Y10303100D03*
X96802000Y8610600D03*
X66020400Y14998200D03*
X86639400Y10328500D03*
X127254000Y11827100D03*
X147574000Y11827100D03*
X15791800Y64948100D03*
X89754400Y73206600D03*
X13741400Y34264600D03*
X7409800Y71284600D03*
X167538400Y23790500D03*
X27029900Y36382100D03*
X168275000Y8652100D03*
X100158000Y23955100D03*
X76380400Y8610600D03*
X13233400Y10261600D03*
X138926400Y58865600D03*
X158569400Y69229600D03*
X127025400Y23790500D03*
X55588200Y23381000D03*
X100549400Y71936600D03*
X8153400Y37947600D03*
X10225900Y10983000D03*
X27029900Y33334100D03*
X167595000Y14938100D03*
X140875400Y83748600D03*
X42316400Y26644600D03*
X12509800Y64760100D03*
X18077800Y69520100D03*
X94259400Y69697600D03*
X87020400Y8677500D03*
X117503000Y8610600D03*
X147574000Y10303100D03*
X10439400Y28676600D03*
X126955000Y14938100D03*
X13944600Y49887900D03*
X89876953Y102301600D03*
X20472400Y45948600D03*
X11328400Y23469600D03*
X106934000Y10303100D03*
X158569400Y71729600D03*
X49824100Y29919400D03*
X107920600Y70652000D03*
X161569400Y71729600D03*
X106832400Y33248600D03*
X19075400Y72237600D03*
X19964400Y54457600D03*
X121818400Y37820600D03*
X66256400Y23888200D03*
X161118000Y23955100D03*
X90195400Y63439600D03*
X155569400Y69229600D03*
X45872400Y14798600D03*
X86639400Y11852500D03*
X15791800Y66345100D03*
X86340400Y14963500D03*
X19837400Y57505600D03*
X144685400Y84510600D03*
X86385400Y23917500D03*
X115468400Y37312600D03*
X87055400Y82016600D03*
X147275000Y14938100D03*
X147178400Y60680600D03*
X5981400Y67170600D03*
X115718900Y89986100D03*
X105943400Y30327600D03*
X147218400Y23917500D03*
X110231953Y107416600D03*
X129697400Y94335600D03*
X120478000Y23955100D03*
X56314400Y8610600D03*
X27584400Y30200600D03*
X167894000Y10303100D03*
X158569400Y64229600D03*
X161569400Y66729600D03*
X161569400Y64229600D03*
X12090400Y26009600D03*
X90195400Y68646600D03*
X27076400Y45567600D03*
X101433953Y100281600D03*
X79863400Y23980500D03*
X9169400Y18008600D03*
X34188400Y28676600D03*
X11836400Y53568600D03*
X158069400Y8610600D03*
X66319400Y10363200D03*
X137693400Y8610600D03*
X27029900Y31810100D03*
X66700400Y8712200D03*
X155569400Y66729600D03*
X87182400Y80238600D03*
X39141400Y23815600D03*
X33045400Y32105600D03*
X106934000Y11827100D03*
X89560400Y98018600D03*
X59543400Y24015200D03*
X106635000Y14938100D03*
X155569400Y71729600D03*
X66319400Y11887200D03*
X118643400Y37312600D03*
X106705400Y23790500D03*
X140798000Y23955100D03*
X48539400Y22580600D03*
X158569400Y66729600D03*
X129304400Y81716600D03*
X8280400Y34899600D03*
X40157400Y23942600D03*
X100549400Y74603600D03*
X121430400Y69016600D03*
X136811400Y80573600D03*
X37617400Y17211600D03*
X6146800Y30124400D03*
X167894000Y11827100D03*
X125367400Y70032600D03*
X107315000Y8652100D03*
X15265400Y38582600D03*
X155569400Y64229600D03*
X127635000Y8652100D03*
X87401400Y71348600D03*
X36601400Y8610600D03*
X161569400Y69229600D03*
X97815400Y66268600D03*
X147955000Y8652100D03*
%TO.N,/SC10L_+5VREF*%
X98258953Y95414153D03*
X87655400Y113131600D03*
%TO.N,+12V*%
X109880600Y63246000D03*
X113848900Y84017100D03*
X90957400Y90525600D03*
X145814400Y88803600D03*
X134133400Y95092100D03*
X148354400Y91343600D03*
X133241400Y86263600D03*
X145814400Y91343600D03*
X111185600Y70612000D03*
X106701900Y89478100D03*
X97180400Y90525600D03*
X102944401Y99669600D03*
X130704400Y95741600D03*
X148354400Y88803600D03*
X110134400Y101447600D03*
X115072401Y97573600D03*
X113813900Y90113100D03*
%TO.N,+5V*%
X115210900Y85668100D03*
X108428600Y74462000D03*
X127127000Y13351100D03*
X6947400Y55981600D03*
X98196400Y71094600D03*
X147447000Y13351100D03*
X58826400Y16484600D03*
X18204800Y66599100D03*
X116992400Y37439600D03*
X106807000Y13351100D03*
X97688400Y69697600D03*
X19964400Y55981600D03*
X144922400Y67591600D03*
X167767000Y13351100D03*
X110130900Y88208100D03*
X28219400Y32359600D03*
X89687400Y71936600D03*
X27029900Y34858100D03*
X66192400Y13411200D03*
X116556600Y71795000D03*
X144925400Y63784600D03*
X86512400Y13376500D03*
%TO.N,/Phase Noise/FREQ_CTL*%
X51587400Y53822600D03*
%TO.N,/Outputs/BUF*%
X23266400Y50393600D03*
X23266400Y44932600D03*
%TO.N,+9V*%
X48412400Y21310600D03*
X138836400Y75793600D03*
X4996800Y70522600D03*
X143916400Y70713600D03*
X138836400Y71983600D03*
X37998400Y52679600D03*
X145821400Y71348600D03*
X143916400Y76428600D03*
X43967400Y52679600D03*
X19601800Y67869100D03*
X116937600Y75986000D03*
X49808600Y31443400D03*
X49936400Y52679600D03*
X32029400Y52679600D03*
X7645400Y67284600D03*
X140106400Y76428600D03*
X145821400Y75793600D03*
X142011400Y76428600D03*
X19075400Y59791600D03*
X142011400Y70713600D03*
X45872400Y13274600D03*
X140106400Y70713600D03*
%TO.N,-12V*%
X97496953Y103329600D03*
X107082900Y85668100D03*
X98196400Y75412600D03*
X122707400Y80142600D03*
X88544400Y112369600D03*
X102817401Y96240600D03*
X92924953Y102948600D03*
X107945953Y103606600D03*
X115981953Y103606600D03*
X124485400Y80111600D03*
X145560400Y96169600D03*
X16662400Y73126600D03*
X101625400Y106273600D03*
X106736900Y84652100D03*
X107770401Y97637600D03*
X100544953Y96344600D03*
X5878400Y10094000D03*
X116382800Y67919600D03*
X115072401Y100748600D03*
X107117900Y79572100D03*
X145560400Y98709600D03*
X133117400Y99537100D03*
X61315600Y24130000D03*
X115030600Y75222000D03*
X129189400Y95732600D03*
X92735400Y63601600D03*
X89814400Y105638600D03*
X102802953Y103923600D03*
X148100400Y96169600D03*
X148100400Y98709600D03*
%TO.N,/~{FAULT}*%
X7721600Y27635200D03*
X110134400Y89509600D03*
X107848400Y109829600D03*
X110134400Y100177600D03*
X3962400Y31038800D03*
X107809176Y106869376D03*
%TO.N,-5V*%
X113563600Y66675000D03*
X78339400Y23980500D03*
X98634000Y23955100D03*
X58019400Y24015200D03*
X138956400Y63657600D03*
X118954000Y23955100D03*
X19075400Y45821600D03*
X159594000Y23955100D03*
X105943400Y28803600D03*
X111404600Y66675000D03*
X140835400Y65334600D03*
X139274000Y23955100D03*
X112324900Y80842100D03*
%TO.N,Net-(U401A--)*%
X96291400Y101955600D03*
X98196400Y102336600D03*
%TO.N,/~{SIG_PRESENT}*%
X53619400Y22834600D03*
X5842000Y21691600D03*
X53619400Y51282600D03*
X5740400Y31851600D03*
%TO.N,/~{LOCKED}*%
X13512800Y51714400D03*
X13487400Y55727600D03*
%TO.N,/SC10L_FREQ_CTL*%
X102006400Y102336600D03*
%TO.N,/HEAT_MON*%
X95273953Y97639047D03*
%TO.N,-9V*%
X125456400Y61334600D03*
X116929600Y63056000D03*
X125456400Y66334600D03*
X128456400Y63834600D03*
X122456400Y66334600D03*
X122456400Y63834600D03*
X37617400Y23815600D03*
X128456400Y66334600D03*
X125456400Y63834600D03*
X122456400Y61334600D03*
X128456400Y61334600D03*
X35966400Y26644600D03*
%TO.N,Net-(U204-+)*%
X31775400Y33756600D03*
X42062400Y23215600D03*
%TO.N,Net-(R116-Pad2)*%
X94081600Y111607600D03*
X94081600Y75742800D03*
%TO.N,/AGC_MON*%
X104800400Y100177600D03*
%TD*%
%TO.N,Net-(C208-Pad1)*%
D78*
X14503400Y31724600D02*
X14503400Y28676600D01*
X14503400Y23088600D02*
X14503400Y28676600D01*
%TO.N,GND*%
X166846000Y14938100D02*
X167595000Y14938100D01*
X118643400Y36563600D02*
X118643400Y37312600D01*
X10387800Y53645100D02*
X11759900Y53645100D01*
X158704400Y8610600D02*
X158069400Y8610600D01*
X19138400Y54457600D02*
X19964400Y54457600D01*
X11759900Y53645100D02*
X11836400Y53568600D01*
X115181900Y78111100D02*
X115753900Y78683100D01*
X37264400Y8610600D02*
X36601400Y8610600D01*
X100469400Y74523600D02*
X100549400Y74603600D01*
D79*
X166904000Y10303100D02*
X167894000Y10303100D01*
D78*
X146437400Y23917500D02*
X147218400Y23917500D01*
D79*
X85649400Y11852500D02*
X86639400Y11852500D01*
D78*
X65429400Y23888200D02*
X66256400Y23888200D01*
X90195400Y69986600D02*
X90195400Y68646600D01*
X26868900Y30242100D02*
X27542900Y30242100D01*
X144685400Y83761600D02*
X144685400Y84510600D01*
X40856400Y23942600D02*
X40157400Y23942600D01*
D79*
X146584000Y11827100D02*
X147574000Y11827100D01*
X86224400Y8677500D02*
X87020400Y8677500D01*
D78*
X90989400Y73206600D02*
X89754400Y73206600D01*
X13896100Y49839400D02*
X13944600Y49887900D01*
X59543400Y23139200D02*
X59543400Y24015200D01*
X100671953Y99738600D02*
X100890953Y99738600D01*
X121818400Y37105100D02*
X121818400Y37820600D01*
X20472400Y44987100D02*
X20472400Y45948600D01*
X49100600Y29919400D02*
X49824100Y29919400D01*
X19088400Y57505600D02*
X19837400Y57505600D01*
D79*
X88684400Y98018600D02*
X89560400Y98018600D01*
D78*
X166630400Y23917500D02*
X167411400Y23917500D01*
X86229400Y82016600D02*
X87055400Y82016600D01*
X41567400Y26644600D02*
X42316400Y26644600D01*
D79*
X106519000Y8652100D02*
X107315000Y8652100D01*
D78*
X140798000Y23079100D02*
X140798000Y23955100D01*
X100502400Y71983600D02*
X100549400Y71936600D01*
X65271400Y14998200D02*
X66020400Y14998200D01*
X45123400Y14798600D02*
X45872400Y14798600D01*
D80*
X136811400Y78979600D02*
X136811400Y80573600D01*
D78*
X6756400Y29514800D02*
X6146800Y30124400D01*
X35380400Y28676600D02*
X34188400Y28676600D01*
X118166000Y8610600D02*
X117503000Y8610600D01*
X86229400Y80238600D02*
X87182400Y80238600D01*
X18077800Y68822100D02*
X18077800Y69520100D01*
X85591400Y14963500D02*
X86340400Y14963500D01*
X26314400Y31851600D02*
X26988400Y31851600D01*
X26314400Y33375600D02*
X26988400Y33375600D01*
X126206000Y14938100D02*
X126955000Y14938100D01*
D80*
X149494400Y68229600D02*
X158644400Y68229600D01*
D78*
X138257400Y8610600D02*
X137693400Y8610600D01*
X77170400Y8610600D02*
X76380400Y8610600D01*
X10164900Y11044000D02*
X10225900Y10983000D01*
X130523400Y94335600D02*
X129697400Y94335600D01*
X100158000Y23079100D02*
X100158000Y23955100D01*
X7409800Y70586600D02*
X7409800Y71284600D01*
D79*
X126264000Y11827100D02*
X127254000Y11827100D01*
D78*
X108229400Y33248600D02*
X106832400Y33248600D01*
X26988400Y31851600D02*
X27029900Y31810100D01*
X120167400Y36563600D02*
X120167400Y37312600D01*
X100890953Y99738600D02*
X101433953Y100281600D01*
X79863400Y23104500D02*
X79863400Y23980500D01*
X13243600Y49839400D02*
X13896100Y49839400D01*
X99698400Y71983600D02*
X100502400Y71983600D01*
X121430400Y70019600D02*
X121430400Y69016600D01*
D79*
X105944000Y10303100D02*
X106934000Y10303100D01*
D78*
X124541400Y70032600D02*
X125367400Y70032600D01*
D79*
X147159000Y8652100D02*
X147955000Y8652100D01*
D78*
X15042800Y64948100D02*
X15791800Y64948100D01*
X107983600Y71541000D02*
X107983600Y70715000D01*
X11135400Y23662600D02*
X11328400Y23469600D01*
X107983600Y70715000D02*
X107920600Y70652000D01*
X8267400Y34137600D02*
X8267400Y34886600D01*
X141574400Y83748600D02*
X140875400Y83748600D01*
X8013400Y38709600D02*
X8013400Y38087600D01*
X33808400Y32105600D02*
X33045400Y32105600D01*
X93802953Y105742600D02*
X94769800Y105742600D01*
D80*
X144922400Y60680600D02*
X147178400Y60680600D01*
D78*
X105797400Y23917500D02*
X106578400Y23917500D01*
D79*
X167479000Y8652100D02*
X168275000Y8652100D01*
X55588200Y24130000D02*
X55588200Y23381000D01*
D78*
X90195400Y64836600D02*
X90195400Y63439600D01*
D79*
X126264000Y10303100D02*
X127254000Y10303100D01*
D78*
X161118000Y23079100D02*
X161118000Y23955100D01*
X5981400Y68300600D02*
X5981400Y67170600D01*
X115468400Y36563600D02*
X115468400Y37312600D01*
X18199400Y72237600D02*
X19075400Y72237600D01*
X39141400Y23066600D02*
X39141400Y23815600D01*
X46980400Y22580600D02*
X48539400Y22580600D01*
X167411400Y23917500D02*
X167538400Y23790500D01*
X37617400Y18164600D02*
X37617400Y17211600D01*
D79*
X65329400Y10363200D02*
X66319400Y10363200D01*
X146584000Y10303100D02*
X147574000Y10303100D01*
D78*
X85604400Y23917500D02*
X86385400Y23917500D01*
X106578400Y23917500D02*
X106705400Y23790500D01*
D79*
X65329400Y11887200D02*
X66319400Y11887200D01*
D78*
X12878400Y34137600D02*
X13614400Y34137600D01*
X105886000Y14938100D02*
X106635000Y14938100D01*
X10263900Y23662600D02*
X11135400Y23662600D01*
X11395300Y64760100D02*
X12509800Y64760100D01*
X146526000Y14938100D02*
X147275000Y14938100D01*
D79*
X65904400Y8712200D02*
X66700400Y8712200D01*
D78*
X13614400Y34137600D02*
X13741400Y34264600D01*
X8013400Y38087600D02*
X8153400Y37947600D01*
X26988400Y36423600D02*
X27029900Y36382100D01*
D80*
X129304400Y80122600D02*
X129304400Y81716600D01*
D78*
X99685400Y74523600D02*
X100469400Y74523600D01*
X106692400Y30327600D02*
X105943400Y30327600D01*
X12966400Y26009600D02*
X12090400Y26009600D01*
D80*
X138926400Y60364600D02*
X138926400Y58865600D01*
D78*
X87454400Y71983600D02*
X87454400Y71401600D01*
X87454400Y71401600D02*
X87401400Y71348600D01*
X15664800Y66472100D02*
X15791800Y66345100D01*
D79*
X105944000Y11827100D02*
X106934000Y11827100D01*
D78*
X126117400Y23917500D02*
X126898400Y23917500D01*
X120478000Y23079100D02*
X120478000Y23955100D01*
X89762953Y102415600D02*
X89876953Y102301600D01*
X97465000Y8610600D02*
X96802000Y8610600D01*
X108038600Y69469000D02*
X108864600Y69469000D01*
X26988400Y33375600D02*
X27029900Y33334100D01*
D79*
X166904000Y11827100D02*
X167894000Y11827100D01*
D78*
X15138400Y38709600D02*
X15265400Y38582600D01*
X26250400Y45567600D02*
X27076400Y45567600D01*
X126898400Y23917500D02*
X127025400Y23790500D01*
X15092800Y66472100D02*
X15664800Y66472100D01*
D79*
X126839000Y8652100D02*
X127635000Y8652100D01*
D78*
X89762953Y103176600D02*
X89762953Y102415600D01*
D79*
X85649400Y10328500D02*
X86639400Y10328500D01*
D78*
X9296400Y11044000D02*
X10164900Y11044000D01*
X14516400Y38709600D02*
X15138400Y38709600D01*
X13233400Y9725600D02*
X13233400Y10261600D01*
X8406400Y18008600D02*
X9169400Y18008600D01*
X95148400Y69697600D02*
X94259400Y69697600D01*
X27542900Y30242100D02*
X27584400Y30200600D01*
D80*
X134384400Y60101600D02*
X138663400Y60101600D01*
D78*
X11553400Y28676600D02*
X10439400Y28676600D01*
X111536953Y107416600D02*
X110231953Y107416600D01*
X96669900Y66202600D02*
X97749400Y66202600D01*
D79*
X56977400Y8610600D02*
X56314400Y8610600D01*
D78*
X26314400Y36423600D02*
X26988400Y36423600D01*
X115718900Y89033100D02*
X115718900Y89986100D01*
X97749400Y66202600D02*
X97815400Y66268600D01*
X8267400Y34886600D02*
X8280400Y34899600D01*
%TO.N,/Front Panel/-4.61V*%
X113848900Y79572100D02*
X113848900Y78238100D01*
X113848900Y78238100D02*
X113531900Y77921100D01*
X112006900Y77921100D02*
X113531900Y77921100D01*
%TO.N,/Front Panel/-5.38V*%
X106517900Y81830100D02*
X106517900Y79323571D01*
X107920371Y77921100D02*
X110356900Y77921100D01*
X108698900Y82112100D02*
X106799900Y82112100D01*
X106517900Y79323571D02*
X107920371Y77921100D01*
%TO.N,/SC10L_+5VREF*%
X81848400Y77698600D02*
X83255400Y79105600D01*
X97215953Y107683600D02*
X96417953Y106885600D01*
X115028953Y105824047D02*
X115028953Y105130600D01*
X104580953Y108178600D02*
X112674400Y108178600D01*
X87401400Y112877600D02*
X87655400Y113131600D01*
X97461953Y102209600D02*
X96261953Y103409600D01*
X102802953Y106400600D02*
X104580953Y108178600D01*
X83255400Y79105600D02*
X97932400Y79105600D01*
X102802953Y106400600D02*
X101519953Y107683600D01*
X1224400Y14828400D02*
X1224400Y96804600D01*
X98258953Y96269600D02*
X98258953Y95414153D01*
X101519953Y107683600D02*
X97215953Y107683600D01*
X98258953Y96269600D02*
X97461953Y97066600D01*
X1224400Y96804600D02*
X17297400Y112877600D01*
X96261953Y103409600D02*
X96261953Y106729600D01*
X17297400Y112877600D02*
X87401400Y112877600D01*
X97461953Y97066600D02*
X97461953Y102209600D01*
X112674400Y108178600D02*
X115028953Y105824047D01*
%TO.N,/Front Panel/-7.94VDC*%
X98131953Y106695600D02*
X98131953Y104888600D01*
X98067953Y106885600D02*
X99380400Y106885600D01*
%TO.N,+12V*%
D80*
X93969701Y90588350D02*
X97117650Y90588350D01*
X149567900Y80873600D02*
X149567900Y87585600D01*
X135146400Y85374600D02*
X134130400Y85374600D01*
X149567900Y87585600D02*
X147025400Y90128100D01*
D78*
X109880600Y64135000D02*
X109880600Y63246000D01*
X111488401Y101447600D02*
X110134400Y101447600D01*
X102881401Y98653600D02*
X102881401Y99606600D01*
D80*
X134130400Y85374600D02*
X133241400Y86263600D01*
D78*
X102881401Y99606600D02*
X102944401Y99669600D01*
X115072401Y98399600D02*
X115072401Y97573600D01*
D80*
X142271900Y85374600D02*
X139718400Y85374600D01*
X93969701Y90588350D02*
X91020150Y90588350D01*
X123763400Y86343600D02*
X122446400Y86343600D01*
X139718400Y85374600D02*
X135146400Y85374600D01*
X139718400Y80421600D02*
X139718400Y85374600D01*
D78*
X113813900Y89478100D02*
X113813900Y90113100D01*
D80*
X147025400Y90128100D02*
X142271900Y85374600D01*
D78*
X134137400Y95096100D02*
X134133400Y95092100D01*
X106701900Y88588100D02*
X106701900Y89478100D01*
D80*
X91020150Y90588350D02*
X90957400Y90525600D01*
X97117650Y90588350D02*
X97180400Y90525600D01*
X135146400Y85374600D02*
X124732400Y85374600D01*
X124732400Y85374600D02*
X123763400Y86343600D01*
D78*
X109880600Y70612000D02*
X111185600Y70612000D01*
X113848900Y83382100D02*
X113848900Y84017100D01*
X134137400Y96113600D02*
X134137400Y95096100D01*
X130704400Y96553100D02*
X130704400Y95741600D01*
D80*
X140099400Y80040600D02*
X139718400Y80421600D01*
%TO.N,Net-(U110-+)*%
D78*
X129187400Y98203100D02*
X132051900Y98203100D01*
%TO.N,+5V*%
D80*
X144922400Y65886600D02*
X144922400Y67591600D01*
D78*
X19138400Y55981600D02*
X19964400Y55981600D01*
X115030600Y71882000D02*
X116469600Y71882000D01*
X18140800Y67361100D02*
X18140800Y66663100D01*
D80*
X144922400Y63787600D02*
X144925400Y63784600D01*
D78*
X116469600Y71882000D02*
X116556600Y71795000D01*
X96669900Y68102600D02*
X96669900Y69669100D01*
X26314400Y34899600D02*
X26988400Y34899600D01*
X96698400Y69697600D02*
X97688400Y69697600D01*
X6744200Y26974800D02*
X5524000Y26974800D01*
X108468600Y74422000D02*
X108428600Y74462000D01*
X89687400Y71936600D02*
X89051400Y71936600D01*
X105943500Y13351100D02*
X106807000Y13351100D01*
X33808400Y30581600D02*
X32156400Y30581600D01*
X109880600Y74422000D02*
X108468600Y74422000D01*
X90989400Y71936600D02*
X89687400Y71936600D01*
X108663900Y88208100D02*
X110130900Y88208100D01*
X116992400Y36576100D02*
X116992400Y37439600D01*
X5524000Y26974800D02*
X4279400Y28219400D01*
X126263500Y13351100D02*
X127127000Y13351100D01*
X18140800Y66663100D02*
X18204800Y66599100D01*
D80*
X29997400Y30581600D02*
X28219400Y32359600D01*
D78*
X113813900Y85668100D02*
X115210900Y85668100D01*
X146583500Y13351100D02*
X147447000Y13351100D01*
X6884400Y54965600D02*
X6884400Y55918600D01*
X98148400Y71142600D02*
X98196400Y71094600D01*
X65328900Y13411200D02*
X66192400Y13411200D01*
X6884400Y55918600D02*
X6947400Y55981600D01*
X98148400Y71983600D02*
X98148400Y71142600D01*
X96139400Y71936600D02*
X98101400Y71936600D01*
X52130400Y21310600D02*
X54000400Y21310600D01*
X166903500Y13351100D02*
X167767000Y13351100D01*
X26988400Y34899600D02*
X27029900Y34858100D01*
D80*
X144922400Y65886600D02*
X144922400Y63787600D01*
D78*
X85648900Y13376500D02*
X86512400Y13376500D01*
D80*
X32156400Y30581600D02*
X29997400Y30581600D01*
X54000400Y21310600D02*
X58826400Y16484600D01*
X149494400Y65689600D02*
X145119400Y65689600D01*
%TO.N,/Phase Noise/FREQ_CTL*%
D78*
X92906401Y67152600D02*
X91465400Y65711599D01*
X91465400Y64836600D02*
X91465400Y61823600D01*
X91465400Y65711599D02*
X91465400Y64836600D01*
X44742400Y26123600D02*
X47142400Y26123600D01*
X83464400Y53822600D02*
X51587400Y53822600D01*
X43586400Y27279600D02*
X44742400Y26123600D01*
X48285400Y26123600D02*
X49060400Y26898600D01*
X43586400Y32920000D02*
X48372200Y37705800D01*
X94794900Y67152600D02*
X92906401Y67152600D01*
X91465400Y61823600D02*
X83464400Y53822600D01*
X49110400Y28422600D02*
X50635400Y28422600D01*
X43586400Y32920000D02*
X43586400Y27279600D01*
X48372200Y37705800D02*
X49769200Y37705800D01*
X47142400Y26123600D02*
X48285400Y26123600D01*
X49110400Y28422600D02*
X49110400Y26948600D01*
X46980400Y25961600D02*
X47142400Y26123600D01*
X46980400Y25120600D02*
X46980400Y25961600D01*
%TO.N,Net-(U201--)*%
X23788399Y41989100D02*
X20472400Y41989100D01*
X24536400Y42737101D02*
X23788399Y41989100D01*
X24536400Y43612100D02*
X24536400Y42737101D01*
X24536400Y43612100D02*
X24536400Y45503600D01*
%TO.N,Net-(U202-DC)*%
X17487900Y21437600D02*
X14504400Y21437600D01*
%TO.N,Net-(U303-V+)*%
X104336000Y14938100D02*
X104336000Y13409100D01*
X104349000Y16808100D02*
X104349000Y14951100D01*
%TO.N,Net-(Q401-D)*%
X8406400Y23183152D02*
X9835848Y24612600D01*
X9835848Y24612600D02*
X12138900Y24612600D01*
%TO.N,Net-(J401-Pin_3)*%
X4329000Y23114000D02*
X6832600Y23114000D01*
%TO.N,/Outputs/OUT4*%
D79*
X122961400Y8672100D02*
X120706400Y8672100D01*
X121920000Y8610600D02*
X124672500Y8610600D01*
X124672500Y8610600D02*
X124714000Y8652100D01*
D78*
X119126000Y8610600D02*
X120606900Y8610600D01*
D79*
X121920000Y8610600D02*
X121920000Y3114900D01*
X124714000Y11827100D02*
X124714000Y8652100D01*
%TO.N,Net-(R221-Pad1)*%
D78*
X42062400Y16830600D02*
X42062400Y17705599D01*
X42062400Y16830600D02*
X42062400Y16018100D01*
D80*
X40665400Y11724100D02*
X40665400Y14621100D01*
D78*
X42062400Y16018100D02*
X40665400Y14621100D01*
X39331400Y14706600D02*
X40579900Y14706600D01*
X42062400Y17705599D02*
X41603399Y18164600D01*
D80*
X39776400Y11724100D02*
X40665400Y11724100D01*
D78*
X40579900Y14706600D02*
X40665400Y14621100D01*
X41603399Y18164600D02*
X39141400Y18164600D01*
D80*
X40665400Y11724100D02*
X42062400Y11724100D01*
%TO.N,Net-(D203-CATHODE)*%
D79*
X40665400Y8696100D02*
X40665400Y3200400D01*
D78*
X38224400Y8610600D02*
X40579900Y8610600D01*
D80*
X42062400Y8799100D02*
X39776400Y8799100D01*
D78*
X40579900Y8610600D02*
X40665400Y8696100D01*
%TO.N,Net-(U302--)*%
X84054400Y21983500D02*
X84054400Y23790500D01*
X83052399Y20106500D02*
X79863400Y20106500D01*
X84054400Y21983500D02*
X84054400Y21108501D01*
X84054400Y21108501D02*
X83052399Y20106500D01*
%TO.N,/Outputs/BUF*%
X118643400Y35013600D02*
X120387900Y35013600D01*
X143547400Y21983500D02*
X143547400Y26378600D01*
X82702400Y26390600D02*
X102895400Y26390600D01*
X102895400Y26390600D02*
X121818400Y26390600D01*
X102891300Y21983500D02*
X102891300Y26386500D01*
X55778400Y46075600D02*
X51460400Y50393600D01*
X102891300Y26386500D02*
X102895400Y26390600D01*
X66065400Y26390600D02*
X82702400Y26390600D01*
X143535400Y26390600D02*
X160303299Y26390600D01*
X62464400Y23760848D02*
X65094152Y26390600D01*
X123246200Y26359800D02*
X123215400Y26390600D01*
X66065400Y26390600D02*
X60350400Y26390600D01*
X120167400Y35013600D02*
X121784900Y35013600D01*
X65094152Y26390600D02*
X66065400Y26390600D01*
X23266400Y43612100D02*
X23266400Y44932600D01*
X117055400Y33425600D02*
X118643400Y35013600D01*
X60350400Y26390600D02*
X55778400Y30962600D01*
X123246200Y21983500D02*
X123246200Y26359800D01*
X121818400Y34980100D02*
X121818400Y26390600D01*
X82707800Y26385200D02*
X82702400Y26390600D01*
X160303299Y26390600D02*
X163835400Y22858499D01*
X62464400Y22018200D02*
X62464400Y23760848D01*
X143547400Y26378600D02*
X143535400Y26390600D01*
X163835400Y22858499D02*
X163835400Y21983500D01*
X51460400Y50393600D02*
X23266400Y50393600D01*
X123215400Y26390600D02*
X143535400Y26390600D01*
X121818400Y26390600D02*
X123215400Y26390600D01*
X82707800Y21983500D02*
X82707800Y26385200D01*
X55778400Y30962600D02*
X55778400Y46075600D01*
%TO.N,Net-(U302-V-)*%
X78339400Y21542000D02*
X79850900Y21542000D01*
X81514400Y21983500D02*
X80292400Y21983500D01*
X80292400Y21983500D02*
X79863400Y21554500D01*
%TO.N,Net-(R305-Pad1)*%
D79*
X81305400Y14561000D02*
X81305400Y11724100D01*
X82784400Y16833500D02*
X82784400Y16040000D01*
X82784400Y16040000D02*
X81305400Y14561000D01*
D78*
X82784400Y16833500D02*
X82784400Y17708499D01*
D79*
X79908400Y11724100D02*
X81305400Y11724100D01*
D78*
X82784400Y17708499D02*
X82036399Y18456500D01*
X82036399Y18456500D02*
X79863400Y18456500D01*
D79*
X81305400Y11724100D02*
X82194400Y11724100D01*
%TO.N,Net-(U302-V+)*%
D78*
X84054400Y16833500D02*
X84054400Y14976500D01*
X84041400Y14963500D02*
X84041400Y13434500D01*
%TO.N,Net-(R314-Pad1)*%
D79*
X141884400Y11616100D02*
X143135400Y11616100D01*
X143719000Y16808100D02*
X143719000Y16014600D01*
X142240000Y11971700D02*
X141884400Y11616100D01*
X142240000Y14535600D02*
X142240000Y11971700D01*
D78*
X142970999Y18431100D02*
X140798000Y18431100D01*
X143719000Y17683099D02*
X142970999Y18431100D01*
D79*
X140880400Y11616100D02*
X141884400Y11616100D01*
D78*
X143719000Y16808100D02*
X143719000Y17683099D01*
D79*
X143719000Y16014600D02*
X142240000Y14535600D01*
%TO.N,/Outputs/OUT5*%
X140880400Y8691100D02*
X143135400Y8691100D01*
D78*
X142240000Y8636000D02*
X139750800Y8636000D01*
D79*
X145034000Y11827100D02*
X145034000Y8652100D01*
D78*
X139217400Y8610600D02*
X139725400Y8610600D01*
D79*
X142240000Y8610600D02*
X142240000Y3114900D01*
X142240000Y8610600D02*
X144992500Y8610600D01*
D78*
X139725400Y8610600D02*
X139750800Y8636000D01*
%TO.N,+9V*%
X5060800Y70586600D02*
X4996800Y70522600D01*
X45135900Y13274600D02*
X45872400Y13274600D01*
X142399400Y81399600D02*
X141574400Y82224600D01*
X116937600Y74843000D02*
X116937600Y75986000D01*
X49113100Y31443400D02*
X49808600Y31443400D01*
X7531400Y68300600D02*
X9330300Y68300600D01*
X19100900Y59766100D02*
X19075400Y59791600D01*
X7531400Y68300600D02*
X7531400Y67398600D01*
X7531400Y67398600D02*
X7645400Y67284600D01*
X142399400Y80040600D02*
X142399400Y81399600D01*
X5885800Y70586600D02*
X5060800Y70586600D01*
X46980400Y21310600D02*
X48412400Y21310600D01*
X19100900Y59029600D02*
X19100900Y59766100D01*
D80*
X142399400Y80040600D02*
X142399400Y77945600D01*
D78*
X19601800Y68822100D02*
X19601800Y67869100D01*
%TO.N,/Phase Noise/0.3V*%
X19601800Y70472100D02*
X16553800Y70472100D01*
X14556800Y70917100D02*
X16108800Y70917100D01*
X16108800Y70917100D02*
X16553800Y70472100D01*
%TO.N,/PRE_N5V*%
X108254900Y28803600D02*
X108254900Y31953100D01*
%TO.N,/TEMP_CTL*%
X83626400Y65760600D02*
X85242400Y65760600D01*
X81848400Y67538600D02*
X83626400Y65760600D01*
%TO.N,-12V*%
X98135400Y74523600D02*
X98135400Y75351600D01*
X98135400Y75351600D02*
X98196400Y75412600D01*
X108698900Y79572100D02*
X107117900Y79572100D01*
X1676400Y96621600D02*
X17532400Y112477600D01*
X88436400Y112477600D02*
X88544400Y112369600D01*
X96139400Y74476600D02*
X98088400Y74476600D01*
X102802953Y104876600D02*
X102802953Y103923600D01*
X89762953Y105587153D02*
X89814400Y105638600D01*
X116357400Y67945000D02*
X116382800Y67919600D01*
X14556800Y72187100D02*
X16598900Y72187100D01*
X92924953Y102755600D02*
X92924953Y102948600D01*
D80*
X141622900Y101567100D02*
X141630400Y101574600D01*
X123906900Y101567100D02*
X122446400Y103027600D01*
D78*
X102881401Y96304600D02*
X102817401Y96240600D01*
X2311400Y15722600D02*
X1676400Y16357600D01*
X129187400Y95734600D02*
X129189400Y95732600D01*
D80*
X119525400Y92938600D02*
X119525400Y84333600D01*
D78*
X92735400Y64836600D02*
X92735400Y63601600D01*
D80*
X119525400Y84333600D02*
X123716400Y80142600D01*
D78*
X115028953Y103606600D02*
X115981953Y103606600D01*
D80*
X119525400Y100106600D02*
X119525400Y92938600D01*
D78*
X115072401Y99923600D02*
X115072401Y100748600D01*
X16649400Y72237600D02*
X16649400Y73113600D01*
X7010400Y14122400D02*
X5410200Y15722600D01*
D80*
X140783174Y101574600D02*
X139026900Y103330874D01*
X123716400Y73842600D02*
X123716400Y80142600D01*
D78*
X106736900Y83699100D02*
X106736900Y84652100D01*
D79*
X53758800Y23850600D02*
X54038200Y24130000D01*
D80*
X122446400Y103027600D02*
X119525400Y100106600D01*
D78*
X89762953Y104726600D02*
X89762953Y105587153D01*
D80*
X123716400Y80142600D02*
X122707400Y80142600D01*
X123906900Y101567100D02*
X141622900Y101567100D01*
D78*
X16649400Y73113600D02*
X16662400Y73126600D01*
X17532400Y112477600D02*
X88436400Y112477600D01*
X5410200Y15722600D02*
X2311400Y15722600D01*
X7021400Y10094000D02*
X5878400Y10094000D01*
D79*
X60323100Y25122500D02*
X61315600Y24130000D01*
D78*
X84226400Y72618600D02*
X81848400Y72618600D01*
D79*
X54038200Y24130000D02*
X55030700Y25122500D01*
D78*
X129187400Y96553100D02*
X129187400Y95734600D01*
D79*
X52130400Y23850600D02*
X53758800Y23850600D01*
D78*
X102881401Y97129600D02*
X102881401Y96304600D01*
X100469953Y96269600D02*
X100544953Y96344600D01*
D80*
X141630400Y101574600D02*
X140783174Y101574600D01*
D78*
X133187400Y98388600D02*
X133187400Y99467100D01*
X88925400Y64836600D02*
X88925400Y67919600D01*
X91527953Y104792600D02*
X89828953Y104792600D01*
X96861953Y103964600D02*
X97496953Y103329600D01*
X1676400Y16357600D02*
X1676400Y96621600D01*
D80*
X139026900Y103330874D02*
X139026900Y107416600D01*
D78*
X133187400Y99467100D02*
X133117400Y99537100D01*
X93620953Y102059600D02*
X92924953Y102755600D01*
X115030600Y67945000D02*
X116357400Y67945000D01*
D80*
X81848400Y92938600D02*
X119525400Y92938600D01*
D78*
X101053400Y106845600D02*
X101625400Y106273600D01*
X99782953Y96269600D02*
X100469953Y96269600D01*
X115030600Y74422000D02*
X115030600Y75222000D01*
D80*
X147025400Y97494100D02*
X142944900Y101574600D01*
D78*
X96861953Y104888600D02*
X96861953Y103964600D01*
D79*
X55030700Y25122500D02*
X60323100Y25122500D01*
D78*
X108663900Y85668100D02*
X107082900Y85668100D01*
D80*
X142944900Y101574600D02*
X141630400Y101574600D01*
D78*
X88925400Y67919600D02*
X84226400Y72618600D01*
X106386953Y103606600D02*
X107945953Y103606600D01*
X106338401Y97637600D02*
X107770401Y97637600D01*
%TO.N,Net-(U101-SENSE)*%
X91864399Y74476600D02*
X90989400Y74476600D01*
X92573400Y73767599D02*
X91864399Y74476600D01*
X91465400Y69986600D02*
X92735400Y69986600D01*
X92573400Y70332600D02*
X92573400Y73767599D01*
%TO.N,/Front Panel/-5.62V*%
X115030600Y65405000D02*
X116929600Y65405000D01*
X113245600Y62484000D02*
X114895152Y62484000D01*
X116205600Y63794448D02*
X116205600Y65176000D01*
X114895152Y62484000D02*
X116205600Y63794448D01*
X116205600Y65176000D02*
X115976600Y65405000D01*
X115976600Y65405000D02*
X115030600Y65405000D01*
%TO.N,Net-(R427-Pad2)*%
X118579600Y63881000D02*
X118579600Y65405000D01*
%TO.N,Net-(U104-ADJ)*%
X143224400Y82224600D02*
X143224400Y83748600D01*
X144685400Y82211600D02*
X143237400Y82211600D01*
X144699400Y80040600D02*
X144699400Y82197600D01*
%TO.N,/~{FAULT}*%
X114155601Y70612000D02*
X112885601Y71882000D01*
X3962400Y94589600D02*
X3962400Y78587600D01*
X117637600Y79198399D02*
X114723899Y82112100D01*
X106386953Y107416600D02*
X107261952Y107416600D01*
X112328600Y71882000D02*
X109880600Y71882000D01*
X100671953Y101883599D02*
X100671953Y104888600D01*
X117637600Y72027471D02*
X117637600Y79198399D01*
X9406800Y69647100D02*
X5023771Y69647100D01*
X99401953Y99738600D02*
X99401953Y100613599D01*
X107261952Y107416600D02*
X107809176Y106869376D01*
X111816900Y82112100D02*
X113848900Y82112100D01*
X112885601Y65405000D02*
X112455600Y65405000D01*
X106338401Y101447600D02*
X107213400Y101447600D01*
X3962400Y70708471D02*
X3962400Y73888600D01*
X114078953Y105618248D02*
X114078953Y102463600D01*
X109626400Y89478100D02*
X110642400Y89478100D01*
X116222129Y70612000D02*
X117637600Y72027471D01*
X3962400Y73888600D02*
X3962400Y78587600D01*
X3962400Y73888600D02*
X3962400Y31038800D01*
X110134400Y100177600D02*
X111488401Y100177600D01*
X108531952Y106146600D02*
X111536953Y106146600D01*
X114155601Y64135000D02*
X112885601Y65405000D01*
X112455600Y71755000D02*
X112328600Y71882000D01*
X111536953Y106146600D02*
X113550601Y106146600D01*
X115030600Y70612000D02*
X114155601Y70612000D01*
X112455600Y65405000D02*
X109880600Y65405000D01*
X8382000Y26974800D02*
X7721600Y27635200D01*
X110642400Y89478100D02*
X110165900Y89478100D01*
X110546900Y83382100D02*
X111527900Y82401100D01*
X112797900Y88208100D02*
X111527900Y89478100D01*
X100486177Y101697823D02*
X100671953Y101883599D01*
X107213400Y101447600D02*
X108483400Y100177600D01*
X110165900Y89478100D02*
X110134400Y89509600D01*
X107809176Y106869376D02*
X108531952Y106146600D01*
X107848400Y109829600D02*
X19202400Y109829600D01*
X115030600Y70612000D02*
X116222129Y70612000D01*
X110102900Y89478100D02*
X110134400Y89509600D01*
X109626400Y89478100D02*
X110102900Y89478100D01*
X111527900Y89478100D02*
X111527900Y82401100D01*
X110642400Y89478100D02*
X111527900Y89478100D01*
X106338401Y101447600D02*
X100736400Y101447600D01*
X111792953Y100177600D02*
X114078953Y102463600D01*
X114723899Y82112100D02*
X113848900Y82112100D01*
X5023771Y69647100D02*
X3962400Y70708471D01*
X108698900Y83382100D02*
X110546900Y83382100D01*
X113813900Y88208100D02*
X112797900Y88208100D01*
X99401953Y100613599D02*
X100486177Y101697823D01*
X112455600Y65405000D02*
X112455600Y71755000D01*
X112885601Y71882000D02*
X112328600Y71882000D01*
X113550601Y106146600D02*
X114078953Y105618248D01*
X111527900Y82401100D02*
X111816900Y82112100D01*
X108483400Y100177600D02*
X110134400Y100177600D01*
X8406400Y25476200D02*
X8406400Y26962600D01*
X115030600Y64135000D02*
X114155601Y64135000D01*
X19202400Y109829600D02*
X3962400Y94589600D01*
X100736400Y101447600D02*
X100486177Y101697823D01*
X108663900Y89478100D02*
X109626400Y89478100D01*
%TO.N,-5V*%
X18948400Y45694600D02*
X19075400Y45821600D01*
D80*
X138803400Y65181600D02*
X138803400Y63810600D01*
D78*
X113848900Y80842100D02*
X112324900Y80842100D01*
X78339400Y23117000D02*
X78339400Y23980500D01*
X98634000Y23091600D02*
X98634000Y23955100D01*
D80*
X138803400Y63810600D02*
X138956400Y63657600D01*
D78*
X106679900Y28803600D02*
X105943400Y28803600D01*
X109880600Y66675000D02*
X111404600Y66675000D01*
D80*
X134384400Y65181600D02*
X138803400Y65181600D01*
D78*
X58019400Y23151700D02*
X58019400Y24015200D01*
X118954000Y23091600D02*
X118954000Y23955100D01*
D79*
X108698900Y80842100D02*
X113848900Y80842100D01*
D78*
X115030600Y66675000D02*
X113563600Y66675000D01*
D80*
X138956400Y65334600D02*
X140835400Y65334600D01*
D78*
X18948400Y44999600D02*
X18948400Y45694600D01*
X159594000Y23091600D02*
X159594000Y23955100D01*
X139274000Y23091600D02*
X139274000Y23955100D01*
%TO.N,Net-(U202-RF2)*%
X21869400Y27406600D02*
X21869400Y30327600D01*
X24777400Y33417100D02*
X24777400Y30275600D01*
X21996400Y30454600D02*
X24531400Y30454600D01*
%TO.N,/10MHZ_OUT+*%
X81916600Y82810600D02*
X84547400Y82810600D01*
X84579400Y83540600D02*
X84579400Y82778600D01*
X84547400Y82810600D02*
X84579400Y82778600D01*
X84579400Y82778600D02*
X84579400Y82016600D01*
%TO.N,Net-(U401A--)*%
X93871953Y103842600D02*
X95210953Y102503600D01*
X95210953Y102503600D02*
X95743400Y102503600D01*
X99401953Y103542153D02*
X98196400Y102336600D01*
X99401953Y104888600D02*
X99401953Y103542153D01*
X95743400Y102503600D02*
X96291400Y101955600D01*
X91902953Y105742600D02*
X93802953Y103842600D01*
%TO.N,Net-(U408-+)*%
X91527953Y103842600D02*
X91527953Y102252600D01*
X91720953Y102059600D02*
X91720953Y100406600D01*
%TO.N,Net-(U303--)*%
X104349000Y21958100D02*
X104349000Y21083101D01*
X104349000Y21958100D02*
X104349000Y23765100D01*
X103346999Y20081100D02*
X100158000Y20081100D01*
X104349000Y21083101D02*
X103346999Y20081100D01*
%TO.N,Net-(U303-V-)*%
X101809000Y21958100D02*
X100587000Y21958100D01*
X100587000Y21958100D02*
X100158000Y21529100D01*
X98634000Y21516600D02*
X100145500Y21516600D01*
%TO.N,Net-(R306-Pad1)*%
D79*
X101600000Y14535600D02*
X101600000Y11749500D01*
D78*
X103079000Y17683099D02*
X102330999Y18431100D01*
D79*
X103079000Y16014600D02*
X101600000Y14535600D01*
D78*
X102330999Y18431100D02*
X100158000Y18431100D01*
D79*
X103079000Y16808100D02*
X103079000Y16014600D01*
X101600000Y11749500D02*
X101625400Y11724100D01*
X101625400Y11724100D02*
X100101400Y11724100D01*
D78*
X103079000Y16808100D02*
X103079000Y17683099D01*
D79*
X102502400Y11724100D02*
X101625400Y11724100D01*
%TO.N,Net-(U206-+)*%
D78*
X35458400Y30581600D02*
X37363400Y28676600D01*
X39092400Y29438600D02*
X38330400Y28676600D01*
X37363400Y28676600D02*
X38330400Y28676600D01*
X35458400Y32105600D02*
X35458400Y30581600D01*
X40476400Y29438600D02*
X39092400Y29438600D01*
%TO.N,Net-(R313-Pad1)*%
D79*
X123399000Y16014600D02*
X121920000Y14535600D01*
D78*
X122650999Y18431100D02*
X120478000Y18431100D01*
D79*
X121945400Y11597100D02*
X120706400Y11597100D01*
X121920000Y11622500D02*
X121945400Y11597100D01*
X121920000Y14535600D02*
X121920000Y11622500D01*
X123399000Y16808100D02*
X123399000Y16014600D01*
X122961400Y11597100D02*
X121945400Y11597100D01*
D78*
X123399000Y16808100D02*
X123399000Y17683099D01*
X123399000Y17683099D02*
X122650999Y18431100D01*
%TO.N,Net-(U301-V+)*%
X63721400Y14998200D02*
X63721400Y13469200D01*
X63734400Y16868200D02*
X63734400Y15011200D01*
%TO.N,/~{SIG_PRESENT}*%
X14556800Y68377100D02*
X15474800Y68377100D01*
X11343600Y49839400D02*
X5922800Y49839400D01*
X101672400Y73206600D02*
X101752400Y73126600D01*
X5867400Y49784000D02*
X5867400Y56049004D01*
X84312930Y51917600D02*
X101752400Y69357071D01*
X53365400Y22580600D02*
X53619400Y22834600D01*
X16154400Y63601600D02*
X16490800Y63938000D01*
X7263400Y21691600D02*
X5842000Y21691600D01*
X53619400Y51917600D02*
X84312930Y51917600D01*
X15474800Y68377100D02*
X16490800Y67361100D01*
X19838400Y59759537D02*
X27680338Y51917600D01*
X101752400Y69357071D02*
X101752400Y73126600D01*
X5922800Y49839400D02*
X5867400Y49784000D01*
X13419996Y63601600D02*
X16154400Y63601600D01*
X101752400Y73126600D02*
X102387400Y73126600D01*
X52130400Y22580600D02*
X53365400Y22580600D01*
X53619400Y51917600D02*
X53619400Y50901600D01*
X5867400Y31978600D02*
X5740400Y31851600D01*
X96139400Y73206600D02*
X101672400Y73206600D01*
X5867400Y56049004D02*
X13419996Y63601600D01*
X27680338Y51917600D02*
X53619400Y51917600D01*
X16490800Y67361100D02*
X19838400Y64013500D01*
X16490800Y63938000D02*
X16490800Y67361100D01*
X5867400Y49784000D02*
X5867400Y31978600D01*
X19838400Y64013500D02*
X19838400Y59759537D01*
X8406400Y20548600D02*
X7263400Y21691600D01*
%TO.N,/~{LOCKED}*%
X10387800Y57455100D02*
X12090400Y57455100D01*
X13487400Y56058100D02*
X13360400Y56185100D01*
X12293600Y51714400D02*
X13512800Y51714400D01*
X15537800Y56185100D02*
X17284900Y56185100D01*
X12293600Y51714400D02*
X12293600Y48133000D01*
X6629400Y31927800D02*
X6947400Y31609800D01*
X12293600Y48133000D02*
X6629400Y42468800D01*
X13487400Y55727600D02*
X13487400Y56058100D01*
X13360400Y56185100D02*
X15537800Y56185100D01*
X6629400Y42468800D02*
X6629400Y31927800D01*
X12090400Y57455100D02*
X13360400Y56185100D01*
%TO.N,Net-(C212-Pad2)*%
X11328400Y34137600D02*
X11328400Y36631100D01*
X9817400Y34137600D02*
X11328400Y34137600D01*
X11353400Y31724600D02*
X11353400Y34112600D01*
%TO.N,/SC10L_FREQ_CTL*%
X86500400Y75158600D02*
X87215400Y75873600D01*
X81848400Y75158600D02*
X84734400Y75158600D01*
X103100601Y102336600D02*
X102006400Y102336600D01*
X105640601Y104876600D02*
X103100601Y102336600D01*
X87215400Y75873600D02*
X88913400Y77571600D01*
X106386953Y104876600D02*
X111536953Y104876600D01*
X84734400Y75158600D02*
X86500400Y75158600D01*
X88913400Y77571600D02*
X102006400Y77571600D01*
%TO.N,Net-(R102-Pad2)*%
X90989400Y75746600D02*
X88992400Y75746600D01*
%TO.N,/Outputs/OUT3*%
D79*
X101600000Y8610600D02*
X104352500Y8610600D01*
D78*
X101600000Y8636000D02*
X99209800Y8636000D01*
D79*
X101600000Y8610600D02*
X101600000Y3114900D01*
X100101400Y8799100D02*
X102502400Y8799100D01*
D78*
X98425000Y8610600D02*
X99912900Y8610600D01*
D79*
X104394000Y11827100D02*
X104394000Y8652100D01*
%TO.N,Net-(U109--)*%
D78*
X9296400Y9144000D02*
X11086600Y9144000D01*
X9296400Y9144000D02*
X7396400Y11044000D01*
%TO.N,Net-(U109-+)*%
X7021400Y9144000D02*
X5979871Y9144000D01*
X5979871Y9144000D02*
X4470400Y10653471D01*
X4470400Y10653471D02*
X4470400Y14122400D01*
%TO.N,Net-(R204-Pad1)*%
X23266400Y39337099D02*
X23266400Y38462100D01*
X20472400Y40339100D02*
X22264399Y40339100D01*
X22264399Y40339100D02*
X23266400Y39337099D01*
X21996400Y36379600D02*
X23266400Y37649600D01*
X21996400Y36379600D02*
X21996400Y32168600D01*
X23266400Y37649600D02*
X23266400Y38462100D01*
%TO.N,/HEAT_MON*%
X95273953Y98757600D02*
X95880953Y98757600D01*
X95273953Y98757600D02*
X95273953Y97639047D01*
X81848400Y90398600D02*
X84515400Y87731600D01*
X84515400Y87731600D02*
X95275400Y87731600D01*
X95880953Y98757600D02*
X96861953Y99738600D01*
%TO.N,/Front Panel/-11.9VDC*%
X98258953Y97919600D02*
X99782953Y97919600D01*
X98131953Y99738600D02*
X98131953Y98046600D01*
%TO.N,Net-(U301--)*%
X62732399Y20141200D02*
X59543400Y20141200D01*
X63734400Y21143201D02*
X62732399Y20141200D01*
X63734400Y22018200D02*
X63734400Y21143201D01*
X63734400Y22018200D02*
X63734400Y23825200D01*
%TO.N,Net-(U305--)*%
X143986999Y20081100D02*
X140798000Y20081100D01*
X144989000Y21083101D02*
X143986999Y20081100D01*
X144989000Y21958100D02*
X144989000Y23765100D01*
X144989000Y21958100D02*
X144989000Y21083101D01*
%TO.N,/Phase Noise/REF_IN_MON*%
X17932400Y13182600D02*
X18758400Y12356600D01*
X4851400Y61767700D02*
X4851400Y31064200D01*
X2946400Y29159200D02*
X2946400Y17678400D01*
X12954000Y16764000D02*
X16535400Y13182600D01*
X3860800Y16764000D02*
X12954000Y16764000D01*
X4851400Y31064200D02*
X2946400Y29159200D01*
X16535400Y13182600D02*
X17932400Y13182600D01*
X2946400Y17678400D02*
X3860800Y16764000D01*
X7142800Y64059100D02*
X4851400Y61767700D01*
%TO.N,Net-(D201-COM)*%
X9520300Y65710100D02*
X9520300Y64886600D01*
X9520300Y64886600D02*
X8692800Y64059100D01*
%TO.N,/Outputs/OUT2*%
D79*
X81305400Y8636000D02*
X84057900Y8636000D01*
X82194400Y8799100D02*
X79908400Y8799100D01*
X84099400Y11852500D02*
X84099400Y8677500D01*
D78*
X78130400Y8610600D02*
X79719900Y8610600D01*
D79*
X81305400Y8636000D02*
X81305400Y3140300D01*
D78*
X81280000Y8636000D02*
X78889800Y8636000D01*
%TO.N,/PRE_P5V*%
X113379400Y34518600D02*
X114973400Y34518600D01*
X116992400Y35001100D02*
X115480900Y35001100D01*
X114973400Y34518600D02*
X115468400Y35013600D01*
%TO.N,-9V*%
D80*
X129304400Y75182600D02*
X129304400Y66711600D01*
D78*
X124541400Y72367600D02*
X126016400Y73842600D01*
D80*
X129304400Y66711600D02*
X125234400Y62641600D01*
X129304400Y75182600D02*
X127356400Y75182600D01*
D78*
X36956900Y26644600D02*
X35966400Y26644600D01*
X124541400Y71556600D02*
X124541400Y72367600D01*
D80*
X127356400Y75182600D02*
X126016400Y73842600D01*
D78*
X37617400Y23079100D02*
X37617400Y23815600D01*
X116929600Y63881000D02*
X116929600Y63056000D01*
%TO.N,Net-(U206-V\u2013)*%
X40017400Y26644600D02*
X38531900Y26644600D01*
X40476400Y27103600D02*
X40017400Y26644600D01*
X40476400Y28168600D02*
X40476400Y27103600D01*
%TO.N,Net-(R315-Pad1)*%
X163290999Y18431100D02*
X161118000Y18431100D01*
X164039000Y16808100D02*
X164039000Y17683099D01*
D79*
X162560000Y11622500D02*
X162585400Y11597100D01*
D78*
X164039000Y17683099D02*
X163290999Y18431100D01*
D79*
X164039000Y16808100D02*
X164039000Y16014600D01*
X161315400Y11597100D02*
X162585400Y11597100D01*
X162560000Y14535600D02*
X162560000Y11622500D01*
X162585400Y11597100D02*
X163570400Y11597100D01*
X164039000Y16014600D02*
X162560000Y14535600D01*
%TO.N,/Outputs/OUT6*%
X165354000Y11827100D02*
X165354000Y8652100D01*
X161315400Y8672100D02*
X163570400Y8672100D01*
X165312500Y8610600D02*
X165354000Y8652100D01*
D78*
X159689800Y8636000D02*
X162560000Y8636000D01*
D79*
X162560000Y8610600D02*
X165312500Y8610600D01*
X162560000Y8610600D02*
X162560000Y3114900D01*
%TO.N,Net-(R109-Pad1)*%
D78*
X113379400Y33248600D02*
X115405400Y33248600D01*
X111721400Y32465599D02*
X111721400Y30327600D01*
X112504401Y33248600D02*
X111721400Y32465599D01*
X113379400Y33248600D02*
X112504401Y33248600D01*
%TO.N,Net-(C223-Pad2)*%
X34769200Y37705800D02*
X36870100Y35604900D01*
X36870100Y35604900D02*
X36855400Y35590200D01*
X36855400Y35590200D02*
X36855400Y32118600D01*
X38379400Y32168600D02*
X36905400Y32168600D01*
%TO.N,/Front Panel/+5.38V*%
X107209900Y91129100D02*
X110575900Y91129100D01*
X108663900Y86938100D02*
X106701900Y86938100D01*
X105926900Y89846100D02*
X107209900Y91129100D01*
X105926900Y87713100D02*
X105926900Y89846100D01*
X106701900Y86938100D02*
X105926900Y87713100D01*
%TO.N,/Front Panel/+4.61V*%
X116607900Y90113100D02*
X115591900Y91129100D01*
X113813900Y86938100D02*
X115273900Y86938100D01*
X116607900Y88272100D02*
X116607900Y90113100D01*
X115591900Y91129100D02*
X112225900Y91129100D01*
X115718900Y87383100D02*
X116607900Y88272100D01*
X115273900Y86938100D02*
X115718900Y87383100D01*
%TO.N,Net-(Q101-B)*%
X135727400Y98153100D02*
X137134900Y98153100D01*
D80*
X141406400Y97849600D02*
X139471400Y99784600D01*
D78*
X137895400Y98208600D02*
X139471400Y99784600D01*
D80*
X141406400Y93089100D02*
X141406400Y97849600D01*
X140725400Y92408100D02*
X141406400Y93089100D01*
D78*
X137190400Y98208600D02*
X137895400Y98208600D01*
X134137400Y98388600D02*
X135491900Y98388600D01*
%TO.N,Net-(U110--)*%
X134269400Y94335600D02*
X135727400Y95793600D01*
X132173400Y94335600D02*
X134269400Y94335600D01*
X135727400Y95793600D02*
X135727400Y96603100D01*
X132237400Y96113600D02*
X132237400Y94399600D01*
%TO.N,Net-(J401-Pin_2)*%
X4329000Y25654000D02*
X6832600Y25654000D01*
%TO.N,Net-(U306-V-)*%
X159594000Y21516600D02*
X161105500Y21516600D01*
X161547000Y21958100D02*
X161118000Y21529100D01*
X162769000Y21958100D02*
X161547000Y21958100D01*
X161105500Y21516600D02*
X161118000Y21529100D01*
%TO.N,Net-(U105-ADJ)*%
X121416400Y73842600D02*
X121416400Y71583600D01*
X122891400Y70032600D02*
X122891400Y71556600D01*
X121430400Y71569600D02*
X122878400Y71569600D01*
%TO.N,Net-(U301-V-)*%
X58019400Y21576700D02*
X59530900Y21576700D01*
X59972400Y22018200D02*
X59543400Y21589200D01*
X61194400Y22018200D02*
X59972400Y22018200D01*
%TO.N,/Front Panel/-10.0VDC*%
X113422401Y98399600D02*
X113422401Y98907600D01*
X113422401Y98907600D02*
X113422401Y99923600D01*
X111488401Y98907600D02*
X113422401Y98907600D01*
%TO.N,/Outputs/OUT1*%
D79*
X60960000Y8645300D02*
X60960000Y3149600D01*
X63779400Y11887200D02*
X63779400Y8712200D01*
X61874400Y8799100D02*
X59588400Y8799100D01*
X57937400Y8610600D02*
X59399900Y8610600D01*
X61874400Y8799100D02*
X63692500Y8799100D01*
%TO.N,/Front Panel/+5.62V*%
D78*
X115030600Y73152000D02*
X116770600Y73152000D01*
X113317600Y73990001D02*
X113317600Y75986000D01*
X115030600Y73152000D02*
X114155601Y73152000D01*
X114155601Y73152000D02*
X113317600Y73990001D01*
%TO.N,/Front Panel/+4.50V*%
X109880600Y73152000D02*
X108070600Y73152000D01*
X110755599Y73152000D02*
X109880600Y73152000D01*
X111667600Y75986000D02*
X111667600Y74064001D01*
X111667600Y74064001D02*
X110755599Y73152000D01*
%TO.N,Net-(R406-Pad2)*%
X118587600Y74843000D02*
X118587600Y73319000D01*
%TO.N,Net-(R430-Pad2)*%
X106388600Y67945000D02*
X106388600Y69469000D01*
%TO.N,Net-(D202-CATHODE)*%
D79*
X16535400Y8737600D02*
X15392400Y8737600D01*
D78*
X13233400Y8737600D02*
X14503400Y8737600D01*
D79*
X15240000Y8585200D02*
X15392400Y8737600D01*
X15392400Y8737600D02*
X14503400Y8737600D01*
X15240000Y3175000D02*
X15240000Y8585200D01*
%TO.N,Net-(D101-K)*%
D80*
X153987500Y88591500D02*
X153987500Y95250000D01*
X156244400Y86334600D02*
X158479626Y86334600D01*
X154212400Y88366600D02*
X156244400Y86334600D01*
X159854900Y84959326D02*
X159854900Y80873600D01*
X158479626Y86334600D02*
X159854900Y84959326D01*
%TO.N,Net-(U204-V\u2013)*%
D78*
X37617400Y21504100D02*
X39128900Y21504100D01*
X39605400Y21980600D02*
X39141400Y21516600D01*
X40792400Y21980600D02*
X39605400Y21980600D01*
%TO.N,/AMPL_CTL*%
X81848400Y70078600D02*
X83245400Y68681600D01*
X83245400Y68681600D02*
X84861400Y68681600D01*
%TO.N,/Front Panel/-11.5VDC*%
X104452953Y104876600D02*
X104452953Y106400600D01*
X106386953Y106146600D02*
X104706953Y106146600D01*
%TO.N,Net-(U204-+)*%
X26527929Y46964600D02*
X31775400Y41717130D01*
X18948400Y46964600D02*
X26527929Y46964600D01*
X31775400Y33756600D02*
X31775400Y41717130D01*
X11328400Y39344600D02*
X18948400Y46964600D01*
X42506400Y23659600D02*
X42062400Y23215600D01*
X11328400Y38756100D02*
X12919900Y38756100D01*
X11328400Y38756100D02*
X11328400Y39344600D01*
X9563400Y38709600D02*
X11281900Y38709600D01*
X42062400Y21980600D02*
X42062400Y23215600D01*
%TO.N,/Phase Noise/4.50V*%
X11967113Y54915100D02*
X14837613Y52044600D01*
X10387800Y54915100D02*
X11967113Y54915100D01*
X14837613Y52044600D02*
X15329400Y52044600D01*
X10387800Y54915100D02*
X8584900Y54915100D01*
%TO.N,Net-(U304--)*%
X124669000Y21958100D02*
X124669000Y23765100D01*
X123666999Y20081100D02*
X120478000Y20081100D01*
X124669000Y21083101D02*
X123666999Y20081100D01*
X124669000Y21958100D02*
X124669000Y21083101D01*
%TO.N,/Phase Noise/2.3V*%
X9406800Y72187100D02*
X5980900Y72187100D01*
%TO.N,Net-(U204-V+)*%
X43560900Y13274600D02*
X43560900Y14786100D01*
X43332400Y16830600D02*
X43332400Y15039600D01*
%TO.N,Net-(U306--)*%
X165309000Y21958100D02*
X165309000Y21083101D01*
X164306999Y20081100D02*
X161118000Y20081100D01*
X165105400Y21983500D02*
X165105400Y23792500D01*
X165309000Y21083101D02*
X164306999Y20081100D01*
%TO.N,Net-(R407-Pad2)*%
X106333600Y73065000D02*
X106333600Y71541000D01*
%TO.N,Net-(D201-K)*%
X13681801Y69647100D02*
X12411801Y70917100D01*
X11395300Y66660100D02*
X13254800Y66660100D01*
X13381800Y69347099D02*
X13681801Y69647100D01*
X14556800Y69647100D02*
X13681801Y69647100D01*
X13442800Y66472100D02*
X13442800Y64998100D01*
X12411801Y70917100D02*
X9406800Y70917100D01*
X13381800Y66533100D02*
X13381800Y69347099D01*
%TO.N,Net-(Q401-G)*%
X10263900Y27502300D02*
X10263900Y25562600D01*
X8976400Y29514800D02*
X8976400Y28789800D01*
X8976400Y28789800D02*
X10263900Y27502300D01*
X8597400Y31292800D02*
X8597400Y29893800D01*
%TO.N,Net-(U304-V+)*%
X124669000Y16808100D02*
X124669000Y14951100D01*
X124656000Y14938100D02*
X124656000Y13409100D01*
%TO.N,/Front Panel/-4.50V*%
X109880600Y67945000D02*
X108038600Y67945000D01*
X111595600Y62484000D02*
X109794071Y62484000D01*
X109005601Y67945000D02*
X109880600Y67945000D01*
X109794071Y62484000D02*
X108229600Y64048471D01*
X108229600Y67168999D02*
X109005601Y67945000D01*
X108229600Y64048471D02*
X108229600Y67168999D01*
%TO.N,Net-(U202-RF1)*%
X20408400Y12293600D02*
X21618400Y12293600D01*
D79*
X21618400Y9499600D02*
X21618400Y12293600D01*
X21618400Y12293600D02*
X21618400Y15217600D01*
%TO.N,Net-(J401-Pin_5)*%
D78*
X4329000Y18034000D02*
X6832600Y18034000D01*
%TO.N,/Front Panel/+8.0VDC*%
X106338401Y98907600D02*
X104531401Y98907600D01*
X104531401Y98653600D02*
X104531401Y97129600D01*
%TO.N,Net-(R304-Pad1)*%
X62464400Y16868200D02*
X62464400Y17743199D01*
D79*
X60985400Y11851100D02*
X60858400Y11724100D01*
D78*
X61716399Y18491200D02*
X59543400Y18491200D01*
D79*
X60985400Y14595700D02*
X60985400Y11851100D01*
D78*
X62464400Y17743199D02*
X61716399Y18491200D01*
D79*
X60858400Y11724100D02*
X61874400Y11724100D01*
X62464400Y16074700D02*
X60985400Y14595700D01*
X62464400Y16868200D02*
X62464400Y16074700D01*
X59588400Y11724100D02*
X60858400Y11724100D01*
%TO.N,Net-(U206-\u2013)*%
D78*
X42951400Y29208599D02*
X41451399Y30708600D01*
X42951400Y27279600D02*
X42951400Y29208599D01*
X52130400Y25120600D02*
X51530400Y24520600D01*
X37681400Y14706600D02*
X36284400Y14706600D01*
X51530400Y24520600D02*
X45710400Y24520600D01*
X35585400Y15405600D02*
X35585400Y25628600D01*
X36855400Y30568600D02*
X40336400Y30568600D01*
X35677400Y25720600D02*
X44510400Y25720600D01*
X41451399Y30708600D02*
X40476400Y30708600D01*
X45710400Y24520600D02*
X44510400Y25720600D01*
X44510400Y25720600D02*
X42951400Y27279600D01*
X36284400Y14706600D02*
X35585400Y15405600D01*
X35585400Y25628600D02*
X35677400Y25720600D01*
%TO.N,Net-(U206-V+)*%
X47538100Y31443400D02*
X47538100Y30708600D01*
X47538100Y30708600D02*
X47538100Y29931900D01*
X45426400Y30708600D02*
X47538100Y30708600D01*
%TO.N,/10MHZ_DIV*%
X110071400Y33551599D02*
X110071400Y30327600D01*
X108229400Y34518600D02*
X109104399Y34518600D01*
X107983848Y34518600D02*
X104927400Y37575048D01*
X104927400Y79984600D02*
X101371400Y83540600D01*
X104927400Y37575048D02*
X104927400Y79984600D01*
X101371400Y83540600D02*
X86229400Y83540600D01*
X109104399Y34518600D02*
X110071400Y33551599D01*
%TO.N,Net-(J401-Pin_4)*%
X4329000Y20574000D02*
X6832600Y20574000D01*
%TO.N,/Phase Noise/0.50V*%
X15537800Y54915100D02*
X17030900Y54915100D01*
X17488400Y54457600D02*
X17488400Y52553600D01*
X17030900Y54915100D02*
X17488400Y54457600D01*
X17488400Y52553600D02*
X16979400Y52044600D01*
%TO.N,Net-(D101-A)*%
D80*
X157949900Y88929100D02*
X158512400Y88366600D01*
X157949900Y97764600D02*
X157949900Y88929100D01*
X149567900Y106146600D02*
X157949900Y97764600D01*
%TO.N,Net-(U205C-V+)*%
D78*
X17525900Y59029600D02*
X17525900Y57518100D01*
X15537800Y57455100D02*
X17487900Y57455100D01*
%TO.N,Net-(R436-Pad1)*%
X93495953Y100281600D02*
X93495953Y98885600D01*
X94067953Y100853600D02*
X93495953Y100281600D01*
X95210953Y100853600D02*
X94067953Y100853600D01*
%TO.N,Net-(R116-Pad2)*%
X2235200Y17170400D02*
X2235200Y96316800D01*
X11379200Y11086600D02*
X11379200Y14478000D01*
X2235200Y96316800D02*
X17830800Y111912400D01*
X19354800Y111912400D02*
X19659600Y111607600D01*
X17830800Y111912400D02*
X19354800Y111912400D01*
X3048000Y16357600D02*
X2235200Y17170400D01*
X9499600Y16357600D02*
X3048000Y16357600D01*
X96139400Y75746600D02*
X94085400Y75746600D01*
X94085400Y75746600D02*
X94081600Y75742800D01*
X11379200Y14478000D02*
X9499600Y16357600D01*
X19659600Y111607600D02*
X94081600Y111607600D01*
%TO.N,/Front Panel/-7.5VDC*%
X111536953Y103606600D02*
X113378953Y103606600D01*
X113378953Y105130600D02*
X113378953Y103606600D01*
%TO.N,Net-(U204-\u2013)*%
X43332400Y21105601D02*
X42041399Y19814600D01*
X42041399Y19814600D02*
X39141400Y19814600D01*
X43332400Y21980600D02*
X43332400Y21105601D01*
X39141400Y19814600D02*
X37617400Y19814600D01*
%TO.N,Net-(U201-V-)*%
X18948400Y43424600D02*
X21808900Y43424600D01*
%TO.N,Net-(C201-Pad2)*%
D79*
X15135400Y10287600D02*
X16535400Y11687600D01*
X14503400Y10287600D02*
X15135400Y10287600D01*
X16630400Y11687600D02*
X18818400Y9499600D01*
%TO.N,Net-(U305-V-)*%
D78*
X141227000Y21958100D02*
X140798000Y21529100D01*
X139274000Y21516600D02*
X140785500Y21516600D01*
X142449000Y21958100D02*
X141227000Y21958100D01*
%TO.N,Net-(C225-Pad2)*%
X47460400Y28422600D02*
X47460400Y26948600D01*
X45426400Y29438600D02*
X46444400Y29438600D01*
X46444400Y29438600D02*
X47460400Y28422600D01*
%TO.N,Net-(Q101-E)*%
D80*
X139476900Y87848100D02*
X138450400Y88874600D01*
X140725400Y87848100D02*
X139476900Y87848100D01*
D78*
X137190400Y96558600D02*
X138137400Y96558600D01*
D80*
X139471400Y95224600D02*
X138450400Y94203600D01*
X138450400Y94203600D02*
X138450400Y88874600D01*
D78*
X138137400Y96558600D02*
X139471400Y95224600D01*
%TO.N,Net-(U201-V+)*%
X24764900Y34941100D02*
X24764900Y36452600D01*
X24536400Y38462100D02*
X24536400Y36706100D01*
%TO.N,/Phase Noise/FREQ_CTL_10k*%
X53111400Y28422600D02*
X52285400Y28422600D01*
X11759900Y56185100D02*
X14299900Y53645100D01*
X10387800Y56185100D02*
X11759900Y56185100D01*
X16279400Y50878200D02*
X18669000Y48488600D01*
X51841400Y48488600D02*
X54381400Y45948600D01*
X14299900Y53645100D02*
X15537800Y53645100D01*
X15537800Y53645100D02*
X16279400Y52903500D01*
X54381400Y45948600D02*
X54381400Y29692600D01*
X16279400Y52903500D02*
X16279400Y50878200D01*
X18669000Y48488600D02*
X51841400Y48488600D01*
X54381400Y29692600D02*
X53111400Y28422600D01*
%TO.N,Net-(U305-V+)*%
X144976000Y14938100D02*
X144976000Y13409100D01*
X144989000Y16808100D02*
X144989000Y14951100D01*
%TO.N,Net-(U304-V-)*%
X122129000Y21958100D02*
X120907000Y21958100D01*
X118954000Y21516600D02*
X120465500Y21516600D01*
X120907000Y21958100D02*
X120478000Y21529100D01*
%TO.N,/B+24V*%
D80*
X81848400Y95478600D02*
X87079449Y95478600D01*
D79*
X87134400Y98018600D02*
X87134400Y95423649D01*
%TO.N,/VARAC_MON*%
D78*
X83372400Y86334600D02*
X84988400Y86334600D01*
X81848400Y87858600D02*
X83372400Y86334600D01*
%TO.N,/AGC_MON*%
X109123953Y97637600D02*
X106583953Y100177600D01*
X111488401Y97637600D02*
X109123953Y97637600D01*
X106338401Y100177600D02*
X104800400Y100177600D01*
X81848400Y85318600D02*
X99593400Y85318600D01*
X99593400Y85318600D02*
X105181400Y90906600D01*
%TO.N,/10MHZ_OUT-*%
X81916600Y80270600D02*
X84547400Y80270600D01*
%TO.N,Net-(U306-V+)*%
X165296000Y14938100D02*
X165296000Y13409100D01*
X165309000Y16808100D02*
X165309000Y14951100D01*
%TD*%
%TA.AperFunction,Conductor*%
%TO.N,+9V*%
G36*
X147549939Y81488915D02*
G01*
X147595694Y81436111D01*
X147606900Y81384600D01*
X147606900Y79428730D01*
X147606901Y79428724D01*
X147613308Y79369117D01*
X147663602Y79234272D01*
X147663604Y79234269D01*
X147701666Y79183424D01*
X147726084Y79117962D01*
X147726400Y79109114D01*
X147726400Y75158600D01*
X152047400Y75158600D01*
X152114439Y75138915D01*
X152160194Y75086111D01*
X152171400Y75034600D01*
X152171400Y71786232D01*
X152151715Y71719193D01*
X152098911Y71673438D01*
X152029753Y71663494D01*
X151982303Y71680693D01*
X151863524Y71753957D01*
X151863519Y71753959D01*
X151697097Y71809106D01*
X151697090Y71809107D01*
X151594386Y71819600D01*
X149744400Y71819600D01*
X149744400Y69719601D01*
X151594372Y69719601D01*
X151594386Y69719602D01*
X151697097Y69730095D01*
X151863519Y69785242D01*
X151863530Y69785247D01*
X151982303Y69858507D01*
X152049695Y69876948D01*
X152116359Y69856026D01*
X152161128Y69802384D01*
X152171400Y69752969D01*
X152171400Y69567600D01*
X152151715Y69500561D01*
X152098911Y69454806D01*
X152047400Y69443600D01*
X134515400Y69443600D01*
X134448361Y69463285D01*
X134402606Y69516089D01*
X134391400Y69567600D01*
X134391400Y70419614D01*
X146694401Y70419614D01*
X146704894Y70316903D01*
X146760041Y70150481D01*
X146760043Y70150476D01*
X146852084Y70001255D01*
X146976054Y69877285D01*
X147125275Y69785244D01*
X147125280Y69785242D01*
X147291702Y69730095D01*
X147291709Y69730094D01*
X147394419Y69719601D01*
X149244399Y69719601D01*
X149244400Y69719602D01*
X149244400Y70519600D01*
X146694401Y70519600D01*
X146694401Y70419614D01*
X134391400Y70419614D01*
X134391400Y71119587D01*
X146694400Y71119587D01*
X146694400Y71019600D01*
X149244400Y71019600D01*
X149244400Y71819600D01*
X147394428Y71819600D01*
X147394412Y71819599D01*
X147291702Y71809106D01*
X147125280Y71753959D01*
X147125275Y71753957D01*
X146976054Y71661916D01*
X146852084Y71537946D01*
X146760043Y71388725D01*
X146760041Y71388720D01*
X146704894Y71222298D01*
X146704893Y71222291D01*
X146694400Y71119587D01*
X134391400Y71119587D01*
X134391400Y73204614D01*
X135116401Y73204614D01*
X135126894Y73101903D01*
X135182041Y72935481D01*
X135182043Y72935476D01*
X135274084Y72786255D01*
X135398054Y72662285D01*
X135547275Y72570244D01*
X135547280Y72570242D01*
X135713702Y72515095D01*
X135713709Y72515094D01*
X135816419Y72504601D01*
X136561399Y72504601D01*
X137061400Y72504601D01*
X137806372Y72504601D01*
X137806386Y72504602D01*
X137909097Y72515095D01*
X138075519Y72570242D01*
X138075524Y72570244D01*
X138224745Y72662285D01*
X138348715Y72786255D01*
X138440756Y72935476D01*
X138440758Y72935481D01*
X138495905Y73101903D01*
X138495906Y73101910D01*
X138504150Y73182600D01*
X139999400Y73182600D01*
X140010008Y73063275D01*
X140010009Y73063272D01*
X140065957Y72867739D01*
X140160121Y72687471D01*
X140288646Y72529847D01*
X140446270Y72401322D01*
X140626538Y72307158D01*
X140822071Y72251210D01*
X140822074Y72251209D01*
X140941399Y72240601D01*
X140941402Y72240600D01*
X142149400Y72240600D01*
X142649400Y72240600D01*
X143857398Y72240600D01*
X143857400Y72240601D01*
X143976725Y72251209D01*
X143976728Y72251210D01*
X144172261Y72307158D01*
X144352529Y72401322D01*
X144510153Y72529847D01*
X144638678Y72687471D01*
X144732842Y72867739D01*
X144788790Y73063272D01*
X144788791Y73063275D01*
X144799399Y73182600D01*
X144799400Y73182602D01*
X144799400Y73490600D01*
X142649400Y73490600D01*
X142649400Y72240600D01*
X142149400Y72240600D01*
X142149400Y73490600D01*
X139999400Y73490600D01*
X139999400Y73182600D01*
X138504150Y73182600D01*
X138506399Y73204614D01*
X138506400Y73204627D01*
X138506400Y73789600D01*
X137061400Y73789600D01*
X137061400Y72504601D01*
X136561399Y72504601D01*
X136561400Y72504602D01*
X136561400Y73789600D01*
X135116401Y73789600D01*
X135116401Y73204614D01*
X134391400Y73204614D01*
X134391400Y74874587D01*
X135116400Y74874587D01*
X135116400Y74289600D01*
X136561400Y74289600D01*
X137061400Y74289600D01*
X138506399Y74289600D01*
X138506399Y74298601D01*
X139999400Y74298601D01*
X139999400Y73990600D01*
X142149400Y73990600D01*
X142649400Y73990600D01*
X144799400Y73990600D01*
X144799400Y74298598D01*
X144799399Y74298601D01*
X144788791Y74417926D01*
X144788790Y74417929D01*
X144732842Y74613462D01*
X144638678Y74793730D01*
X144510153Y74951354D01*
X144352529Y75079879D01*
X144172261Y75174043D01*
X143976728Y75229991D01*
X143976725Y75229992D01*
X143857400Y75240600D01*
X142649400Y75240600D01*
X142649400Y73990600D01*
X142149400Y73990600D01*
X142149400Y75240600D01*
X140941399Y75240600D01*
X140822074Y75229992D01*
X140822071Y75229991D01*
X140626538Y75174043D01*
X140446270Y75079879D01*
X140288646Y74951354D01*
X140160121Y74793730D01*
X140065957Y74613462D01*
X140010009Y74417929D01*
X140010008Y74417926D01*
X139999400Y74298601D01*
X138506399Y74298601D01*
X138506399Y74874572D01*
X138506398Y74874587D01*
X138495905Y74977298D01*
X138440758Y75143720D01*
X138440756Y75143725D01*
X138348715Y75292946D01*
X138224745Y75416916D01*
X138075524Y75508957D01*
X138075519Y75508959D01*
X137909097Y75564106D01*
X137909090Y75564107D01*
X137806386Y75574600D01*
X137061400Y75574600D01*
X137061400Y74289600D01*
X136561400Y74289600D01*
X136561400Y75574600D01*
X135816428Y75574600D01*
X135816412Y75574599D01*
X135713702Y75564106D01*
X135547280Y75508959D01*
X135547275Y75508957D01*
X135398054Y75416916D01*
X135274084Y75292946D01*
X135182043Y75143725D01*
X135182041Y75143720D01*
X135126894Y74977298D01*
X135126893Y74977291D01*
X135116400Y74874587D01*
X134391400Y74874587D01*
X134391400Y76304600D01*
X134411085Y76371639D01*
X134463889Y76417394D01*
X134515400Y76428600D01*
X138836400Y76428600D01*
X138836400Y78770715D01*
X138856085Y78837754D01*
X138908889Y78883509D01*
X138978047Y78893453D01*
X139041603Y78864428D01*
X139057039Y78848411D01*
X139101678Y78792878D01*
X139101680Y78792876D01*
X139250104Y78673570D01*
X139250107Y78673568D01*
X139420702Y78588961D01*
X139420703Y78588961D01*
X139420707Y78588959D01*
X139605511Y78543000D01*
X139648277Y78540100D01*
X140550522Y78540101D01*
X140593289Y78543000D01*
X140778093Y78588959D01*
X140948696Y78673570D01*
X141097122Y78792878D01*
X141153075Y78862488D01*
X141210415Y78902404D01*
X141280237Y78904984D01*
X141340370Y78869406D01*
X141346367Y78862485D01*
X141402032Y78793234D01*
X141402033Y78793233D01*
X141550374Y78673993D01*
X141550377Y78673991D01*
X141720876Y78589432D01*
X141905575Y78543498D01*
X141948303Y78540600D01*
X142149400Y78540600D01*
X142149400Y79916600D01*
X142169085Y79983639D01*
X142221889Y80029394D01*
X142273400Y80040600D01*
X142525400Y80040600D01*
X142592439Y80020915D01*
X142638194Y79968111D01*
X142649400Y79916600D01*
X142649400Y78540600D01*
X142850497Y78540600D01*
X142893224Y78543498D01*
X143077923Y78589432D01*
X143248422Y78673991D01*
X143248425Y78673993D01*
X143396766Y78793233D01*
X143396767Y78793234D01*
X143452433Y78862485D01*
X143509776Y78902404D01*
X143579598Y78904984D01*
X143639731Y78869406D01*
X143645705Y78862511D01*
X143701678Y78792878D01*
X143701680Y78792876D01*
X143850104Y78673570D01*
X143850107Y78673568D01*
X144020702Y78588961D01*
X144020703Y78588961D01*
X144020707Y78588959D01*
X144205511Y78543000D01*
X144248277Y78540100D01*
X145150522Y78540101D01*
X145193289Y78543000D01*
X145378093Y78588959D01*
X145548696Y78673570D01*
X145697122Y78792878D01*
X145816430Y78941304D01*
X145901041Y79111907D01*
X145947000Y79296711D01*
X145949900Y79339477D01*
X145949899Y80741722D01*
X145947000Y80784489D01*
X145901041Y80969293D01*
X145881110Y81009481D01*
X145816432Y81139893D01*
X145816430Y81139896D01*
X145697122Y81288322D01*
X145692368Y81293076D01*
X145693338Y81294047D01*
X145657662Y81345295D01*
X145655082Y81415117D01*
X145690660Y81475250D01*
X145753100Y81506602D01*
X145775268Y81508600D01*
X147482900Y81508600D01*
X147549939Y81488915D01*
G37*
%TD.AperFunction*%
%TD*%
M02*
