%TF.GenerationSoftware,KiCad,Pcbnew,10.0.3*%
%TF.CreationDate,2026-08-03T10:03:57-07:00*%
%TF.ProjectId,fs,66732e6b-6963-4616-945f-706362585858,A*%
%TF.SameCoordinates,PX1f1a4e0PY89af760*%
%TF.FileFunction,Paste,Top*%
%TF.FilePolarity,Positive*%
%FSLAX46Y46*%
G04 Gerber Fmt 4.6, Leading zero omitted, Abs format (unit mm)*
G04 Created by KiCad (PCBNEW 10.0.3) date 2026-08-03 10:03:57*
%MOMM*%
%LPD*%
G01*
G04 APERTURE LIST*
G04 Aperture macros list*
%AMRoundRect*
0 Rectangle with rounded corners*
0 $1 Rounding radius*
0 $2 $3 $4 $5 $6 $7 $8 $9 X,Y pos of 4 corners*
0 Add a 4 corners polygon primitive as box body*
4,1,4,$2,$3,$4,$5,$6,$7,$8,$9,$2,$3,0*
0 Add four circle primitives for the rounded corners*
1,1,$1+$1,$2,$3*
1,1,$1+$1,$4,$5*
1,1,$1+$1,$6,$7*
1,1,$1+$1,$8,$9*
0 Add four rect primitives between the rounded corners*
20,1,$1+$1,$2,$3,$4,$5,0*
20,1,$1+$1,$4,$5,$6,$7,0*
20,1,$1+$1,$6,$7,$8,$9,0*
20,1,$1+$1,$8,$9,$2,$3,0*%
G04 Aperture macros list end*
%ADD10C,0.762000*%
%ADD11RoundRect,0.250000X0.325000X0.650000X-0.325000X0.650000X-0.325000X-0.650000X0.325000X-0.650000X0*%
%ADD12RoundRect,0.200000X0.200000X0.275000X-0.200000X0.275000X-0.200000X-0.275000X0.200000X-0.275000X0*%
%ADD13RoundRect,0.200000X-0.200000X-0.275000X0.200000X-0.275000X0.200000X0.275000X-0.200000X0.275000X0*%
%ADD14RoundRect,0.200000X0.275000X-0.200000X0.275000X0.200000X-0.275000X0.200000X-0.275000X-0.200000X0*%
%ADD15RoundRect,0.150000X0.587500X0.150000X-0.587500X0.150000X-0.587500X-0.150000X0.587500X-0.150000X0*%
%ADD16RoundRect,0.225000X0.225000X0.250000X-0.225000X0.250000X-0.225000X-0.250000X0.225000X-0.250000X0*%
%ADD17RoundRect,0.225000X-0.225000X-0.250000X0.225000X-0.250000X0.225000X0.250000X-0.225000X0.250000X0*%
%ADD18RoundRect,0.250000X-0.625000X0.312500X-0.625000X-0.312500X0.625000X-0.312500X0.625000X0.312500X0*%
%ADD19RoundRect,0.150000X-0.150000X0.725000X-0.150000X-0.725000X0.150000X-0.725000X0.150000X0.725000X0*%
%ADD20RoundRect,0.150000X0.150000X-0.725000X0.150000X0.725000X-0.150000X0.725000X-0.150000X-0.725000X0*%
%ADD21RoundRect,0.225000X-0.250000X0.225000X-0.250000X-0.225000X0.250000X-0.225000X0.250000X0.225000X0*%
%ADD22RoundRect,0.150000X-0.725000X-0.150000X0.725000X-0.150000X0.725000X0.150000X-0.725000X0.150000X0*%
%ADD23RoundRect,0.150000X-0.512500X-0.150000X0.512500X-0.150000X0.512500X0.150000X-0.512500X0.150000X0*%
%ADD24RoundRect,0.140000X0.140000X0.170000X-0.140000X0.170000X-0.140000X-0.170000X0.140000X-0.170000X0*%
%ADD25RoundRect,0.225000X0.250000X-0.225000X0.250000X0.225000X-0.250000X0.225000X-0.250000X-0.225000X0*%
%ADD26RoundRect,0.218750X0.218750X0.256250X-0.218750X0.256250X-0.218750X-0.256250X0.218750X-0.256250X0*%
%ADD27RoundRect,0.150000X0.150000X-0.587500X0.150000X0.587500X-0.150000X0.587500X-0.150000X-0.587500X0*%
%ADD28RoundRect,0.200000X-0.275000X0.200000X-0.275000X-0.200000X0.275000X-0.200000X0.275000X0.200000X0*%
%ADD29RoundRect,0.218750X-0.256250X0.218750X-0.256250X-0.218750X0.256250X-0.218750X0.256250X0.218750X0*%
%ADD30RoundRect,0.218750X-0.218750X-0.256250X0.218750X-0.256250X0.218750X0.256250X-0.218750X0.256250X0*%
%ADD31RoundRect,0.250000X0.945000X-0.785000X0.945000X0.785000X-0.945000X0.785000X-0.945000X-0.785000X0*%
%ADD32RoundRect,0.150000X-0.150000X0.512500X-0.150000X-0.512500X0.150000X-0.512500X0.150000X0.512500X0*%
%ADD33RoundRect,0.250000X-0.650000X0.325000X-0.650000X-0.325000X0.650000X-0.325000X0.650000X0.325000X0*%
%ADD34RoundRect,0.150000X0.725000X0.150000X-0.725000X0.150000X-0.725000X-0.150000X0.725000X-0.150000X0*%
%ADD35R,2.921000X2.794000*%
%ADD36RoundRect,0.218750X-0.218750X-0.381250X0.218750X-0.381250X0.218750X0.381250X-0.218750X0.381250X0*%
%ADD37RoundRect,0.150000X-0.587500X-0.150000X0.587500X-0.150000X0.587500X0.150000X-0.587500X0.150000X0*%
%ADD38R,1.524000X1.778000*%
%ADD39R,1.778000X1.524000*%
%ADD40RoundRect,0.218750X0.381250X-0.218750X0.381250X0.218750X-0.381250X0.218750X-0.381250X-0.218750X0*%
%ADD41RoundRect,0.250000X0.250000X0.475000X-0.250000X0.475000X-0.250000X-0.475000X0.250000X-0.475000X0*%
%ADD42RoundRect,0.250000X-2.025000X-2.375000X2.025000X-2.375000X2.025000X2.375000X-2.025000X2.375000X0*%
%ADD43RoundRect,0.250000X-2.050000X-0.300000X2.050000X-0.300000X2.050000X0.300000X-2.050000X0.300000X0*%
%ADD44RoundRect,0.140000X0.170000X-0.140000X0.170000X0.140000X-0.170000X0.140000X-0.170000X-0.140000X0*%
%ADD45RoundRect,0.250000X2.025000X2.375000X-2.025000X2.375000X-2.025000X-2.375000X2.025000X-2.375000X0*%
%ADD46RoundRect,0.250000X2.050000X0.300000X-2.050000X0.300000X-2.050000X-0.300000X2.050000X-0.300000X0*%
%ADD47RoundRect,0.250000X-1.275000X-1.125000X1.275000X-1.125000X1.275000X1.125000X-1.275000X1.125000X0*%
%ADD48RoundRect,0.250000X-0.850000X-0.350000X0.850000X-0.350000X0.850000X0.350000X-0.850000X0.350000X0*%
%ADD49RoundRect,0.375000X-0.375000X0.625000X-0.375000X-0.625000X0.375000X-0.625000X0.375000X0.625000X0*%
%ADD50RoundRect,0.500000X-1.400000X0.500000X-1.400000X-0.500000X1.400000X-0.500000X1.400000X0.500000X0*%
%ADD51RoundRect,0.250000X-0.945000X0.785000X-0.945000X-0.785000X0.945000X-0.785000X0.945000X0.785000X0*%
%ADD52RoundRect,0.250000X-0.250000X-0.475000X0.250000X-0.475000X0.250000X0.475000X-0.250000X0.475000X0*%
%ADD53RoundRect,0.250000X-0.375000X-1.075000X0.375000X-1.075000X0.375000X1.075000X-0.375000X1.075000X0*%
%ADD54R,4.826000X2.286000*%
%ADD55RoundRect,0.150000X-0.825000X-0.150000X0.825000X-0.150000X0.825000X0.150000X-0.825000X0.150000X0*%
%ADD56RoundRect,0.375000X0.375000X-0.625000X0.375000X0.625000X-0.375000X0.625000X-0.375000X-0.625000X0*%
%ADD57RoundRect,0.500000X1.400000X-0.500000X1.400000X0.500000X-1.400000X0.500000X-1.400000X-0.500000X0*%
%ADD58RoundRect,0.250000X-1.000000X-0.900000X1.000000X-0.900000X1.000000X0.900000X-1.000000X0.900000X0*%
%ADD59RoundRect,0.250000X0.275000X0.700000X-0.275000X0.700000X-0.275000X-0.700000X0.275000X-0.700000X0*%
%ADD60RoundRect,0.250000X0.650000X-0.325000X0.650000X0.325000X-0.650000X0.325000X-0.650000X-0.325000X0*%
G04 APERTURE END LIST*
D10*
X34290572Y-12324128D02*
X32597238Y-12324128D01*
X32597238Y-14985080D02*
X32597238Y-9905080D01*
X32597238Y-9905080D02*
X35016286Y-9905080D01*
X36951524Y-14501271D02*
X37193429Y-14743176D01*
X37193429Y-14743176D02*
X36951524Y-14985080D01*
X36951524Y-14985080D02*
X36709620Y-14743176D01*
X36709620Y-14743176D02*
X36951524Y-14501271D01*
X36951524Y-14501271D02*
X36951524Y-14985080D01*
X39370572Y-14985080D02*
X39370572Y-9905080D01*
X39370572Y-9905080D02*
X41305810Y-9905080D01*
X41305810Y-9905080D02*
X41789620Y-10146985D01*
X41789620Y-10146985D02*
X42031525Y-10388890D01*
X42031525Y-10388890D02*
X42273429Y-10872699D01*
X42273429Y-10872699D02*
X42273429Y-11598414D01*
X42273429Y-11598414D02*
X42031525Y-12082223D01*
X42031525Y-12082223D02*
X41789620Y-12324128D01*
X41789620Y-12324128D02*
X41305810Y-12566033D01*
X41305810Y-12566033D02*
X39370572Y-12566033D01*
X46627715Y-14985080D02*
X46627715Y-12324128D01*
X46627715Y-12324128D02*
X46385810Y-11840318D01*
X46385810Y-11840318D02*
X45902001Y-11598414D01*
X45902001Y-11598414D02*
X44934382Y-11598414D01*
X44934382Y-11598414D02*
X44450572Y-11840318D01*
X46627715Y-14743176D02*
X46143906Y-14985080D01*
X46143906Y-14985080D02*
X44934382Y-14985080D01*
X44934382Y-14985080D02*
X44450572Y-14743176D01*
X44450572Y-14743176D02*
X44208668Y-14259366D01*
X44208668Y-14259366D02*
X44208668Y-13775556D01*
X44208668Y-13775556D02*
X44450572Y-13291747D01*
X44450572Y-13291747D02*
X44934382Y-13049842D01*
X44934382Y-13049842D02*
X46143906Y-13049842D01*
X46143906Y-13049842D02*
X46627715Y-12807937D01*
X48804858Y-14743176D02*
X49288667Y-14985080D01*
X49288667Y-14985080D02*
X50256286Y-14985080D01*
X50256286Y-14985080D02*
X50740096Y-14743176D01*
X50740096Y-14743176D02*
X50982000Y-14259366D01*
X50982000Y-14259366D02*
X50982000Y-14017461D01*
X50982000Y-14017461D02*
X50740096Y-13533652D01*
X50740096Y-13533652D02*
X50256286Y-13291747D01*
X50256286Y-13291747D02*
X49530572Y-13291747D01*
X49530572Y-13291747D02*
X49046762Y-13049842D01*
X49046762Y-13049842D02*
X48804858Y-12566033D01*
X48804858Y-12566033D02*
X48804858Y-12324128D01*
X48804858Y-12324128D02*
X49046762Y-11840318D01*
X49046762Y-11840318D02*
X49530572Y-11598414D01*
X49530572Y-11598414D02*
X50256286Y-11598414D01*
X50256286Y-11598414D02*
X50740096Y-11840318D01*
X52433429Y-11598414D02*
X54368667Y-11598414D01*
X53159143Y-9905080D02*
X53159143Y-14259366D01*
X53159143Y-14259366D02*
X53401048Y-14743176D01*
X53401048Y-14743176D02*
X53884858Y-14985080D01*
X53884858Y-14985080D02*
X54368667Y-14985080D01*
X57997238Y-14743176D02*
X57513429Y-14985080D01*
X57513429Y-14985080D02*
X56545810Y-14985080D01*
X56545810Y-14985080D02*
X56062000Y-14743176D01*
X56062000Y-14743176D02*
X55820096Y-14259366D01*
X55820096Y-14259366D02*
X55820096Y-12324128D01*
X55820096Y-12324128D02*
X56062000Y-11840318D01*
X56062000Y-11840318D02*
X56545810Y-11598414D01*
X56545810Y-11598414D02*
X57513429Y-11598414D01*
X57513429Y-11598414D02*
X57997238Y-11840318D01*
X57997238Y-11840318D02*
X58239143Y-12324128D01*
X58239143Y-12324128D02*
X58239143Y-12807937D01*
X58239143Y-12807937D02*
X55820096Y-13291747D01*
D11*
%TO.C,C208*%
X14503400Y28676600D03*
X11553400Y28676600D03*
%TD*%
D12*
%TO.C,R419*%
X112006900Y77921100D03*
X110356900Y77921100D03*
%TD*%
D13*
%TO.C,R434*%
X96417953Y106885600D03*
X98067953Y106885600D03*
%TD*%
D14*
%TO.C,R105*%
X130704400Y96553100D03*
X130704400Y98203100D03*
%TD*%
D15*
%TO.C,D102*%
X96669900Y66202600D03*
X96669900Y68102600D03*
X94794900Y67152600D03*
%TD*%
D13*
%TO.C,R202*%
X24600400Y45567600D03*
X26250400Y45567600D03*
%TD*%
D14*
%TO.C,R208*%
X14503400Y21438600D03*
X14503400Y23088600D03*
%TD*%
D16*
%TO.C,C305*%
X105956400Y14900500D03*
X104406400Y14900500D03*
%TD*%
D12*
%TO.C,R403*%
X8406400Y23139400D03*
X6756400Y23139400D03*
%TD*%
D17*
%TO.C,C319*%
X124853400Y11852500D03*
X126403400Y11852500D03*
%TD*%
D18*
%TO.C,R223*%
X42062400Y11724100D03*
X42062400Y8799100D03*
%TD*%
D19*
%TO.C,U302*%
X85247800Y21983500D03*
X83977800Y21983500D03*
X82707800Y21983500D03*
X81437800Y21983500D03*
X81437800Y16833500D03*
X82707800Y16833500D03*
X83977800Y16833500D03*
X85247800Y16833500D03*
%TD*%
D18*
%TO.C,R317*%
X143154400Y11597100D03*
X143154400Y8672100D03*
%TD*%
D16*
%TO.C,C303*%
X85623400Y14900500D03*
X84073400Y14900500D03*
%TD*%
D14*
%TO.C,R205*%
X19601800Y68822100D03*
X19601800Y70472100D03*
%TD*%
D17*
%TO.C,C105*%
X106692400Y30327600D03*
X108242400Y30327600D03*
%TD*%
D20*
%TO.C,U101*%
X88925400Y64836600D03*
X90195400Y64836600D03*
X91465400Y64836600D03*
X92735400Y64836600D03*
X92735400Y69986600D03*
X91465400Y69986600D03*
X90195400Y69986600D03*
X88925400Y69986600D03*
%TD*%
D13*
%TO.C,R428*%
X116929600Y65405000D03*
X118579600Y65405000D03*
%TD*%
D21*
%TO.C,C110*%
X144685400Y83761600D03*
X144685400Y82211600D03*
%TD*%
D22*
%TO.C,U406*%
X108698900Y83382100D03*
X108698900Y82112100D03*
X108698900Y80842100D03*
X108698900Y79572100D03*
X113848900Y79572100D03*
X113848900Y80842100D03*
X113848900Y82112100D03*
X113848900Y83382100D03*
%TD*%
D17*
%TO.C,C211*%
X24777400Y31893100D03*
X26327400Y31893100D03*
%TD*%
D13*
%TO.C,R104*%
X84579400Y82016600D03*
X86229400Y82016600D03*
%TD*%
D23*
%TO.C,U408*%
X91527953Y105742600D03*
X91527953Y104792600D03*
X91527953Y103842600D03*
X93802953Y103842600D03*
X93802953Y105742600D03*
%TD*%
D24*
%TO.C,D304*%
X119126000Y8610600D03*
X118166000Y8610600D03*
%TD*%
D19*
%TO.C,U303*%
X105431300Y21983500D03*
X104161300Y21983500D03*
X102891300Y21983500D03*
X101621300Y21983500D03*
X101621300Y16833500D03*
X102891300Y16833500D03*
X104161300Y16833500D03*
X105431300Y16833500D03*
%TD*%
D13*
%TO.C,R210*%
X33808400Y32105600D03*
X35458400Y32105600D03*
%TD*%
D25*
%TO.C,C108*%
X118643400Y35013600D03*
X118643400Y36563600D03*
%TD*%
D18*
%TO.C,R316*%
X122961400Y11597100D03*
X122961400Y8672100D03*
%TD*%
D17*
%TO.C,C226*%
X54038200Y24130000D03*
X55588200Y24130000D03*
%TD*%
D26*
%TO.C,FB301*%
X65354400Y13411200D03*
X63779400Y13411200D03*
%TD*%
D27*
%TO.C,Q203*%
X11343600Y49839400D03*
X13243600Y49839400D03*
X12293600Y51714400D03*
%TD*%
D16*
%TO.C,C212*%
X12878400Y34137600D03*
X11328400Y34137600D03*
%TD*%
D13*
%TO.C,R102*%
X87215400Y75873600D03*
X88865400Y75873600D03*
%TD*%
D23*
%TO.C,U109*%
X7021400Y11044000D03*
X7021400Y10094000D03*
X7021400Y9144000D03*
X9296400Y9144000D03*
X9296400Y11044000D03*
%TD*%
D28*
%TO.C,R209*%
X21996400Y32168600D03*
X21996400Y30518600D03*
%TD*%
D19*
%TO.C,U401*%
X100671953Y104888600D03*
X99401953Y104888600D03*
X98131953Y104888600D03*
X96861953Y104888600D03*
X96861953Y99738600D03*
X98131953Y99738600D03*
X99401953Y99738600D03*
X100671953Y99738600D03*
%TD*%
D13*
%TO.C,R301*%
X63779400Y23888200D03*
X65429400Y23888200D03*
%TD*%
%TO.C,R311*%
X144787400Y23917500D03*
X146437400Y23917500D03*
%TD*%
D18*
%TO.C,R309*%
X102502400Y11724100D03*
X102502400Y8799100D03*
%TD*%
D17*
%TO.C,C204*%
X7142800Y64059100D03*
X8692800Y64059100D03*
%TD*%
D24*
%TO.C,D302*%
X78130400Y8610600D03*
X77170400Y8610600D03*
%TD*%
D29*
%TO.C,FB102*%
X116992400Y36576100D03*
X116992400Y35001100D03*
%TD*%
D30*
%TO.C,FB209*%
X36956900Y26644600D03*
X38531900Y26644600D03*
%TD*%
D31*
%TO.C,C112*%
X136811400Y74039600D03*
X136811400Y78979600D03*
%TD*%
D29*
%TO.C,FB304*%
X78384400Y23181000D03*
X78384400Y21606000D03*
%TD*%
D18*
%TO.C,R318*%
X163589400Y11578100D03*
X163589400Y8653100D03*
%TD*%
D14*
%TO.C,R314*%
X140741400Y18457784D03*
X140741400Y20107784D03*
%TD*%
D13*
%TO.C,R111*%
X115405400Y33248600D03*
X117055400Y33248600D03*
%TD*%
D22*
%TO.C,U404*%
X108663900Y89478100D03*
X108663900Y88208100D03*
X108663900Y86938100D03*
X108663900Y85668100D03*
X113813900Y85668100D03*
X113813900Y86938100D03*
X113813900Y88208100D03*
X113813900Y89478100D03*
%TD*%
D32*
%TO.C,U110*%
X134137400Y98388600D03*
X133187400Y98388600D03*
X132237400Y98388600D03*
X132237400Y96113600D03*
X134137400Y96113600D03*
%TD*%
D14*
%TO.C,R417*%
X106736900Y82049100D03*
X106736900Y83699100D03*
%TD*%
D12*
%TO.C,R402*%
X8406400Y25476200D03*
X6756400Y25476200D03*
%TD*%
D24*
%TO.C,D303*%
X98425000Y8610600D03*
X97465000Y8610600D03*
%TD*%
D21*
%TO.C,C318*%
X160934400Y23422500D03*
X160934400Y21872500D03*
%TD*%
D13*
%TO.C,R115*%
X122891400Y70032600D03*
X124541400Y70032600D03*
%TD*%
D29*
%TO.C,FB302*%
X58019400Y23151700D03*
X58019400Y21576700D03*
%TD*%
D12*
%TO.C,R421*%
X115072401Y98399600D03*
X113422401Y98399600D03*
%TD*%
D13*
%TO.C,R303*%
X104147400Y23917500D03*
X105797400Y23917500D03*
%TD*%
D33*
%TO.C,C102*%
X84861400Y75363600D03*
X84861400Y72413600D03*
%TD*%
D17*
%TO.C,C321*%
X165493400Y11852500D03*
X167043400Y11852500D03*
%TD*%
D24*
%TO.C,D301*%
X57937400Y8610600D03*
X56977400Y8610600D03*
%TD*%
D34*
%TO.C,U405*%
X115030600Y70612000D03*
X115030600Y71882000D03*
X115030600Y73152000D03*
X115030600Y74422000D03*
X109880600Y74422000D03*
X109880600Y73152000D03*
X109880600Y71882000D03*
X109880600Y70612000D03*
%TD*%
D13*
%TO.C,R406*%
X116937600Y73319000D03*
X118587600Y73319000D03*
%TD*%
D12*
%TO.C,R411*%
X112225900Y91129100D03*
X110575900Y91129100D03*
%TD*%
D14*
%TO.C,R410*%
X106701900Y86938100D03*
X106701900Y88588100D03*
%TD*%
D13*
%TO.C,R431*%
X106296600Y69469000D03*
X107946600Y69469000D03*
%TD*%
D35*
%TO.C,L101*%
X159854900Y80873600D03*
X149567900Y80873600D03*
%TD*%
D21*
%TO.C,C219*%
X39141400Y23066600D03*
X39141400Y21516600D03*
%TD*%
D12*
%TO.C,R413*%
X104452953Y104876600D03*
X102802953Y104876600D03*
%TD*%
D17*
%TO.C,C214*%
X8013400Y38709600D03*
X9563400Y38709600D03*
%TD*%
%TO.C,C310*%
X63779400Y10363200D03*
X65329400Y10363200D03*
%TD*%
D36*
%TO.C,L306*%
X165459900Y8677500D03*
X167584900Y8677500D03*
%TD*%
D12*
%TO.C,R225*%
X8534400Y54965600D03*
X6884400Y54965600D03*
%TD*%
D14*
%TO.C,R313*%
X120421400Y18520500D03*
X120421400Y20170500D03*
%TD*%
D28*
%TO.C,R216*%
X5867400Y72300600D03*
X5867400Y70650600D03*
%TD*%
D21*
%TO.C,C402*%
X89762953Y104726600D03*
X89762953Y103176600D03*
%TD*%
D26*
%TO.C,FB206*%
X45135900Y13274600D03*
X43560900Y13274600D03*
%TD*%
D17*
%TO.C,C216*%
X5981400Y68300600D03*
X7531400Y68300600D03*
%TD*%
D13*
%TO.C,R312*%
X164980400Y23917500D03*
X166630400Y23917500D03*
%TD*%
%TO.C,R408*%
X106296600Y71541000D03*
X107946600Y71541000D03*
%TD*%
D14*
%TO.C,R305*%
X79898125Y18457784D03*
X79898125Y20107784D03*
%TD*%
D34*
%TO.C,U203*%
X14556800Y68377100D03*
X14556800Y69647100D03*
X14556800Y70917100D03*
X14556800Y72187100D03*
X9406800Y72187100D03*
X9406800Y70917100D03*
X9406800Y69647100D03*
X9406800Y68377100D03*
%TD*%
D18*
%TO.C,R323*%
X161315400Y11597100D03*
X161315400Y8672100D03*
%TD*%
D12*
%TO.C,R433*%
X101053400Y106908600D03*
X99403400Y106908600D03*
%TD*%
D37*
%TO.C,Q401*%
X10263900Y25562600D03*
X10263900Y23662600D03*
X12138900Y24612600D03*
%TD*%
D26*
%TO.C,FB307*%
X126415900Y13376500D03*
X124840900Y13376500D03*
%TD*%
D13*
%TO.C,R429*%
X111595600Y62484000D03*
X113245600Y62484000D03*
%TD*%
D38*
%TO.C,U202*%
X21869400Y15468600D03*
X21869400Y27406600D03*
D39*
X17487900Y21437600D03*
X26250900Y21437600D03*
X17487900Y25882600D03*
X17487900Y16992600D03*
%TD*%
D17*
%TO.C,C312*%
X104406400Y10388600D03*
X105956400Y10388600D03*
%TD*%
%TO.C,C307*%
X63779400Y11887200D03*
X65329400Y11887200D03*
%TD*%
D40*
%TO.C,L204*%
X11328400Y36631100D03*
X11328400Y38756100D03*
%TD*%
D17*
%TO.C,C320*%
X145046400Y11852500D03*
X146596400Y11852500D03*
%TD*%
D12*
%TO.C,R405*%
X8406400Y18008600D03*
X6756400Y18008600D03*
%TD*%
D13*
%TO.C,R423*%
X102881401Y97129600D03*
X104531401Y97129600D03*
%TD*%
D31*
%TO.C,C115*%
X138956400Y60394600D03*
X138956400Y65334600D03*
%TD*%
D14*
%TO.C,R304*%
X59543400Y18491200D03*
X59543400Y20141200D03*
%TD*%
D22*
%TO.C,U207*%
X46980400Y25120600D03*
X46980400Y23850600D03*
X46980400Y22580600D03*
X46980400Y21310600D03*
X52130400Y21310600D03*
X52130400Y22580600D03*
X52130400Y23850600D03*
X52130400Y25120600D03*
%TD*%
D28*
%TO.C,R418*%
X98258953Y97919600D03*
X98258953Y96269600D03*
%TD*%
D16*
%TO.C,C221*%
X49100600Y29919400D03*
X47550600Y29919400D03*
%TD*%
D12*
%TO.C,R109*%
X111721400Y30327600D03*
X110071400Y30327600D03*
%TD*%
D24*
%TO.C,D306*%
X159664400Y8610600D03*
X158704400Y8610600D03*
%TD*%
D41*
%TO.C,C401*%
X8976400Y29514800D03*
X7076400Y29514800D03*
%TD*%
D13*
%TO.C,R229*%
X17488400Y55981600D03*
X19138400Y55981600D03*
%TD*%
D29*
%TO.C,FB306*%
X98450400Y23308000D03*
X98450400Y21733000D03*
%TD*%
D25*
%TO.C,C103*%
X135727400Y96603100D03*
X135727400Y98153100D03*
%TD*%
D12*
%TO.C,R422*%
X115072401Y99923600D03*
X113422401Y99923600D03*
%TD*%
%TO.C,R404*%
X8406400Y20548600D03*
X6756400Y20548600D03*
%TD*%
D16*
%TO.C,C218*%
X45123400Y14798600D03*
X43573400Y14798600D03*
%TD*%
D17*
%TO.C,C311*%
X84086400Y10328500D03*
X85636400Y10328500D03*
%TD*%
D36*
%TO.C,L302*%
X84052900Y8677500D03*
X86177900Y8677500D03*
%TD*%
D12*
%TO.C,R227*%
X19138400Y54457600D03*
X17488400Y54457600D03*
%TD*%
D35*
%TO.C,L102*%
X149313900Y107416600D03*
X139026900Y107416600D03*
%TD*%
D12*
%TO.C,R224*%
X39331400Y14706600D03*
X37681400Y14706600D03*
%TD*%
D26*
%TO.C,FB305*%
X105968900Y13376500D03*
X104393900Y13376500D03*
%TD*%
D13*
%TO.C,R103*%
X130523400Y94335600D03*
X132173400Y94335600D03*
%TD*%
D42*
%TO.C,U106*%
X156219400Y71004600D03*
X156219400Y65454600D03*
X161069400Y71004600D03*
X161069400Y65454600D03*
D43*
X149494400Y70769600D03*
X149494400Y68229600D03*
X149494400Y65689600D03*
%TD*%
D16*
%TO.C,C301*%
X65271400Y14998200D03*
X63721400Y14998200D03*
%TD*%
D18*
%TO.C,R231*%
X39776400Y11724100D03*
X39776400Y8799100D03*
%TD*%
D12*
%TO.C,R420*%
X115181900Y77921100D03*
X113531900Y77921100D03*
%TD*%
D16*
%TO.C,C220*%
X19088400Y57505600D03*
X17538400Y57505600D03*
%TD*%
D13*
%TO.C,R437*%
X91845953Y100281600D03*
X93495953Y100281600D03*
%TD*%
D44*
%TO.C,D202*%
X13233400Y8765600D03*
X13233400Y9725600D03*
%TD*%
D29*
%TO.C,FB205*%
X37617400Y23079100D03*
X37617400Y21504100D03*
%TD*%
D21*
%TO.C,C302*%
X59543400Y23139200D03*
X59543400Y21589200D03*
%TD*%
D12*
%TO.C,R203*%
X20408400Y12293600D03*
X18758400Y12293600D03*
%TD*%
D14*
%TO.C,R116*%
X11379200Y9436600D03*
X11379200Y11086600D03*
%TD*%
D12*
%TO.C,R414*%
X115028953Y105130600D03*
X113378953Y105130600D03*
%TD*%
D14*
%TO.C,R436*%
X95210953Y100853600D03*
X95210953Y102503600D03*
%TD*%
D17*
%TO.C,C309*%
X104406400Y11852500D03*
X105956400Y11852500D03*
%TD*%
D13*
%TO.C,R432*%
X6744200Y26974800D03*
X8394200Y26974800D03*
%TD*%
D36*
%TO.C,L303*%
X104372900Y8737600D03*
X106497900Y8737600D03*
%TD*%
D13*
%TO.C,R426*%
X111667600Y75986000D03*
X113317600Y75986000D03*
%TD*%
D21*
%TO.C,C104*%
X115468400Y36563600D03*
X115468400Y35013600D03*
%TD*%
D16*
%TO.C,C119*%
X99685400Y74523600D03*
X98135400Y74523600D03*
%TD*%
D12*
%TO.C,R107*%
X86229400Y83540600D03*
X84579400Y83540600D03*
%TD*%
D36*
%TO.C,L203*%
X24743900Y30242100D03*
X26868900Y30242100D03*
%TD*%
D45*
%TO.C,U107*%
X127659400Y59866600D03*
X127659400Y65416600D03*
X122809400Y59866600D03*
X122809400Y65416600D03*
D46*
X134384400Y60101600D03*
X134384400Y65181600D03*
%TD*%
D12*
%TO.C,R112*%
X143224400Y82224600D03*
X141574400Y82224600D03*
%TD*%
D19*
%TO.C,U204*%
X44602400Y21980600D03*
X43332400Y21980600D03*
X42062400Y21980600D03*
X40792400Y21980600D03*
X40792400Y16830600D03*
X42062400Y16830600D03*
X43332400Y16830600D03*
X44602400Y16830600D03*
%TD*%
D21*
%TO.C,C207*%
X20472400Y44987100D03*
X20472400Y43437100D03*
%TD*%
D25*
%TO.C,C201*%
X14503400Y8737600D03*
X14503400Y10287600D03*
%TD*%
D22*
%TO.C,U108*%
X90989400Y75746600D03*
X90989400Y74476600D03*
X90989400Y73206600D03*
X90989400Y71936600D03*
X96139400Y71936600D03*
X96139400Y73206600D03*
X96139400Y74476600D03*
X96139400Y75746600D03*
%TD*%
D29*
%TO.C,FB310*%
X139217400Y23181000D03*
X139217400Y21606000D03*
%TD*%
D17*
%TO.C,C323*%
X145046400Y10328500D03*
X146596400Y10328500D03*
%TD*%
D13*
%TO.C,R425*%
X116937600Y74843000D03*
X118587600Y74843000D03*
%TD*%
D17*
%TO.C,C322*%
X124853400Y10328500D03*
X126403400Y10328500D03*
%TD*%
D14*
%TO.C,R306*%
X99954625Y18584784D03*
X99954625Y20234784D03*
%TD*%
D12*
%TO.C,R415*%
X115028953Y103606600D03*
X113378953Y103606600D03*
%TD*%
D36*
%TO.C,L305*%
X145012900Y8677500D03*
X147137900Y8677500D03*
%TD*%
D24*
%TO.C,D305*%
X139217400Y8610600D03*
X138257400Y8610600D03*
%TD*%
D18*
%TO.C,R308*%
X82194400Y11724100D03*
X82194400Y8799100D03*
%TD*%
D26*
%TO.C,FB208*%
X49113100Y31443400D03*
X47538100Y31443400D03*
%TD*%
D16*
%TO.C,C225*%
X49060400Y26898600D03*
X47510400Y26898600D03*
%TD*%
D28*
%TO.C,R222*%
X37617400Y19814600D03*
X37617400Y18164600D03*
%TD*%
D14*
%TO.C,R221*%
X39141400Y18164600D03*
X39141400Y19814600D03*
%TD*%
D47*
%TO.C,Q102*%
X144096400Y99029600D03*
X144096400Y95979600D03*
X147446400Y99029600D03*
X147446400Y95979600D03*
D48*
X139471400Y99784600D03*
X139471400Y95224600D03*
%TD*%
D28*
%TO.C,R228*%
X38379400Y32168600D03*
X38379400Y30518600D03*
%TD*%
D12*
%TO.C,R212*%
X16979400Y52044600D03*
X15329400Y52044600D03*
%TD*%
D13*
%TO.C,R114*%
X122891400Y71556600D03*
X124541400Y71556600D03*
%TD*%
D18*
%TO.C,R321*%
X100101400Y11724100D03*
X100101400Y8799100D03*
%TD*%
D22*
%TO.C,U103*%
X108229400Y35788600D03*
X108229400Y34518600D03*
X108229400Y33248600D03*
X108229400Y31978600D03*
X113379400Y31978600D03*
X113379400Y33248600D03*
X113379400Y34518600D03*
X113379400Y35788600D03*
%TD*%
D49*
%TO.C,U104*%
X144699400Y80040600D03*
X142399400Y80040600D03*
D50*
X142399400Y73740600D03*
D49*
X140099400Y80040600D03*
%TD*%
D19*
%TO.C,U201*%
X25806400Y43612100D03*
X24536400Y43612100D03*
X23266400Y43612100D03*
X21996400Y43612100D03*
X21996400Y38462100D03*
X23266400Y38462100D03*
X24536400Y38462100D03*
X25806400Y38462100D03*
%TD*%
D12*
%TO.C,R409*%
X104452953Y106400600D03*
X102802953Y106400600D03*
%TD*%
D22*
%TO.C,U205*%
X10387800Y57455100D03*
X10387800Y56185100D03*
X10387800Y54915100D03*
X10387800Y53645100D03*
X15537800Y53645100D03*
X15537800Y54915100D03*
X15537800Y56185100D03*
X15537800Y57455100D03*
%TD*%
D29*
%TO.C,FB312*%
X159410400Y23435000D03*
X159410400Y21860000D03*
%TD*%
D16*
%TO.C,C210*%
X14516400Y26009600D03*
X12966400Y26009600D03*
%TD*%
D28*
%TO.C,R206*%
X18077800Y70472100D03*
X18077800Y68822100D03*
%TD*%
D12*
%TO.C,R113*%
X143224400Y83748600D03*
X141574400Y83748600D03*
%TD*%
D47*
%TO.C,Q101*%
X145350400Y91653100D03*
X145350400Y88603100D03*
X148700400Y91653100D03*
X148700400Y88603100D03*
D48*
X140725400Y92408100D03*
X140725400Y87848100D03*
%TD*%
D18*
%TO.C,R322*%
X140880400Y11616100D03*
X140880400Y8691100D03*
%TD*%
D36*
%TO.C,L304*%
X124819900Y8677500D03*
X126944900Y8677500D03*
%TD*%
D19*
%TO.C,U301*%
X65004400Y22018200D03*
X63734400Y22018200D03*
X62464400Y22018200D03*
X61194400Y22018200D03*
X61194400Y16868200D03*
X62464400Y16868200D03*
X63734400Y16868200D03*
X65004400Y16868200D03*
%TD*%
D12*
%TO.C,R230*%
X52285400Y28422600D03*
X50635400Y28422600D03*
%TD*%
D26*
%TO.C,FB309*%
X146608900Y13376500D03*
X145033900Y13376500D03*
%TD*%
D18*
%TO.C,R320*%
X79908400Y11724100D03*
X79908400Y8799100D03*
%TD*%
D29*
%TO.C,FB308*%
X118897400Y23308000D03*
X118897400Y21733000D03*
%TD*%
D28*
%TO.C,R416*%
X99782953Y97919600D03*
X99782953Y96269600D03*
%TD*%
D14*
%TO.C,R108*%
X137190400Y96558600D03*
X137190400Y98208600D03*
%TD*%
D17*
%TO.C,C324*%
X165493400Y10328500D03*
X167043400Y10328500D03*
%TD*%
D16*
%TO.C,C118*%
X99698400Y71983600D03*
X98148400Y71983600D03*
%TD*%
D51*
%TO.C,C114*%
X144932400Y65690600D03*
X144932400Y60750600D03*
%TD*%
D17*
%TO.C,C120*%
X87454400Y71983600D03*
X89004400Y71983600D03*
%TD*%
D13*
%TO.C,R302*%
X83954400Y23917500D03*
X85604400Y23917500D03*
%TD*%
D26*
%TO.C,FB201*%
X26339900Y34941100D03*
X24764900Y34941100D03*
%TD*%
D12*
%TO.C,R407*%
X107946600Y73065000D03*
X106296600Y73065000D03*
%TD*%
D36*
%TO.C,L301*%
X63779400Y8712200D03*
X65904400Y8712200D03*
%TD*%
D52*
%TO.C,C403*%
X91720953Y102059600D03*
X93620953Y102059600D03*
%TD*%
D17*
%TO.C,C117*%
X95148400Y69697600D03*
X96698400Y69697600D03*
%TD*%
D16*
%TO.C,C313*%
X126403400Y14900500D03*
X124853400Y14900500D03*
%TD*%
%TO.C,C315*%
X146596400Y14900500D03*
X145046400Y14900500D03*
%TD*%
D25*
%TO.C,C111*%
X121430400Y70019600D03*
X121430400Y71569600D03*
%TD*%
D12*
%TO.C,R207*%
X15092800Y66472100D03*
X13442800Y66472100D03*
%TD*%
D14*
%TO.C,R204*%
X20472400Y40339100D03*
X20472400Y41989100D03*
%TD*%
D34*
%TO.C,U407*%
X115030600Y64135000D03*
X115030600Y65405000D03*
X115030600Y66675000D03*
X115030600Y67945000D03*
X109880600Y67945000D03*
X109880600Y66675000D03*
X109880600Y65405000D03*
X109880600Y64135000D03*
%TD*%
D16*
%TO.C,C317*%
X167043400Y14900500D03*
X165493400Y14900500D03*
%TD*%
D14*
%TO.C,R217*%
X7391400Y70650600D03*
X7391400Y72300600D03*
%TD*%
D18*
%TO.C,R319*%
X59588400Y11724100D03*
X59588400Y8799100D03*
%TD*%
D17*
%TO.C,C308*%
X84086400Y11852500D03*
X85636400Y11852500D03*
%TD*%
D19*
%TO.C,U304*%
X125786200Y21983500D03*
X124516200Y21983500D03*
X123246200Y21983500D03*
X121976200Y21983500D03*
X121976200Y16833500D03*
X123246200Y16833500D03*
X124516200Y16833500D03*
X125786200Y16833500D03*
%TD*%
D11*
%TO.C,C203*%
X38330400Y28676600D03*
X35380400Y28676600D03*
%TD*%
D18*
%TO.C,R307*%
X61874400Y11724100D03*
X61874400Y8799100D03*
%TD*%
D29*
%TO.C,FB202*%
X18948400Y44999600D03*
X18948400Y43424600D03*
%TD*%
D21*
%TO.C,C316*%
X140741400Y23168500D03*
X140741400Y21618500D03*
%TD*%
D12*
%TO.C,R424*%
X104531401Y98653600D03*
X102881401Y98653600D03*
%TD*%
D53*
%TO.C,L201*%
X18818400Y9499600D03*
X21618400Y9499600D03*
%TD*%
D24*
%TO.C,D203*%
X38224400Y8610600D03*
X37264400Y8610600D03*
%TD*%
D14*
%TO.C,R315*%
X160934400Y18647500D03*
X160934400Y20297500D03*
%TD*%
D25*
%TO.C,C223*%
X36855400Y30568600D03*
X36855400Y32118600D03*
%TD*%
D16*
%TO.C,C217*%
X18199400Y72237600D03*
X16649400Y72237600D03*
%TD*%
D12*
%TO.C,R430*%
X107946600Y67945000D03*
X106296600Y67945000D03*
%TD*%
D26*
%TO.C,FB207*%
X19100900Y59029600D03*
X17525900Y59029600D03*
%TD*%
D15*
%TO.C,D201*%
X11395300Y64760100D03*
X11395300Y66660100D03*
X9520300Y65710100D03*
%TD*%
D17*
%TO.C,C209*%
X24777400Y33417100D03*
X26327400Y33417100D03*
%TD*%
D12*
%TO.C,R201*%
X35458400Y30581600D03*
X33808400Y30581600D03*
%TD*%
D13*
%TO.C,R101*%
X84579400Y80238600D03*
X86229400Y80238600D03*
%TD*%
D19*
%TO.C,U305*%
X146087400Y21983500D03*
X144817400Y21983500D03*
X143547400Y21983500D03*
X142277400Y21983500D03*
X142277400Y16833500D03*
X143547400Y16833500D03*
X144817400Y16833500D03*
X146087400Y16833500D03*
%TD*%
D21*
%TO.C,C304*%
X79908400Y23168500D03*
X79908400Y21618500D03*
%TD*%
D13*
%TO.C,R215*%
X16490800Y67361100D03*
X18140800Y67361100D03*
%TD*%
D21*
%TO.C,C306*%
X99974400Y23295500D03*
X99974400Y21745500D03*
%TD*%
D13*
%TO.C,R401*%
X6947400Y31292800D03*
X8597400Y31292800D03*
%TD*%
D16*
%TO.C,C213*%
X9817400Y34137600D03*
X8267400Y34137600D03*
%TD*%
%TO.C,C205*%
X15042800Y64948100D03*
X13492800Y64948100D03*
%TD*%
%TO.C,C222*%
X41567400Y26644600D03*
X40017400Y26644600D03*
%TD*%
D54*
%TO.C,FB101*%
X87269699Y95288350D03*
X93969701Y90588350D03*
%TD*%
D13*
%TO.C,R211*%
X47460400Y28422600D03*
X49110400Y28422600D03*
%TD*%
D28*
%TO.C,R106*%
X129187400Y98203100D03*
X129187400Y96553100D03*
%TD*%
D13*
%TO.C,R427*%
X116929600Y63881000D03*
X118579600Y63881000D03*
%TD*%
D26*
%TO.C,FB311*%
X167055900Y13376500D03*
X165480900Y13376500D03*
%TD*%
D30*
%TO.C,FB103*%
X106679900Y28803600D03*
X108254900Y28803600D03*
%TD*%
D16*
%TO.C,C206*%
X26327400Y36465100D03*
X24777400Y36465100D03*
%TD*%
D22*
%TO.C,U402*%
X106386953Y107416600D03*
X106386953Y106146600D03*
X106386953Y104876600D03*
X106386953Y103606600D03*
X111536953Y103606600D03*
X111536953Y104876600D03*
X111536953Y106146600D03*
X111536953Y107416600D03*
%TD*%
D55*
%TO.C,U206*%
X40476400Y31978600D03*
X40476400Y30708600D03*
X40476400Y29438600D03*
X40476400Y28168600D03*
X45426400Y28168600D03*
X45426400Y29438600D03*
X45426400Y30708600D03*
X45426400Y31978600D03*
%TD*%
D28*
%TO.C,R412*%
X115718900Y89033100D03*
X115718900Y87383100D03*
%TD*%
D13*
%TO.C,R310*%
X124467400Y23917500D03*
X126117400Y23917500D03*
%TD*%
D22*
%TO.C,U403*%
X106338401Y101447600D03*
X106338401Y100177600D03*
X106338401Y98907600D03*
X106338401Y97637600D03*
X111488401Y97637600D03*
X111488401Y98907600D03*
X111488401Y100177600D03*
X111488401Y101447600D03*
%TD*%
D17*
%TO.C,C101*%
X87134400Y98018600D03*
X88684400Y98018600D03*
%TD*%
D56*
%TO.C,U105*%
X121416400Y73842600D03*
X123716400Y73842600D03*
D57*
X123716400Y80142600D03*
D56*
X126016400Y73842600D03*
%TD*%
D13*
%TO.C,R438*%
X93623953Y98757600D03*
X95273953Y98757600D03*
%TD*%
D25*
%TO.C,C109*%
X120167400Y35013600D03*
X120167400Y36563600D03*
%TD*%
D58*
%TO.C,D101*%
X154212400Y88366600D03*
X158512400Y88366600D03*
%TD*%
D21*
%TO.C,C314*%
X120421400Y23295500D03*
X120421400Y21745500D03*
%TD*%
D18*
%TO.C,R326*%
X120687400Y11616100D03*
X120687400Y8691100D03*
%TD*%
D59*
%TO.C,L202*%
X14503400Y31724600D03*
X11353400Y31724600D03*
%TD*%
D26*
%TO.C,FB303*%
X85648900Y13376500D03*
X84073900Y13376500D03*
%TD*%
D13*
%TO.C,R219*%
X40856400Y23942600D03*
X42506400Y23942600D03*
%TD*%
D40*
%TO.C,L103*%
X121818400Y34980100D03*
X121818400Y37105100D03*
%TD*%
D51*
%TO.C,C113*%
X129304400Y80122600D03*
X129304400Y75182600D03*
%TD*%
D60*
%TO.C,C202*%
X16535400Y8737600D03*
X16535400Y11687600D03*
%TD*%
D17*
%TO.C,C215*%
X12966400Y38709600D03*
X14516400Y38709600D03*
%TD*%
D19*
%TO.C,U306*%
X166375400Y21983500D03*
X165105400Y21983500D03*
X163835400Y21983500D03*
X162565400Y21983500D03*
X162565400Y16833500D03*
X163835400Y16833500D03*
X165105400Y16833500D03*
X166375400Y16833500D03*
%TD*%
M02*
