M48
; DRILL file KiCad 10.0.3 date 2026-08-03T10:03:54
; FORMAT={-:-/ absolute / metric / decimal}
; #@! TF.CreationDate,2026-08-03T10:03:54-07:00
; #@! TF.GenerationSoftware,Kicad,Pcbnew,10.0.3
; #@! TF.FileFunction,Plated,1,6,PTH
FMAT,2
METRIC
; #@! TA.AperFunction,Plated,PTH,ViaDrill
T1C0.300
; #@! TA.AperFunction,Plated,PTH,ComponentDrill
T2C0.500
; #@! TA.AperFunction,Plated,PTH,ComponentDrill
T3C0.508
; #@! TA.AperFunction,Plated,PTH,ComponentDrill
T4C1.000
; #@! TA.AperFunction,Plated,PTH,ComponentDrill
T5C1.200
; #@! TA.AperFunction,Plated,PTH,ComponentDrill
T6C1.778
; #@! TA.AperFunction,Plated,PTH,ComponentDrill
T7C3.200
%
G90
G05
T1
X3.962Y31.039
X4.997Y70.523
X5.74Y31.852
X5.842Y21.692
X5.878Y10.094
X5.981Y67.171
X6.147Y30.124
X6.947Y55.982
X7.41Y71.285
X7.645Y67.285
X7.722Y27.635
X8.153Y37.948
X8.28Y34.9
X9.169Y18.009
X10.226Y10.983
X10.439Y28.677
X11.328Y23.47
X11.836Y53.569
X12.09Y26.01
X12.51Y64.76
X13.233Y10.262
X13.487Y55.728
X13.513Y51.714
X13.741Y34.265
X13.945Y49.888
X15.265Y38.583
X15.792Y66.345
X15.792Y64.948
X16.662Y73.127
X18.078Y69.52
X18.205Y66.599
X19.075Y72.238
X19.075Y59.792
X19.075Y45.822
X19.602Y67.869
X19.837Y57.506
X19.964Y55.982
X19.964Y54.458
X20.472Y45.949
X23.266Y50.394
X23.266Y44.933
X27.03Y36.382
X27.03Y34.858
X27.03Y33.334
X27.03Y31.81
X27.076Y45.568
X27.584Y30.201
X28.219Y32.36
X31.775Y33.757
X32.029Y52.68
X33.045Y32.106
X34.188Y28.677
X35.966Y26.645
X36.601Y8.611
X37.617Y23.816
X37.617Y17.212
X37.998Y52.68
X39.141Y23.816
X40.157Y23.943
X42.062Y23.216
X42.316Y26.645
X43.967Y52.68
X45.872Y14.799
X45.872Y13.275
X48.412Y21.311
X48.539Y22.581
X49.809Y31.443
X49.824Y29.919
X49.936Y52.68
X51.587Y53.823
X53.619Y51.283
X53.619Y22.835
X55.588Y23.381
X56.314Y8.611
X58.019Y24.015
X58.826Y16.485
X59.543Y24.015
X61.316Y24.13
X66.02Y14.998
X66.192Y13.411
X66.256Y23.888
X66.319Y11.887
X66.319Y10.363
X66.7Y8.712
X76.38Y8.611
X78.339Y23.98
X79.863Y23.98
X86.34Y14.963
X86.385Y23.918
X86.512Y13.377
X86.639Y11.852
X86.639Y10.329
X87.02Y8.678
X87.055Y82.017
X87.182Y80.239
X87.401Y71.349
X87.655Y113.132
X88.544Y112.37
X89.56Y98.019
X89.687Y71.937
X89.754Y73.207
X89.814Y105.639
X89.877Y102.302
X90.195Y68.647
X90.195Y63.44
X90.957Y90.526
X92.735Y63.602
X92.925Y102.949
X94.082Y111.608
X94.082Y75.743
X94.259Y69.698
X94.77Y105.743
X95.274Y97.639
X96.291Y101.956
X96.802Y8.611
X97.18Y90.526
X97.497Y103.33
X97.688Y69.698
X97.815Y66.269
X98.196Y102.337
X98.196Y75.413
X98.196Y71.095
X98.259Y95.414
X98.634Y23.955
X100.158Y23.955
X100.545Y96.345
X100.549Y74.604
X100.549Y71.937
X101.434Y100.282
X101.625Y106.274
X102.006Y102.337
X102.803Y103.924
X102.817Y96.241
X102.944Y99.67
X104.8Y100.178
X105.943Y30.328
X105.943Y28.804
X106.635Y14.938
X106.702Y89.478
X106.705Y23.79
X106.737Y84.652
X106.807Y13.351
X106.832Y33.249
X106.934Y11.827
X106.934Y10.303
X107.083Y85.668
X107.118Y79.572
X107.315Y8.652
X107.77Y97.638
X107.809Y106.869
X107.848Y109.83
X107.921Y70.652
X107.946Y103.607
X108.429Y74.462
X108.865Y69.469
X109.881Y63.246
X110.131Y88.208
X110.134Y101.448
X110.134Y100.178
X110.134Y89.51
X110.232Y107.417
X111.186Y70.612
X111.405Y66.675
X112.325Y80.842
X113.564Y66.675
X113.814Y90.113
X113.849Y84.017
X115.031Y75.222
X115.072Y100.749
X115.072Y97.574
X115.211Y85.668
X115.468Y37.313
X115.719Y89.986
X115.754Y78.683
X115.982Y103.607
X116.383Y67.92
X116.557Y71.795
X116.93Y63.056
X116.938Y75.986
X116.992Y37.44
X117.503Y8.611
X118.643Y37.313
X118.954Y23.955
X120.167Y37.313
X120.478Y23.955
X121.43Y69.017
X121.818Y37.821
X122.456Y66.335
X122.456Y63.835
X122.456Y61.335
X122.707Y80.143
X124.485Y80.112
X125.367Y70.033
X125.456Y66.335
X125.456Y63.835
X125.456Y61.335
X126.955Y14.938
X127.025Y23.79
X127.127Y13.351
X127.254Y11.827
X127.254Y10.303
X127.635Y8.652
X128.456Y66.335
X128.456Y63.835
X128.456Y61.335
X129.189Y95.733
X129.304Y81.717
X129.697Y94.336
X130.704Y95.742
X133.117Y99.537
X133.241Y86.264
X134.133Y95.092
X136.811Y80.574
X137.693Y8.611
X138.836Y75.794
X138.836Y71.984
X138.926Y58.866
X138.956Y63.658
X139.274Y23.955
X140.106Y76.429
X140.106Y70.714
X140.798Y23.955
X140.835Y65.335
X140.875Y83.749
X142.011Y76.429
X142.011Y70.714
X143.916Y76.429
X143.916Y70.714
X144.685Y84.511
X144.922Y67.592
X144.925Y63.785
X145.56Y98.71
X145.56Y96.17
X145.814Y91.344
X145.814Y88.804
X145.821Y75.794
X145.821Y71.349
X147.178Y60.681
X147.218Y23.918
X147.275Y14.938
X147.447Y13.351
X147.574Y11.827
X147.574Y10.303
X147.955Y8.652
X148.1Y98.71
X148.1Y96.17
X148.354Y91.344
X148.354Y88.804
X155.569Y71.73
X155.569Y69.23
X155.569Y66.73
X155.569Y64.23
X158.069Y8.611
X158.569Y71.73
X158.569Y69.23
X158.569Y66.73
X158.569Y64.23
X159.594Y23.955
X161.118Y23.955
X161.569Y71.73
X161.569Y69.23
X161.569Y66.73
X161.569Y64.23
X167.538Y23.79
X167.595Y14.938
X167.767Y13.351
X167.894Y11.827
X167.894Y10.303
X168.275Y8.652
T2
X3.962Y78.588
X84.861Y68.682
X84.988Y86.335
X85.242Y65.761
X95.275Y87.732
X98.196Y78.842
X102.006Y77.572
X102.387Y73.127
X105.181Y90.907
T3
X16.789Y27.153
X16.789Y24.613
X16.789Y18.263
X16.789Y15.723
X18.059Y28.042
X18.059Y14.834
X19.329Y28.042
X19.329Y14.834
X20.599Y22.073
X20.599Y20.803
X21.234Y24.613
X21.234Y18.263
X22.504Y24.613
X22.504Y18.263
X24.409Y28.042
X24.409Y22.073
X24.409Y20.803
X24.409Y14.834
X25.679Y28.042
X25.679Y14.834
X26.949Y26.518
X26.949Y24.613
X26.949Y22.708
X26.949Y20.168
X26.949Y18.263
X26.949Y16.358
T4
X1.93Y14.122
X4.279Y28.219
X4.279Y25.679
X4.279Y23.139
X4.279Y20.599
X4.279Y18.059
X4.47Y14.122
X7.01Y14.122
X11.836Y76.606
X12.09Y44.298
X32.156Y9.754
X60.604Y46.076
X62.636Y31.979
X81.848Y95.479
X81.848Y92.939
X81.848Y90.399
X81.848Y87.859
X81.848Y85.319
X81.848Y82.779
X81.848Y80.239
X81.848Y77.699
X81.848Y75.159
X81.848Y72.619
X81.848Y70.079
X81.848Y67.539
X82.321Y31.979
X114.808Y60.554
X122.446Y103.028
X122.446Y98.028
X122.446Y91.344
X122.446Y86.344
X126.136Y31.979
X130.581Y107.544
X169.951Y97.384
X171.856Y31.979
T5
X34.769Y37.706
X49.769Y37.706
X138.45Y88.875
X168.93Y88.875
T6
X153.987Y95.25
X157.95Y95.25
T7
X5.08Y106.68
X5.08Y4.572
X23.428Y102.464
X23.428Y60.554
X27.94Y4.572
X50.8Y4.572
X71.12Y4.572
X84.388Y102.464
X84.388Y60.554
X91.44Y4.572
X111.76Y4.572
X132.08Y4.572
X152.4Y4.572
X172.72Y106.68
X172.72Y4.572
M30
