%TF.GenerationSoftware,KiCad,Pcbnew,10.0.3*%
%TF.CreationDate,2026-08-03T10:59:15-07:00*%
%TF.ProjectId,ocxo_mount,6f63786f-5f6d-46f7-956e-742e6b696361,A*%
%TF.SameCoordinates,PX8841978PY791ddc0*%
%TF.FileFunction,Copper,L1,Top*%
%TF.FilePolarity,Positive*%
%FSLAX46Y46*%
G04 Gerber Fmt 4.6, Leading zero omitted, Abs format (unit mm)*
G04 Created by KiCad (PCBNEW 10.0.3) date 2026-08-03 10:59:15*
%MOMM*%
%LPD*%
G01*
G04 APERTURE LIST*
%TA.AperFunction,ComponentPad*%
%ADD10C,3.600000*%
%TD*%
%TA.AperFunction,ConnectorPad*%
%ADD11C,6.350000*%
%TD*%
%TA.AperFunction,ComponentPad*%
%ADD12R,1.500000X1.500000*%
%TD*%
%TA.AperFunction,ComponentPad*%
%ADD13C,1.500000*%
%TD*%
G04 APERTURE END LIST*
D10*
%TO.P,M8,1,1_1*%
%TO.N,GND*%
X4445000Y4445000D03*
D11*
X4445000Y4445000D03*
%TD*%
D10*
%TO.P,M5,1,1_1*%
%TO.N,GND*%
X65405000Y4445000D03*
D11*
X65405000Y4445000D03*
%TD*%
D12*
%TO.P,J2,1,Pin_1_1*%
%TO.N,/+24VDC*%
X12192000Y11430000D03*
D13*
%TO.P,J2,2,Pin_2_2*%
%TO.N,/POWER_GND*%
X12192000Y13970000D03*
%TO.P,J2,3,Pin_3_3*%
%TO.N,/HEATER_POWER_MONITOR*%
X12192000Y16510000D03*
%TO.P,J2,4,Pin_4_4*%
%TO.N,/VARACTOR_MONITOR*%
X12192000Y19050000D03*
%TO.P,J2,5,Pin_5_5*%
%TO.N,/AGC_MONITOR*%
X12192000Y21590000D03*
%TO.P,J2,6,Pin_6_6*%
%TO.N,/10MHZ_SINE_OUT*%
X12192000Y24130000D03*
%TO.P,J2,7,Pin_7_7*%
%TO.N,/10MHZ_SINE_RETURN*%
X12192000Y26670000D03*
%TO.P,J2,8,Pin_8_8*%
%TO.N,/+5.00VREF_OUT*%
X12192000Y29210000D03*
%TO.P,J2,9,Pin_9_9*%
%TO.N,/FREQ_CTL_IN*%
X12192000Y31750000D03*
%TO.P,J2,10,Pin_10_10*%
%TO.N,GND*%
X12192000Y34290000D03*
%TO.P,J2,11,Pin_11_11*%
%TO.N,/AMPL_CTL_IN*%
X12192000Y36830000D03*
%TO.P,J2,12,Pin_12_12*%
%TO.N,/TEMP_CTL_IN*%
X12192000Y39370000D03*
%TD*%
D10*
%TO.P,M1,1,1_1*%
%TO.N,GND*%
X23495000Y46355000D03*
D11*
X23495000Y46355000D03*
%TD*%
D10*
%TO.P,M2,1,1_1*%
%TO.N,GND*%
X23495000Y4445000D03*
D11*
X23495000Y4445000D03*
%TD*%
D10*
%TO.P,M4,1,1_1*%
%TO.N,GND*%
X46355000Y46355000D03*
D11*
X46355000Y46355000D03*
%TD*%
D10*
%TO.P,M3,1,1_1*%
%TO.N,GND*%
X46355000Y4445000D03*
D11*
X46355000Y4445000D03*
%TD*%
D10*
%TO.P,M7,1,1_1*%
%TO.N,GND*%
X65405000Y46355000D03*
D11*
X65405000Y46355000D03*
%TD*%
D12*
%TO.P,J1,1,Pin_1_1*%
%TO.N,/+24VDC*%
X6985000Y11430000D03*
D13*
%TO.P,J1,2,Pin_2_2*%
%TO.N,/POWER_GND*%
X6985000Y13970000D03*
%TO.P,J1,3,Pin_3_3*%
%TO.N,/HEATER_POWER_MONITOR*%
X6985000Y16510000D03*
%TO.P,J1,4,Pin_4_4*%
%TO.N,/VARACTOR_MONITOR*%
X6985000Y19050000D03*
%TO.P,J1,5,Pin_5_5*%
%TO.N,/AGC_MONITOR*%
X6985000Y21590000D03*
%TO.P,J1,6,Pin_6_6*%
%TO.N,/10MHZ_SINE_OUT*%
X6985000Y24130000D03*
%TO.P,J1,7,Pin_7_7*%
%TO.N,/10MHZ_SINE_RETURN*%
X6985000Y26670000D03*
%TO.P,J1,8,Pin_8_8*%
%TO.N,/+5.00VREF_OUT*%
X6985000Y29210000D03*
%TO.P,J1,9,Pin_9_9*%
%TO.N,/FREQ_CTL_IN*%
X6985000Y31750000D03*
%TO.P,J1,10,Pin_10_10*%
%TO.N,GND*%
X6985000Y34290000D03*
%TO.P,J1,11,Pin_11_11*%
%TO.N,/AMPL_CTL_IN*%
X6985000Y36830000D03*
%TO.P,J1,12,Pin_12_12*%
%TO.N,/TEMP_CTL_IN*%
X6985000Y39370000D03*
%TD*%
D10*
%TO.P,M6,1,1_1*%
%TO.N,GND*%
X4445000Y46355000D03*
D11*
X4445000Y46355000D03*
%TD*%
%TA.AperFunction,Conductor*%
%TO.N,GND*%
G36*
X69292539Y50279815D02*
G01*
X69338294Y50227011D01*
X69349500Y50175500D01*
X69349500Y624500D01*
X69329815Y557461D01*
X69277011Y511706D01*
X69225500Y500500D01*
X624500Y500500D01*
X557461Y520185D01*
X511706Y572989D01*
X500500Y624500D01*
X500500Y12199753D01*
X6034500Y12199753D01*
X6034500Y10660248D01*
X6046131Y10601771D01*
X6046132Y10601770D01*
X6090447Y10535448D01*
X6156769Y10491133D01*
X6156770Y10491132D01*
X6215247Y10479501D01*
X6215250Y10479500D01*
X6215252Y10479500D01*
X7754750Y10479500D01*
X7754751Y10479501D01*
X7769568Y10482448D01*
X7813229Y10491132D01*
X7813229Y10491133D01*
X7813231Y10491133D01*
X7879552Y10535448D01*
X7923867Y10601769D01*
X7923867Y10601771D01*
X7923868Y10601771D01*
X7935499Y10660248D01*
X7935500Y10660250D01*
X7935500Y12199751D01*
X7935499Y12199753D01*
X11241500Y12199753D01*
X11241500Y10660248D01*
X11253131Y10601771D01*
X11253132Y10601770D01*
X11297447Y10535448D01*
X11363769Y10491133D01*
X11363770Y10491132D01*
X11422247Y10479501D01*
X11422250Y10479500D01*
X11422252Y10479500D01*
X12961750Y10479500D01*
X12961751Y10479501D01*
X12976568Y10482448D01*
X13020229Y10491132D01*
X13020229Y10491133D01*
X13020231Y10491133D01*
X13086552Y10535448D01*
X13130867Y10601769D01*
X13130867Y10601771D01*
X13130868Y10601771D01*
X13142499Y10660248D01*
X13142500Y10660250D01*
X13142500Y12199751D01*
X13142499Y12199753D01*
X13130868Y12258230D01*
X13130867Y12258231D01*
X13086552Y12324553D01*
X13020230Y12368868D01*
X13020229Y12368869D01*
X12961752Y12380500D01*
X12961748Y12380500D01*
X11422252Y12380500D01*
X11422247Y12380500D01*
X11363770Y12368869D01*
X11363769Y12368868D01*
X11297447Y12324553D01*
X11253132Y12258231D01*
X11253131Y12258230D01*
X11241500Y12199753D01*
X7935499Y12199753D01*
X7923868Y12258230D01*
X7923867Y12258231D01*
X7879552Y12324553D01*
X7813230Y12368868D01*
X7813229Y12368869D01*
X7754752Y12380500D01*
X7754748Y12380500D01*
X6215252Y12380500D01*
X6215247Y12380500D01*
X6156770Y12368869D01*
X6156769Y12368868D01*
X6090447Y12324553D01*
X6046132Y12258231D01*
X6046131Y12258230D01*
X6034500Y12199753D01*
X500500Y12199753D01*
X500500Y14063621D01*
X6034500Y14063621D01*
X6034500Y13876380D01*
X6071025Y13692757D01*
X6071027Y13692749D01*
X6142676Y13519772D01*
X6142681Y13519763D01*
X6246697Y13364093D01*
X6246700Y13364089D01*
X6379088Y13231701D01*
X6379092Y13231698D01*
X6534762Y13127682D01*
X6534768Y13127679D01*
X6534769Y13127678D01*
X6707749Y13056027D01*
X6891379Y13019501D01*
X6891383Y13019500D01*
X6891384Y13019500D01*
X7078617Y13019500D01*
X7078618Y13019501D01*
X7262251Y13056027D01*
X7435231Y13127678D01*
X7590908Y13231698D01*
X7723302Y13364092D01*
X7827322Y13519769D01*
X7898973Y13692749D01*
X7935500Y13876384D01*
X7935500Y14063616D01*
X7935499Y14063621D01*
X11241500Y14063621D01*
X11241500Y13876380D01*
X11278025Y13692757D01*
X11278027Y13692749D01*
X11349676Y13519772D01*
X11349681Y13519763D01*
X11453697Y13364093D01*
X11453700Y13364089D01*
X11586088Y13231701D01*
X11586092Y13231698D01*
X11741762Y13127682D01*
X11741768Y13127679D01*
X11741769Y13127678D01*
X11914749Y13056027D01*
X12098379Y13019501D01*
X12098383Y13019500D01*
X12098384Y13019500D01*
X12285617Y13019500D01*
X12285618Y13019501D01*
X12469251Y13056027D01*
X12642231Y13127678D01*
X12797908Y13231698D01*
X12930302Y13364092D01*
X13034322Y13519769D01*
X13105973Y13692749D01*
X13142500Y13876384D01*
X13142500Y14063616D01*
X13105973Y14247251D01*
X13034322Y14420231D01*
X13034321Y14420232D01*
X13034318Y14420238D01*
X12930302Y14575908D01*
X12930299Y14575912D01*
X12797911Y14708300D01*
X12797907Y14708303D01*
X12642237Y14812319D01*
X12642228Y14812324D01*
X12469251Y14883973D01*
X12469243Y14883975D01*
X12285620Y14920500D01*
X12285616Y14920500D01*
X12098384Y14920500D01*
X12098379Y14920500D01*
X11914756Y14883975D01*
X11914748Y14883973D01*
X11741771Y14812324D01*
X11741762Y14812319D01*
X11586092Y14708303D01*
X11586088Y14708300D01*
X11453700Y14575912D01*
X11453697Y14575908D01*
X11349681Y14420238D01*
X11349676Y14420229D01*
X11278027Y14247252D01*
X11278025Y14247244D01*
X11241500Y14063621D01*
X7935499Y14063621D01*
X7898973Y14247251D01*
X7827322Y14420231D01*
X7827321Y14420232D01*
X7827318Y14420238D01*
X7723302Y14575908D01*
X7723299Y14575912D01*
X7590911Y14708300D01*
X7590907Y14708303D01*
X7435237Y14812319D01*
X7435228Y14812324D01*
X7262251Y14883973D01*
X7262243Y14883975D01*
X7078620Y14920500D01*
X7078616Y14920500D01*
X6891384Y14920500D01*
X6891379Y14920500D01*
X6707756Y14883975D01*
X6707748Y14883973D01*
X6534771Y14812324D01*
X6534762Y14812319D01*
X6379092Y14708303D01*
X6379088Y14708300D01*
X6246700Y14575912D01*
X6246697Y14575908D01*
X6142681Y14420238D01*
X6142676Y14420229D01*
X6071027Y14247252D01*
X6071025Y14247244D01*
X6034500Y14063621D01*
X500500Y14063621D01*
X500500Y16603621D01*
X6034500Y16603621D01*
X6034500Y16416380D01*
X6071025Y16232757D01*
X6071027Y16232749D01*
X6142676Y16059772D01*
X6142681Y16059763D01*
X6246697Y15904093D01*
X6246700Y15904089D01*
X6379088Y15771701D01*
X6379092Y15771698D01*
X6534762Y15667682D01*
X6534768Y15667679D01*
X6534769Y15667678D01*
X6707749Y15596027D01*
X6891379Y15559501D01*
X6891383Y15559500D01*
X6891384Y15559500D01*
X7078617Y15559500D01*
X7078618Y15559501D01*
X7262251Y15596027D01*
X7435231Y15667678D01*
X7590908Y15771698D01*
X7723302Y15904092D01*
X7827322Y16059769D01*
X7898973Y16232749D01*
X7935500Y16416384D01*
X7935500Y16603616D01*
X7935499Y16603621D01*
X11241500Y16603621D01*
X11241500Y16416380D01*
X11278025Y16232757D01*
X11278027Y16232749D01*
X11349676Y16059772D01*
X11349681Y16059763D01*
X11453697Y15904093D01*
X11453700Y15904089D01*
X11586088Y15771701D01*
X11586092Y15771698D01*
X11741762Y15667682D01*
X11741768Y15667679D01*
X11741769Y15667678D01*
X11914749Y15596027D01*
X12098379Y15559501D01*
X12098383Y15559500D01*
X12098384Y15559500D01*
X12285617Y15559500D01*
X12285618Y15559501D01*
X12469251Y15596027D01*
X12642231Y15667678D01*
X12797908Y15771698D01*
X12930302Y15904092D01*
X13034322Y16059769D01*
X13105973Y16232749D01*
X13142500Y16416384D01*
X13142500Y16603616D01*
X13105973Y16787251D01*
X13034322Y16960231D01*
X13034321Y16960232D01*
X13034318Y16960238D01*
X12930302Y17115908D01*
X12930299Y17115912D01*
X12797911Y17248300D01*
X12797907Y17248303D01*
X12642237Y17352319D01*
X12642228Y17352324D01*
X12469251Y17423973D01*
X12469243Y17423975D01*
X12285620Y17460500D01*
X12285616Y17460500D01*
X12098384Y17460500D01*
X12098379Y17460500D01*
X11914756Y17423975D01*
X11914748Y17423973D01*
X11741771Y17352324D01*
X11741762Y17352319D01*
X11586092Y17248303D01*
X11586088Y17248300D01*
X11453700Y17115912D01*
X11453697Y17115908D01*
X11349681Y16960238D01*
X11349676Y16960229D01*
X11278027Y16787252D01*
X11278025Y16787244D01*
X11241500Y16603621D01*
X7935499Y16603621D01*
X7898973Y16787251D01*
X7827322Y16960231D01*
X7827321Y16960232D01*
X7827318Y16960238D01*
X7723302Y17115908D01*
X7723299Y17115912D01*
X7590911Y17248300D01*
X7590907Y17248303D01*
X7435237Y17352319D01*
X7435228Y17352324D01*
X7262251Y17423973D01*
X7262243Y17423975D01*
X7078620Y17460500D01*
X7078616Y17460500D01*
X6891384Y17460500D01*
X6891379Y17460500D01*
X6707756Y17423975D01*
X6707748Y17423973D01*
X6534771Y17352324D01*
X6534762Y17352319D01*
X6379092Y17248303D01*
X6379088Y17248300D01*
X6246700Y17115912D01*
X6246697Y17115908D01*
X6142681Y16960238D01*
X6142676Y16960229D01*
X6071027Y16787252D01*
X6071025Y16787244D01*
X6034500Y16603621D01*
X500500Y16603621D01*
X500500Y19143621D01*
X6034500Y19143621D01*
X6034500Y18956380D01*
X6071025Y18772757D01*
X6071027Y18772749D01*
X6142676Y18599772D01*
X6142681Y18599763D01*
X6246697Y18444093D01*
X6246700Y18444089D01*
X6379088Y18311701D01*
X6379092Y18311698D01*
X6534762Y18207682D01*
X6534768Y18207679D01*
X6534769Y18207678D01*
X6707749Y18136027D01*
X6891379Y18099501D01*
X6891383Y18099500D01*
X6891384Y18099500D01*
X7078617Y18099500D01*
X7078618Y18099501D01*
X7262251Y18136027D01*
X7435231Y18207678D01*
X7590908Y18311698D01*
X7723302Y18444092D01*
X7827322Y18599769D01*
X7898973Y18772749D01*
X7935500Y18956384D01*
X7935500Y19143616D01*
X7935499Y19143621D01*
X11241500Y19143621D01*
X11241500Y18956380D01*
X11278025Y18772757D01*
X11278027Y18772749D01*
X11349676Y18599772D01*
X11349681Y18599763D01*
X11453697Y18444093D01*
X11453700Y18444089D01*
X11586088Y18311701D01*
X11586092Y18311698D01*
X11741762Y18207682D01*
X11741768Y18207679D01*
X11741769Y18207678D01*
X11914749Y18136027D01*
X12098379Y18099501D01*
X12098383Y18099500D01*
X12098384Y18099500D01*
X12285617Y18099500D01*
X12285618Y18099501D01*
X12469251Y18136027D01*
X12642231Y18207678D01*
X12797908Y18311698D01*
X12930302Y18444092D01*
X13034322Y18599769D01*
X13105973Y18772749D01*
X13142500Y18956384D01*
X13142500Y19143616D01*
X13105973Y19327251D01*
X13034322Y19500231D01*
X13034321Y19500232D01*
X13034318Y19500238D01*
X12930302Y19655908D01*
X12930299Y19655912D01*
X12797911Y19788300D01*
X12797907Y19788303D01*
X12642237Y19892319D01*
X12642228Y19892324D01*
X12469251Y19963973D01*
X12469243Y19963975D01*
X12285620Y20000500D01*
X12285616Y20000500D01*
X12098384Y20000500D01*
X12098379Y20000500D01*
X11914756Y19963975D01*
X11914748Y19963973D01*
X11741771Y19892324D01*
X11741762Y19892319D01*
X11586092Y19788303D01*
X11586088Y19788300D01*
X11453700Y19655912D01*
X11453697Y19655908D01*
X11349681Y19500238D01*
X11349676Y19500229D01*
X11278027Y19327252D01*
X11278025Y19327244D01*
X11241500Y19143621D01*
X7935499Y19143621D01*
X7898973Y19327251D01*
X7827322Y19500231D01*
X7827321Y19500232D01*
X7827318Y19500238D01*
X7723302Y19655908D01*
X7723299Y19655912D01*
X7590911Y19788300D01*
X7590907Y19788303D01*
X7435237Y19892319D01*
X7435228Y19892324D01*
X7262251Y19963973D01*
X7262243Y19963975D01*
X7078620Y20000500D01*
X7078616Y20000500D01*
X6891384Y20000500D01*
X6891379Y20000500D01*
X6707756Y19963975D01*
X6707748Y19963973D01*
X6534771Y19892324D01*
X6534762Y19892319D01*
X6379092Y19788303D01*
X6379088Y19788300D01*
X6246700Y19655912D01*
X6246697Y19655908D01*
X6142681Y19500238D01*
X6142676Y19500229D01*
X6071027Y19327252D01*
X6071025Y19327244D01*
X6034500Y19143621D01*
X500500Y19143621D01*
X500500Y21683621D01*
X6034500Y21683621D01*
X6034500Y21496380D01*
X6071025Y21312757D01*
X6071027Y21312749D01*
X6142676Y21139772D01*
X6142681Y21139763D01*
X6246697Y20984093D01*
X6246700Y20984089D01*
X6379088Y20851701D01*
X6379092Y20851698D01*
X6534762Y20747682D01*
X6534768Y20747679D01*
X6534769Y20747678D01*
X6707749Y20676027D01*
X6891379Y20639501D01*
X6891383Y20639500D01*
X6891384Y20639500D01*
X7078617Y20639500D01*
X7078618Y20639501D01*
X7262251Y20676027D01*
X7435231Y20747678D01*
X7590908Y20851698D01*
X7723302Y20984092D01*
X7827322Y21139769D01*
X7898973Y21312749D01*
X7935500Y21496384D01*
X7935500Y21683616D01*
X7935499Y21683621D01*
X11241500Y21683621D01*
X11241500Y21496380D01*
X11278025Y21312757D01*
X11278027Y21312749D01*
X11349676Y21139772D01*
X11349681Y21139763D01*
X11453697Y20984093D01*
X11453700Y20984089D01*
X11586088Y20851701D01*
X11586092Y20851698D01*
X11741762Y20747682D01*
X11741768Y20747679D01*
X11741769Y20747678D01*
X11914749Y20676027D01*
X12098379Y20639501D01*
X12098383Y20639500D01*
X12098384Y20639500D01*
X12285617Y20639500D01*
X12285618Y20639501D01*
X12469251Y20676027D01*
X12642231Y20747678D01*
X12797908Y20851698D01*
X12930302Y20984092D01*
X13034322Y21139769D01*
X13105973Y21312749D01*
X13142500Y21496384D01*
X13142500Y21683616D01*
X13105973Y21867251D01*
X13034322Y22040231D01*
X13034321Y22040232D01*
X13034318Y22040238D01*
X12930302Y22195908D01*
X12930299Y22195912D01*
X12797911Y22328300D01*
X12797907Y22328303D01*
X12642237Y22432319D01*
X12642228Y22432324D01*
X12469251Y22503973D01*
X12469243Y22503975D01*
X12285620Y22540500D01*
X12285616Y22540500D01*
X12098384Y22540500D01*
X12098379Y22540500D01*
X11914756Y22503975D01*
X11914748Y22503973D01*
X11741771Y22432324D01*
X11741762Y22432319D01*
X11586092Y22328303D01*
X11586088Y22328300D01*
X11453700Y22195912D01*
X11453697Y22195908D01*
X11349681Y22040238D01*
X11349676Y22040229D01*
X11278027Y21867252D01*
X11278025Y21867244D01*
X11241500Y21683621D01*
X7935499Y21683621D01*
X7898973Y21867251D01*
X7827322Y22040231D01*
X7827321Y22040232D01*
X7827318Y22040238D01*
X7723302Y22195908D01*
X7723299Y22195912D01*
X7590911Y22328300D01*
X7590907Y22328303D01*
X7435237Y22432319D01*
X7435228Y22432324D01*
X7262251Y22503973D01*
X7262243Y22503975D01*
X7078620Y22540500D01*
X7078616Y22540500D01*
X6891384Y22540500D01*
X6891379Y22540500D01*
X6707756Y22503975D01*
X6707748Y22503973D01*
X6534771Y22432324D01*
X6534762Y22432319D01*
X6379092Y22328303D01*
X6379088Y22328300D01*
X6246700Y22195912D01*
X6246697Y22195908D01*
X6142681Y22040238D01*
X6142676Y22040229D01*
X6071027Y21867252D01*
X6071025Y21867244D01*
X6034500Y21683621D01*
X500500Y21683621D01*
X500500Y24223621D01*
X6034500Y24223621D01*
X6034500Y24036380D01*
X6071025Y23852757D01*
X6071027Y23852749D01*
X6142676Y23679772D01*
X6142681Y23679763D01*
X6246697Y23524093D01*
X6246700Y23524089D01*
X6379088Y23391701D01*
X6379092Y23391698D01*
X6534762Y23287682D01*
X6534768Y23287679D01*
X6534769Y23287678D01*
X6707749Y23216027D01*
X6891379Y23179501D01*
X6891383Y23179500D01*
X6891384Y23179500D01*
X7078617Y23179500D01*
X7078618Y23179501D01*
X7262251Y23216027D01*
X7435231Y23287678D01*
X7590908Y23391698D01*
X7723302Y23524092D01*
X7827322Y23679769D01*
X7898973Y23852749D01*
X7935500Y24036384D01*
X7935500Y24223616D01*
X7935499Y24223621D01*
X11241500Y24223621D01*
X11241500Y24036380D01*
X11278025Y23852757D01*
X11278027Y23852749D01*
X11349676Y23679772D01*
X11349681Y23679763D01*
X11453697Y23524093D01*
X11453700Y23524089D01*
X11586088Y23391701D01*
X11586092Y23391698D01*
X11741762Y23287682D01*
X11741768Y23287679D01*
X11741769Y23287678D01*
X11914749Y23216027D01*
X12098379Y23179501D01*
X12098383Y23179500D01*
X12098384Y23179500D01*
X12285617Y23179500D01*
X12285618Y23179501D01*
X12469251Y23216027D01*
X12642231Y23287678D01*
X12797908Y23391698D01*
X12930302Y23524092D01*
X13034322Y23679769D01*
X13105973Y23852749D01*
X13142500Y24036384D01*
X13142500Y24223616D01*
X13105973Y24407251D01*
X13034322Y24580231D01*
X13034321Y24580232D01*
X13034318Y24580238D01*
X12930302Y24735908D01*
X12930299Y24735912D01*
X12797911Y24868300D01*
X12797907Y24868303D01*
X12642237Y24972319D01*
X12642228Y24972324D01*
X12469251Y25043973D01*
X12469243Y25043975D01*
X12285620Y25080500D01*
X12285616Y25080500D01*
X12098384Y25080500D01*
X12098379Y25080500D01*
X11914756Y25043975D01*
X11914748Y25043973D01*
X11741771Y24972324D01*
X11741762Y24972319D01*
X11586092Y24868303D01*
X11586088Y24868300D01*
X11453700Y24735912D01*
X11453697Y24735908D01*
X11349681Y24580238D01*
X11349676Y24580229D01*
X11278027Y24407252D01*
X11278025Y24407244D01*
X11241500Y24223621D01*
X7935499Y24223621D01*
X7898973Y24407251D01*
X7827322Y24580231D01*
X7827321Y24580232D01*
X7827318Y24580238D01*
X7723302Y24735908D01*
X7723299Y24735912D01*
X7590911Y24868300D01*
X7590907Y24868303D01*
X7435237Y24972319D01*
X7435228Y24972324D01*
X7262251Y25043973D01*
X7262243Y25043975D01*
X7078620Y25080500D01*
X7078616Y25080500D01*
X6891384Y25080500D01*
X6891379Y25080500D01*
X6707756Y25043975D01*
X6707748Y25043973D01*
X6534771Y24972324D01*
X6534762Y24972319D01*
X6379092Y24868303D01*
X6379088Y24868300D01*
X6246700Y24735912D01*
X6246697Y24735908D01*
X6142681Y24580238D01*
X6142676Y24580229D01*
X6071027Y24407252D01*
X6071025Y24407244D01*
X6034500Y24223621D01*
X500500Y24223621D01*
X500500Y26763621D01*
X6034500Y26763621D01*
X6034500Y26576380D01*
X6071025Y26392757D01*
X6071027Y26392749D01*
X6142676Y26219772D01*
X6142681Y26219763D01*
X6246697Y26064093D01*
X6246700Y26064089D01*
X6379088Y25931701D01*
X6379092Y25931698D01*
X6534762Y25827682D01*
X6534768Y25827679D01*
X6534769Y25827678D01*
X6707749Y25756027D01*
X6891379Y25719501D01*
X6891383Y25719500D01*
X6891384Y25719500D01*
X7078617Y25719500D01*
X7078618Y25719501D01*
X7262251Y25756027D01*
X7435231Y25827678D01*
X7590908Y25931698D01*
X7723302Y26064092D01*
X7827322Y26219769D01*
X7898973Y26392749D01*
X7935500Y26576384D01*
X7935500Y26763616D01*
X7935499Y26763621D01*
X11241500Y26763621D01*
X11241500Y26576380D01*
X11278025Y26392757D01*
X11278027Y26392749D01*
X11349676Y26219772D01*
X11349681Y26219763D01*
X11453697Y26064093D01*
X11453700Y26064089D01*
X11586088Y25931701D01*
X11586092Y25931698D01*
X11741762Y25827682D01*
X11741768Y25827679D01*
X11741769Y25827678D01*
X11914749Y25756027D01*
X12098379Y25719501D01*
X12098383Y25719500D01*
X12098384Y25719500D01*
X12285617Y25719500D01*
X12285618Y25719501D01*
X12469251Y25756027D01*
X12642231Y25827678D01*
X12797908Y25931698D01*
X12930302Y26064092D01*
X13034322Y26219769D01*
X13105973Y26392749D01*
X13142500Y26576384D01*
X13142500Y26763616D01*
X13105973Y26947251D01*
X13034322Y27120231D01*
X13034321Y27120232D01*
X13034318Y27120238D01*
X12930302Y27275908D01*
X12930299Y27275912D01*
X12797911Y27408300D01*
X12797907Y27408303D01*
X12642237Y27512319D01*
X12642228Y27512324D01*
X12469251Y27583973D01*
X12469243Y27583975D01*
X12285620Y27620500D01*
X12285616Y27620500D01*
X12098384Y27620500D01*
X12098379Y27620500D01*
X11914756Y27583975D01*
X11914748Y27583973D01*
X11741771Y27512324D01*
X11741762Y27512319D01*
X11586092Y27408303D01*
X11586088Y27408300D01*
X11453700Y27275912D01*
X11453697Y27275908D01*
X11349681Y27120238D01*
X11349676Y27120229D01*
X11278027Y26947252D01*
X11278025Y26947244D01*
X11241500Y26763621D01*
X7935499Y26763621D01*
X7898973Y26947251D01*
X7827322Y27120231D01*
X7827321Y27120232D01*
X7827318Y27120238D01*
X7723302Y27275908D01*
X7723299Y27275912D01*
X7590911Y27408300D01*
X7590907Y27408303D01*
X7435237Y27512319D01*
X7435228Y27512324D01*
X7262251Y27583973D01*
X7262243Y27583975D01*
X7078620Y27620500D01*
X7078616Y27620500D01*
X6891384Y27620500D01*
X6891379Y27620500D01*
X6707756Y27583975D01*
X6707748Y27583973D01*
X6534771Y27512324D01*
X6534762Y27512319D01*
X6379092Y27408303D01*
X6379088Y27408300D01*
X6246700Y27275912D01*
X6246697Y27275908D01*
X6142681Y27120238D01*
X6142676Y27120229D01*
X6071027Y26947252D01*
X6071025Y26947244D01*
X6034500Y26763621D01*
X500500Y26763621D01*
X500500Y29303621D01*
X6034500Y29303621D01*
X6034500Y29116380D01*
X6071025Y28932757D01*
X6071027Y28932749D01*
X6142676Y28759772D01*
X6142681Y28759763D01*
X6246697Y28604093D01*
X6246700Y28604089D01*
X6379088Y28471701D01*
X6379092Y28471698D01*
X6534762Y28367682D01*
X6534768Y28367679D01*
X6534769Y28367678D01*
X6707749Y28296027D01*
X6891379Y28259501D01*
X6891383Y28259500D01*
X6891384Y28259500D01*
X7078617Y28259500D01*
X7078618Y28259501D01*
X7262251Y28296027D01*
X7435231Y28367678D01*
X7590908Y28471698D01*
X7723302Y28604092D01*
X7827322Y28759769D01*
X7898973Y28932749D01*
X7935500Y29116384D01*
X7935500Y29303616D01*
X7935499Y29303621D01*
X11241500Y29303621D01*
X11241500Y29116380D01*
X11278025Y28932757D01*
X11278027Y28932749D01*
X11349676Y28759772D01*
X11349681Y28759763D01*
X11453697Y28604093D01*
X11453700Y28604089D01*
X11586088Y28471701D01*
X11586092Y28471698D01*
X11741762Y28367682D01*
X11741768Y28367679D01*
X11741769Y28367678D01*
X11914749Y28296027D01*
X12098379Y28259501D01*
X12098383Y28259500D01*
X12098384Y28259500D01*
X12285617Y28259500D01*
X12285618Y28259501D01*
X12469251Y28296027D01*
X12642231Y28367678D01*
X12797908Y28471698D01*
X12930302Y28604092D01*
X13034322Y28759769D01*
X13105973Y28932749D01*
X13142500Y29116384D01*
X13142500Y29303616D01*
X13105973Y29487251D01*
X13034322Y29660231D01*
X13034321Y29660232D01*
X13034318Y29660238D01*
X12930302Y29815908D01*
X12930299Y29815912D01*
X12797911Y29948300D01*
X12797907Y29948303D01*
X12642237Y30052319D01*
X12642228Y30052324D01*
X12469251Y30123973D01*
X12469243Y30123975D01*
X12285620Y30160500D01*
X12285616Y30160500D01*
X12098384Y30160500D01*
X12098379Y30160500D01*
X11914756Y30123975D01*
X11914748Y30123973D01*
X11741771Y30052324D01*
X11741762Y30052319D01*
X11586092Y29948303D01*
X11586088Y29948300D01*
X11453700Y29815912D01*
X11453697Y29815908D01*
X11349681Y29660238D01*
X11349676Y29660229D01*
X11278027Y29487252D01*
X11278025Y29487244D01*
X11241500Y29303621D01*
X7935499Y29303621D01*
X7898973Y29487251D01*
X7827322Y29660231D01*
X7827321Y29660232D01*
X7827318Y29660238D01*
X7723302Y29815908D01*
X7723299Y29815912D01*
X7590911Y29948300D01*
X7590907Y29948303D01*
X7435237Y30052319D01*
X7435228Y30052324D01*
X7262251Y30123973D01*
X7262243Y30123975D01*
X7078620Y30160500D01*
X7078616Y30160500D01*
X6891384Y30160500D01*
X6891379Y30160500D01*
X6707756Y30123975D01*
X6707748Y30123973D01*
X6534771Y30052324D01*
X6534762Y30052319D01*
X6379092Y29948303D01*
X6379088Y29948300D01*
X6246700Y29815912D01*
X6246697Y29815908D01*
X6142681Y29660238D01*
X6142676Y29660229D01*
X6071027Y29487252D01*
X6071025Y29487244D01*
X6034500Y29303621D01*
X500500Y29303621D01*
X500500Y31843621D01*
X6034500Y31843621D01*
X6034500Y31656380D01*
X6071025Y31472757D01*
X6071027Y31472749D01*
X6142676Y31299772D01*
X6142681Y31299763D01*
X6246697Y31144093D01*
X6246700Y31144089D01*
X6379088Y31011701D01*
X6379092Y31011698D01*
X6534762Y30907682D01*
X6534768Y30907679D01*
X6534769Y30907678D01*
X6707749Y30836027D01*
X6891379Y30799501D01*
X6891383Y30799500D01*
X6891384Y30799500D01*
X7078617Y30799500D01*
X7078618Y30799501D01*
X7262251Y30836027D01*
X7435231Y30907678D01*
X7590908Y31011698D01*
X7723302Y31144092D01*
X7827322Y31299769D01*
X7898973Y31472749D01*
X7935500Y31656384D01*
X7935500Y31843616D01*
X7935499Y31843621D01*
X11241500Y31843621D01*
X11241500Y31656380D01*
X11278025Y31472757D01*
X11278027Y31472749D01*
X11349676Y31299772D01*
X11349681Y31299763D01*
X11453697Y31144093D01*
X11453700Y31144089D01*
X11586088Y31011701D01*
X11586092Y31011698D01*
X11741762Y30907682D01*
X11741768Y30907679D01*
X11741769Y30907678D01*
X11914749Y30836027D01*
X12098379Y30799501D01*
X12098383Y30799500D01*
X12098384Y30799500D01*
X12285617Y30799500D01*
X12285618Y30799501D01*
X12469251Y30836027D01*
X12642231Y30907678D01*
X12797908Y31011698D01*
X12930302Y31144092D01*
X13034322Y31299769D01*
X13105973Y31472749D01*
X13142500Y31656384D01*
X13142500Y31843616D01*
X13105973Y32027251D01*
X13034322Y32200231D01*
X13034321Y32200232D01*
X13034318Y32200238D01*
X12930302Y32355908D01*
X12930299Y32355912D01*
X12797911Y32488300D01*
X12797907Y32488303D01*
X12642237Y32592319D01*
X12642228Y32592324D01*
X12469251Y32663973D01*
X12469243Y32663975D01*
X12285620Y32700500D01*
X12285616Y32700500D01*
X12098384Y32700500D01*
X12098379Y32700500D01*
X11914756Y32663975D01*
X11914748Y32663973D01*
X11741771Y32592324D01*
X11741762Y32592319D01*
X11586092Y32488303D01*
X11586088Y32488300D01*
X11453700Y32355912D01*
X11453697Y32355908D01*
X11349681Y32200238D01*
X11349676Y32200229D01*
X11278027Y32027252D01*
X11278025Y32027244D01*
X11241500Y31843621D01*
X7935499Y31843621D01*
X7898973Y32027251D01*
X7827322Y32200231D01*
X7827321Y32200232D01*
X7827318Y32200238D01*
X7723302Y32355908D01*
X7723299Y32355912D01*
X7590911Y32488300D01*
X7590907Y32488303D01*
X7435237Y32592319D01*
X7435228Y32592324D01*
X7262251Y32663973D01*
X7262243Y32663975D01*
X7078620Y32700500D01*
X7078616Y32700500D01*
X6891384Y32700500D01*
X6891379Y32700500D01*
X6707756Y32663975D01*
X6707748Y32663973D01*
X6534771Y32592324D01*
X6534762Y32592319D01*
X6379092Y32488303D01*
X6379088Y32488300D01*
X6246700Y32355912D01*
X6246697Y32355908D01*
X6142681Y32200238D01*
X6142676Y32200229D01*
X6071027Y32027252D01*
X6071025Y32027244D01*
X6034500Y31843621D01*
X500500Y31843621D01*
X500500Y34540000D01*
X5759016Y34540000D01*
X6609722Y34540000D01*
X6565667Y34463694D01*
X6535000Y34349244D01*
X6535000Y34230756D01*
X6565667Y34116306D01*
X6609722Y34040000D01*
X5759016Y34040000D01*
X5765781Y33997284D01*
X5826581Y33810163D01*
X5915904Y33634857D01*
X6031555Y33475679D01*
X6170678Y33336556D01*
X6329856Y33220905D01*
X6505162Y33131582D01*
X6692283Y33070782D01*
X6735000Y33064016D01*
X6735000Y33914723D01*
X6811306Y33870667D01*
X6925756Y33840000D01*
X7044244Y33840000D01*
X7158694Y33870667D01*
X7235000Y33914723D01*
X7235000Y33064017D01*
X7277716Y33070782D01*
X7464837Y33131582D01*
X7640143Y33220905D01*
X7799321Y33336556D01*
X7938444Y33475679D01*
X8054095Y33634857D01*
X8143418Y33810163D01*
X8204218Y33997284D01*
X8210984Y34040000D01*
X7360278Y34040000D01*
X7404333Y34116306D01*
X7435000Y34230756D01*
X7435000Y34349244D01*
X7404333Y34463694D01*
X7360278Y34540000D01*
X8210984Y34540000D01*
X10966016Y34540000D01*
X11816722Y34540000D01*
X11772667Y34463694D01*
X11742000Y34349244D01*
X11742000Y34230756D01*
X11772667Y34116306D01*
X11816722Y34040000D01*
X10966016Y34040000D01*
X10972781Y33997284D01*
X11033581Y33810163D01*
X11122904Y33634857D01*
X11238555Y33475679D01*
X11377678Y33336556D01*
X11536856Y33220905D01*
X11712162Y33131582D01*
X11899283Y33070782D01*
X11942000Y33064016D01*
X11942000Y33914723D01*
X12018306Y33870667D01*
X12132756Y33840000D01*
X12251244Y33840000D01*
X12365694Y33870667D01*
X12442000Y33914723D01*
X12442000Y33064017D01*
X12484716Y33070782D01*
X12671837Y33131582D01*
X12847143Y33220905D01*
X13006321Y33336556D01*
X13145444Y33475679D01*
X13261095Y33634857D01*
X13350418Y33810163D01*
X13411218Y33997284D01*
X13417984Y34040000D01*
X12567278Y34040000D01*
X12611333Y34116306D01*
X12642000Y34230756D01*
X12642000Y34349244D01*
X12611333Y34463694D01*
X12567278Y34540000D01*
X13417984Y34540000D01*
X13411218Y34582717D01*
X13350418Y34769838D01*
X13261095Y34945144D01*
X13145444Y35104322D01*
X13006321Y35243445D01*
X12847143Y35359096D01*
X12671835Y35448419D01*
X12484705Y35509222D01*
X12442000Y35515986D01*
X12442000Y34665278D01*
X12365694Y34709333D01*
X12251244Y34740000D01*
X12132756Y34740000D01*
X12018306Y34709333D01*
X11942000Y34665278D01*
X11942000Y35515986D01*
X11941999Y35515986D01*
X11899294Y35509222D01*
X11712164Y35448419D01*
X11536856Y35359096D01*
X11377678Y35243445D01*
X11238555Y35104322D01*
X11122904Y34945144D01*
X11033581Y34769838D01*
X10972781Y34582717D01*
X10966016Y34540000D01*
X8210984Y34540000D01*
X8204218Y34582717D01*
X8143418Y34769838D01*
X8054095Y34945144D01*
X7938444Y35104322D01*
X7799321Y35243445D01*
X7640143Y35359096D01*
X7464835Y35448419D01*
X7277705Y35509222D01*
X7235000Y35515986D01*
X7235000Y34665278D01*
X7158694Y34709333D01*
X7044244Y34740000D01*
X6925756Y34740000D01*
X6811306Y34709333D01*
X6735000Y34665278D01*
X6735000Y35515986D01*
X6734999Y35515986D01*
X6692294Y35509222D01*
X6505164Y35448419D01*
X6329856Y35359096D01*
X6170678Y35243445D01*
X6031555Y35104322D01*
X5915904Y34945144D01*
X5826581Y34769838D01*
X5765781Y34582717D01*
X5759016Y34540000D01*
X500500Y34540000D01*
X500500Y36923621D01*
X6034500Y36923621D01*
X6034500Y36736380D01*
X6071025Y36552757D01*
X6071027Y36552749D01*
X6142676Y36379772D01*
X6142681Y36379763D01*
X6246697Y36224093D01*
X6246700Y36224089D01*
X6379088Y36091701D01*
X6379092Y36091698D01*
X6534762Y35987682D01*
X6534768Y35987679D01*
X6534769Y35987678D01*
X6707749Y35916027D01*
X6891379Y35879501D01*
X6891383Y35879500D01*
X6891384Y35879500D01*
X7078617Y35879500D01*
X7078618Y35879501D01*
X7262251Y35916027D01*
X7435231Y35987678D01*
X7590908Y36091698D01*
X7723302Y36224092D01*
X7827322Y36379769D01*
X7898973Y36552749D01*
X7935500Y36736384D01*
X7935500Y36923616D01*
X7935499Y36923621D01*
X11241500Y36923621D01*
X11241500Y36736380D01*
X11278025Y36552757D01*
X11278027Y36552749D01*
X11349676Y36379772D01*
X11349681Y36379763D01*
X11453697Y36224093D01*
X11453700Y36224089D01*
X11586088Y36091701D01*
X11586092Y36091698D01*
X11741762Y35987682D01*
X11741768Y35987679D01*
X11741769Y35987678D01*
X11914749Y35916027D01*
X12098379Y35879501D01*
X12098383Y35879500D01*
X12098384Y35879500D01*
X12285617Y35879500D01*
X12285618Y35879501D01*
X12469251Y35916027D01*
X12642231Y35987678D01*
X12797908Y36091698D01*
X12930302Y36224092D01*
X13034322Y36379769D01*
X13105973Y36552749D01*
X13142500Y36736384D01*
X13142500Y36923616D01*
X13105973Y37107251D01*
X13034322Y37280231D01*
X13034321Y37280232D01*
X13034318Y37280238D01*
X12930302Y37435908D01*
X12930299Y37435912D01*
X12797911Y37568300D01*
X12797907Y37568303D01*
X12642237Y37672319D01*
X12642228Y37672324D01*
X12469251Y37743973D01*
X12469243Y37743975D01*
X12285620Y37780500D01*
X12285616Y37780500D01*
X12098384Y37780500D01*
X12098379Y37780500D01*
X11914756Y37743975D01*
X11914748Y37743973D01*
X11741771Y37672324D01*
X11741762Y37672319D01*
X11586092Y37568303D01*
X11586088Y37568300D01*
X11453700Y37435912D01*
X11453697Y37435908D01*
X11349681Y37280238D01*
X11349676Y37280229D01*
X11278027Y37107252D01*
X11278025Y37107244D01*
X11241500Y36923621D01*
X7935499Y36923621D01*
X7898973Y37107251D01*
X7827322Y37280231D01*
X7827321Y37280232D01*
X7827318Y37280238D01*
X7723302Y37435908D01*
X7723299Y37435912D01*
X7590911Y37568300D01*
X7590907Y37568303D01*
X7435237Y37672319D01*
X7435228Y37672324D01*
X7262251Y37743973D01*
X7262243Y37743975D01*
X7078620Y37780500D01*
X7078616Y37780500D01*
X6891384Y37780500D01*
X6891379Y37780500D01*
X6707756Y37743975D01*
X6707748Y37743973D01*
X6534771Y37672324D01*
X6534762Y37672319D01*
X6379092Y37568303D01*
X6379088Y37568300D01*
X6246700Y37435912D01*
X6246697Y37435908D01*
X6142681Y37280238D01*
X6142676Y37280229D01*
X6071027Y37107252D01*
X6071025Y37107244D01*
X6034500Y36923621D01*
X500500Y36923621D01*
X500500Y39463621D01*
X6034500Y39463621D01*
X6034500Y39276380D01*
X6071025Y39092757D01*
X6071027Y39092749D01*
X6142676Y38919772D01*
X6142681Y38919763D01*
X6246697Y38764093D01*
X6246700Y38764089D01*
X6379088Y38631701D01*
X6379092Y38631698D01*
X6534762Y38527682D01*
X6534768Y38527679D01*
X6534769Y38527678D01*
X6707749Y38456027D01*
X6891379Y38419501D01*
X6891383Y38419500D01*
X6891384Y38419500D01*
X7078617Y38419500D01*
X7078618Y38419501D01*
X7262251Y38456027D01*
X7435231Y38527678D01*
X7590908Y38631698D01*
X7723302Y38764092D01*
X7827322Y38919769D01*
X7898973Y39092749D01*
X7935500Y39276384D01*
X7935500Y39463616D01*
X7935499Y39463621D01*
X11241500Y39463621D01*
X11241500Y39276380D01*
X11278025Y39092757D01*
X11278027Y39092749D01*
X11349676Y38919772D01*
X11349681Y38919763D01*
X11453697Y38764093D01*
X11453700Y38764089D01*
X11586088Y38631701D01*
X11586092Y38631698D01*
X11741762Y38527682D01*
X11741768Y38527679D01*
X11741769Y38527678D01*
X11914749Y38456027D01*
X12098379Y38419501D01*
X12098383Y38419500D01*
X12098384Y38419500D01*
X12285617Y38419500D01*
X12285618Y38419501D01*
X12469251Y38456027D01*
X12642231Y38527678D01*
X12797908Y38631698D01*
X12930302Y38764092D01*
X13034322Y38919769D01*
X13105973Y39092749D01*
X13142500Y39276384D01*
X13142500Y39463616D01*
X13105973Y39647251D01*
X13034322Y39820231D01*
X13034321Y39820232D01*
X13034318Y39820238D01*
X12930302Y39975908D01*
X12930299Y39975912D01*
X12797911Y40108300D01*
X12797907Y40108303D01*
X12642237Y40212319D01*
X12642228Y40212324D01*
X12469251Y40283973D01*
X12469243Y40283975D01*
X12285620Y40320500D01*
X12285616Y40320500D01*
X12098384Y40320500D01*
X12098379Y40320500D01*
X11914756Y40283975D01*
X11914748Y40283973D01*
X11741771Y40212324D01*
X11741762Y40212319D01*
X11586092Y40108303D01*
X11586088Y40108300D01*
X11453700Y39975912D01*
X11453697Y39975908D01*
X11349681Y39820238D01*
X11349676Y39820229D01*
X11278027Y39647252D01*
X11278025Y39647244D01*
X11241500Y39463621D01*
X7935499Y39463621D01*
X7898973Y39647251D01*
X7827322Y39820231D01*
X7827321Y39820232D01*
X7827318Y39820238D01*
X7723302Y39975908D01*
X7723299Y39975912D01*
X7590911Y40108300D01*
X7590907Y40108303D01*
X7435237Y40212319D01*
X7435228Y40212324D01*
X7262251Y40283973D01*
X7262243Y40283975D01*
X7078620Y40320500D01*
X7078616Y40320500D01*
X6891384Y40320500D01*
X6891379Y40320500D01*
X6707756Y40283975D01*
X6707748Y40283973D01*
X6534771Y40212324D01*
X6534762Y40212319D01*
X6379092Y40108303D01*
X6379088Y40108300D01*
X6246700Y39975912D01*
X6246697Y39975908D01*
X6142681Y39820238D01*
X6142676Y39820229D01*
X6071027Y39647252D01*
X6071025Y39647244D01*
X6034500Y39463621D01*
X500500Y39463621D01*
X500500Y50175500D01*
X520185Y50242539D01*
X572989Y50288294D01*
X624500Y50299500D01*
X69225500Y50299500D01*
X69292539Y50279815D01*
G37*
%TD.AperFunction*%
%TD*%
M02*
