M48
; DRILL file KiCad 10.0.3 date 2026-08-03T10:59:18
; FORMAT={-:-/ absolute / metric / decimal}
; #@! TF.CreationDate,2026-08-03T10:59:18-07:00
; #@! TF.GenerationSoftware,Kicad,Pcbnew,10.0.3
; #@! TF.FileFunction,Plated,1,2,PTH
FMAT,2
METRIC
; #@! TA.AperFunction,Plated,PTH,ComponentDrill
T1C0.900
; #@! TA.AperFunction,Plated,PTH,ComponentDrill
T2C3.200
%
G90
G05
T1
X6.985Y39.37
X6.985Y36.83
X6.985Y34.29
X6.985Y31.75
X6.985Y29.21
X6.985Y26.67
X6.985Y24.13
X6.985Y21.59
X6.985Y19.05
X6.985Y16.51
X6.985Y13.97
X6.985Y11.43
X12.192Y39.37
X12.192Y36.83
X12.192Y34.29
X12.192Y31.75
X12.192Y29.21
X12.192Y26.67
X12.192Y24.13
X12.192Y21.59
X12.192Y19.05
X12.192Y16.51
X12.192Y13.97
X12.192Y11.43
T2
X4.445Y46.355
X4.445Y4.445
X23.495Y46.355
X23.495Y4.445
X46.355Y46.355
X46.355Y4.445
X65.405Y46.355
X65.405Y4.445
M30
